<svg width="32" height="32" viewBox="0 0 32 32" fill="none" xmlns="http://www.w3.org/2000/svg">
<path d="M16 13.5C15.5055 13.5 15.0222 13.6466 14.6111 13.9213C14.2 14.196 13.8795 14.5865 13.6903 15.0433C13.5011 15.5001 13.4516 16.0028 13.548 16.4877C13.6445 16.9727 13.8826 17.4181 14.2322 17.7678C14.5819 18.1174 15.0273 18.3555 15.5123 18.452C15.9972 18.5484 16.4999 18.4989 16.9567 18.3097C17.4135 18.1205 17.804 17.8 18.0787 17.3889C18.3534 16.9778 18.5 16.4945 18.5 16C18.5 15.337 18.2366 14.7011 17.7678 14.2322C17.2989 13.7634 16.663 13.5 16 13.5ZM16 17.25C15.7528 17.25 15.5111 17.1767 15.3055 17.0393C15.1 16.902 14.9398 16.7068 14.8452 16.4784C14.7505 16.2499 14.7258 15.9986 14.774 15.7561C14.8223 15.5137 14.9413 15.2909 15.1161 15.1161C15.2909 14.9413 15.5137 14.8222 15.7561 14.774C15.9986 14.7258 16.2499 14.7505 16.4784 14.8452C16.7068 14.9398 16.902 15.1 17.0393 15.3055C17.1767 15.5111 17.25 15.7528 17.25 16C17.25 16.3315 17.1183 16.6495 16.8839 16.8839C16.6495 17.1183 16.3315 17.25 16 17.25ZM9.75 13.5C9.25555 13.5 8.7722 13.6466 8.36108 13.9213C7.94995 14.196 7.62952 14.5865 7.4403 15.0433C7.25108 15.5001 7.20157 16.0028 7.29804 16.4877C7.3945 16.9727 7.6326 17.4181 7.98223 17.7678C8.33187 18.1174 8.77732 18.3555 9.26228 18.452C9.74723 18.5484 10.2499 18.4989 10.7067 18.3097C11.1635 18.1205 11.554 17.8 11.8287 17.3889C12.1034 16.9778 12.25 16.4945 12.25 16C12.25 15.337 11.9866 14.7011 11.5178 14.2322C11.0489 13.7634 10.413 13.5 9.75 13.5ZM9.75 17.25C9.50277 17.25 9.2611 17.1767 9.05554 17.0393C8.84998 16.902 8.68976 16.7068 8.59515 16.4784C8.50054 16.2499 8.47579 15.9986 8.52402 15.7561C8.57225 15.5137 8.6913 15.2909 8.86612 15.1161C9.04093 14.9413 9.26366 14.8222 9.50614 14.774C9.74861 14.7258 9.99995 14.7505 10.2284 14.8452C10.4568 14.9398 10.652 15.1 10.7893 15.3055C10.9267 15.5111 11 15.7528 11 16C11 16.3315 10.8683 16.6495 10.6339 16.8839C10.3995 17.1183 10.0815 17.25 9.75 17.25ZM22.25 13.5C21.7555 13.5 21.2722 13.6466 20.8611 13.9213C20.45 14.196 20.1295 14.5865 19.9403 15.0433C19.7511 15.5001 19.7016 16.0028 19.798 16.4877C19.8945 16.9727 20.1326 17.4181 20.4822 17.7678C20.8319 18.1174 21.2773 18.3555 21.7623 18.452C22.2472 18.5484 22.7499 18.4989 23.2067 18.3097C23.6635 18.1205 24.054 17.8 24.3287 17.3889C24.6034 16.9778 24.75 16.4945 24.75 16C24.75 15.337 24.4866 14.7011 24.0178 14.2322C23.5489 13.7634 22.913 13.5 22.25 13.5ZM22.25 17.25C22.0028 17.25 21.7611 17.1767 21.5555 17.0393C21.35 16.902 21.1898 16.7068 21.0952 16.4784C21.0005 16.2499 20.9758 15.9986 21.024 15.7561C21.0723 15.5137 21.1913 15.2909 21.3661 15.1161C21.5409 14.9413 21.7637 14.8222 22.0061 14.774C22.2486 14.7258 22.4999 14.7505 22.7284 14.8452C22.9568 14.9398 23.152 15.1 23.2893 15.3055C23.4267 15.5111 23.5 15.7528 23.5 16C23.5 16.3315 23.3683 16.6495 23.1339 16.8839C22.8995 17.1183 22.5815 17.25 22.25 17.25Z" fill="black" fill-opacity="0.8"/>
</svg>
