<svg width="32" height="32" viewBox="0 0 32 32" fill="none" xmlns="http://www.w3.org/2000/svg">
<path d="M18.9422 21.8079C19.0003 21.866 19.0463 21.9349 19.0777 22.0108C19.1092 22.0867 19.1254 22.168 19.1254 22.2501C19.1254 22.3322 19.1092 22.4135 19.0777 22.4894C19.0463 22.5653 19.0003 22.6342 18.9422 22.6923C18.8841 22.7504 18.8152 22.7964 18.7393 22.8278C18.6634 22.8593 18.5821 22.8755 18.5 22.8755C18.4179 22.8755 18.3366 22.8593 18.2607 22.8278C18.1848 22.7964 18.1159 22.7504 18.0578 22.6923L11.8078 16.4423C11.7497 16.3842 11.7036 16.3153 11.6722 16.2394C11.6407 16.1636 11.6245 16.0822 11.6245 16.0001C11.6245 15.918 11.6407 15.8366 11.6722 15.7608C11.7036 15.6849 11.7497 15.616 11.8078 15.5579L18.0578 9.30792C18.1751 9.19064 18.3342 9.12476 18.5 9.12476C18.6659 9.12476 18.8249 9.19064 18.9422 9.30792C19.0595 9.42519 19.1254 9.58425 19.1254 9.7501C19.1254 9.91596 19.0595 10.075 18.9422 10.1923L13.1336 16.0001L18.9422 21.8079Z" fill="black" fill-opacity="0.8"/>
</svg>
