<svg width="40" height="40" viewBox="0 0 40 40" fill="none" xmlns="http://www.w3.org/2000/svg">
<path d="M0 6C0 2.68629 2.68629 0 6 0H34C37.3137 0 40 2.68629 40 6V34C40 37.3137 37.3137 40 34 40H6C2.68629 40 0 37.3137 0 34V6Z" fill="black" fill-opacity="0.05"/>
<path d="M11 14C11 13.8011 11.079 13.6103 11.2197 13.4697C11.3603 13.329 11.5511 13.25 11.75 13.25H28.25C28.4489 13.25 28.6397 13.329 28.7803 13.4697C28.921 13.6103 29 13.8011 29 14C29 14.1989 28.921 14.3897 28.7803 14.5303C28.6397 14.671 28.4489 14.75 28.25 14.75H11.75C11.5511 14.75 11.3603 14.671 11.2197 14.5303C11.079 14.3897 11 14.1989 11 14ZM11.75 20.75H28.25C28.4489 20.75 28.6397 20.671 28.7803 20.5303C28.921 20.3897 29 20.1989 29 20C29 19.8011 28.921 19.6103 28.7803 19.4697C28.6397 19.329 28.4489 19.25 28.25 19.25H11.75C11.5511 19.25 11.3603 19.329 11.2197 19.4697C11.079 19.6103 11 19.8011 11 20C11 20.1989 11.079 20.3897 11.2197 20.5303C11.3603 20.671 11.5511 20.75 11.75 20.75ZM21.5 25.25H11.75C11.5511 25.25 11.3603 25.329 11.2197 25.4697C11.079 25.6103 11 25.8011 11 26C11 26.1989 11.079 26.3897 11.2197 26.5303C11.3603 26.671 11.5511 26.75 11.75 26.75H21.5C21.6989 26.75 21.8897 26.671 22.0303 26.5303C22.171 26.3897 22.25 26.1989 22.25 26C22.25 25.8011 22.171 25.6103 22.0303 25.4697C21.8897 25.329 21.6989 25.25 21.5 25.25ZM29.75 25.25H28.25V23.75C28.25 23.5511 28.171 23.3603 28.0303 23.2197C27.8897 23.079 27.6989 23 27.5 23C27.3011 23 27.1103 23.079 26.9697 23.2197C26.829 23.3603 26.75 23.5511 26.75 23.75V25.25H25.25C25.0511 25.25 24.8603 25.329 24.7197 25.4697C24.579 25.6103 24.5 25.8011 24.5 26C24.5 26.1989 24.579 26.3897 24.7197 26.5303C24.8603 26.671 25.0511 26.75 25.25 26.75H26.75V28.25C26.75 28.4489 26.829 28.6397 26.9697 28.7803C27.1103 28.921 27.3011 29 27.5 29C27.6989 29 27.8897 28.921 28.0303 28.7803C28.171 28.6397 28.25 28.4489 28.25 28.25V26.75H29.75C29.9489 26.75 30.1397 26.671 30.2803 26.5303C30.421 26.3897 30.5 26.1989 30.5 26C30.5 25.8011 30.421 25.6103 30.2803 25.4697C30.1397 25.329 29.9489 25.25 29.75 25.25Z" fill="black" fill-opacity="0.8"/>
</svg>
