<svg width="40" height="40" viewBox="0 0 40 40" fill="none" xmlns="http://www.w3.org/2000/svg">
<path d="M28.5153 17.7286L21.0153 10.6523C21.0116 10.6491 21.0082 10.6457 21.005 10.642C20.7289 10.3909 20.369 10.2517 19.9958 10.2517C19.6225 10.2517 19.2627 10.3909 18.9866 10.642L18.9763 10.6523L11.4847 17.7286C11.3319 17.8691 11.2099 18.0398 11.1265 18.2299C11.043 18.42 11 18.6253 11 18.8329V27.5001C11 27.8979 11.158 28.2795 11.4393 28.5608C11.7206 28.8421 12.1022 29.0001 12.5 29.0001H17C17.3978 29.0001 17.7794 28.8421 18.0607 28.5608C18.342 28.2795 18.5 27.8979 18.5 27.5001V23.0001H21.5V27.5001C21.5 27.8979 21.658 28.2795 21.9393 28.5608C22.2206 28.8421 22.6022 29.0001 23 29.0001H27.5C27.8978 29.0001 28.2794 28.8421 28.5607 28.5608C28.842 28.2795 29 27.8979 29 27.5001V18.8329C29 18.6253 28.957 18.42 28.8735 18.2299C28.7901 18.0398 28.6681 17.8691 28.5153 17.7286ZM27.5 27.5001H23V23.0001C23 22.6023 22.842 22.2208 22.5607 21.9395C22.2794 21.6582 21.8978 21.5001 21.5 21.5001H18.5C18.1022 21.5001 17.7206 21.6582 17.4393 21.9395C17.158 22.2208 17 22.6023 17 23.0001V27.5001H12.5V18.8329L12.5103 18.8236L20 11.7501L27.4906 18.8217L27.5009 18.8311L27.5 27.5001Z" fill="black" fill-opacity="0.8"/>
</svg>
