<svg width="40" height="40" viewBox="0 0 40 40" fill="none" xmlns="http://www.w3.org/2000/svg">
<path d="M29.7299 25.5623C30.2589 24.4871 30.5225 23.3008 30.4987 22.1028C30.4749 20.9047 30.1644 19.7298 29.5932 18.6765C29.022 17.6231 28.2067 16.7219 27.2156 16.0484C26.2245 15.3749 25.0865 14.9487 23.8968 14.8055C23.5023 13.8857 22.9276 13.0542 22.2067 12.36C21.4859 11.6657 20.6333 11.1228 19.6994 10.7632C18.7654 10.4035 17.7689 10.2345 16.7686 10.2659C15.7683 10.2974 14.7843 10.5287 13.8748 10.9463C12.9653 11.3639 12.1485 11.9593 11.4727 12.6974C10.7968 13.4356 10.2756 14.3015 9.93955 15.2443C9.60355 16.187 9.45963 17.1874 9.51626 18.1866C9.5729 19.1858 9.82895 20.1636 10.2693 21.0623L9.5512 23.5767C9.48712 23.8016 9.48431 24.0396 9.54307 24.266C9.60182 24.4924 9.72001 24.699 9.8854 24.8644C10.0508 25.0298 10.2574 25.148 10.4838 25.2067C10.7101 25.2655 10.9481 25.2627 11.1731 25.1986L13.6874 24.4805C14.4462 24.853 15.2623 25.0948 16.1015 25.1958C16.5015 26.133 17.0884 26.9788 17.8261 27.6817C18.5639 28.3846 19.4372 28.9298 20.3927 29.284C21.3482 29.6381 22.3658 29.7939 23.3835 29.7417C24.4012 29.6895 25.3976 29.4305 26.3118 28.9805L28.8262 29.6986C29.0511 29.7627 29.2891 29.7655 29.5155 29.7067C29.7419 29.648 29.9485 29.5298 30.1139 29.3644C30.2793 29.199 30.3974 28.9924 30.4562 28.766C30.515 28.5396 30.5122 28.3016 30.4481 28.0767L29.7299 25.5623ZM13.7681 22.928C13.6984 22.928 13.629 22.9374 13.5618 22.9561L11.0859 23.6639L11.7937 21.188C11.8467 20.9993 11.8239 20.7974 11.7299 20.6255C11.0403 19.3594 10.83 17.8872 11.1376 16.4787C11.4452 15.0702 12.25 13.8197 13.4045 12.9563C14.5591 12.093 15.9862 11.6745 17.4242 11.7778C18.8622 11.881 20.2148 12.4989 21.2342 13.5184C22.2537 14.5378 22.8716 15.8904 22.9748 17.3284C23.078 18.7664 22.6596 20.1935 21.7963 21.348C20.9329 22.5026 19.6824 23.3074 18.2739 23.615C16.8654 23.9225 15.3932 23.7123 14.1271 23.0226C14.0174 22.9613 13.8938 22.9287 13.7681 22.928ZM28.2056 25.688L28.9134 28.1639L26.4374 27.4561C26.2488 27.403 26.0469 27.4259 25.8749 27.5198C24.4924 28.272 22.8699 28.4514 21.3564 28.0194C19.843 27.5873 18.5596 26.5785 17.7824 25.2098C18.8094 25.1029 19.8032 24.7848 20.7015 24.2757C21.5998 23.7665 22.3831 23.0771 23.0024 22.2509C23.6216 21.4247 24.0635 20.4794 24.3002 19.4744C24.5368 18.4693 24.5633 17.4262 24.3778 16.4105C25.2765 16.6223 26.1142 17.0386 26.8256 17.6271C27.5371 18.2156 28.1032 18.9604 28.4798 19.8034C28.8563 20.6465 29.0332 21.565 28.9967 22.4876C28.9603 23.4102 28.7113 24.312 28.2693 25.1226C28.1747 25.2954 28.1518 25.4985 28.2056 25.688Z" fill="black" fill-opacity="0.8"/>
</svg>
