<svg width="40" height="40" viewBox="0 0 40 40" fill="none" xmlns="http://www.w3.org/2000/svg">
<path d="M0 6C0 2.68629 2.68629 0 6 0H34C37.3137 0 40 2.68629 40 6V34C40 37.3137 37.3137 40 34 40H6C2.68629 40 0 37.3137 0 34V6Z" fill="#111827"/>
<path d="M27.2806 26.2193C27.3502 26.289 27.4055 26.3717 27.4432 26.4628C27.4809 26.5538 27.5003 26.6514 27.5003 26.7499C27.5003 26.8485 27.4809 26.9461 27.4432 27.0371C27.4055 27.1281 27.3502 27.2109 27.2806 27.2806C27.2109 27.3502 27.1281 27.4055 27.0371 27.4432C26.9461 27.4809 26.8485 27.5003 26.7499 27.5003C26.6514 27.5003 26.5538 27.4809 26.4628 27.4432C26.3717 27.4055 26.289 27.3502 26.2193 27.2806L19.9999 21.0602L13.7806 27.2806C13.6398 27.4213 13.449 27.5003 13.2499 27.5003C13.0509 27.5003 12.86 27.4213 12.7193 27.2806C12.5786 27.1398 12.4995 26.949 12.4995 26.7499C12.4995 26.5509 12.5786 26.36 12.7193 26.2193L18.9396 19.9999L12.7193 13.7806C12.5786 13.6398 12.4995 13.449 12.4995 13.2499C12.4995 13.0509 12.5786 12.86 12.7193 12.7193C12.86 12.5786 13.0509 12.4995 13.2499 12.4995C13.449 12.4995 13.6398 12.5786 13.7806 12.7193L19.9999 18.9396L26.2193 12.7193C26.36 12.5786 26.5509 12.4995 26.7499 12.4995C26.949 12.4995 27.1398 12.5786 27.2806 12.7193C27.4213 12.86 27.5003 13.0509 27.5003 13.2499C27.5003 13.449 27.4213 13.6398 27.2806 13.7806L21.0602 19.9999L27.2806 26.2193Z" fill="white"/>
</svg>
