<svg width="32" height="32" viewBox="0 0 32 32" fill="none" xmlns="http://www.w3.org/2000/svg">
<path d="M9.93281 15.1922C9.81554 15.0749 9.74965 14.9159 9.74965 14.75C9.74965 14.5841 9.81554 14.4251 9.93281 14.3078C10.0501 14.1905 10.2091 14.1247 10.375 14.1247C10.5409 14.1247 10.6999 14.1905 10.8172 14.3078L15.375 18.8664V8.5C15.375 8.33424 15.4408 8.17527 15.5581 8.05806C15.6753 7.94085 15.8342 7.875 16 7.875C16.1658 7.875 16.3247 7.94085 16.4419 8.05806C16.5592 8.17527 16.625 8.33424 16.625 8.5V18.8664L21.1828 14.3078C21.2409 14.2497 21.3098 14.2037 21.3857 14.1723C21.4616 14.1408 21.5429 14.1247 21.625 14.1247C21.7071 14.1247 21.7884 14.1408 21.8643 14.1723C21.9402 14.2037 22.0091 14.2497 22.0672 14.3078C22.1253 14.3659 22.1713 14.4348 22.2027 14.5107C22.2342 14.5866 22.2503 14.6679 22.2503 14.75C22.2503 14.8321 22.2342 14.9134 22.2027 14.9893C22.1713 15.0652 22.1253 15.1341 22.0672 15.1922L16.4422 20.8172C16.3841 20.8753 16.3152 20.9214 16.2393 20.9529C16.1635 20.9843 16.0821 21.0005 16 21.0005C15.9179 21.0005 15.8365 20.9843 15.7607 20.9529C15.6848 20.9214 15.6159 20.8753 15.5578 20.8172L9.93281 15.1922ZM22.875 22.25H9.125C8.95924 22.25 8.80027 22.3158 8.68306 22.4331C8.56585 22.5503 8.5 22.7092 8.5 22.875C8.5 23.0408 8.56585 23.1997 8.68306 23.3169C8.80027 23.4342 8.95924 23.5 9.125 23.5H22.875C23.0408 23.5 23.1997 23.4342 23.3169 23.3169C23.4342 23.1997 23.5 23.0408 23.5 22.875C23.5 22.7092 23.4342 22.5503 23.3169 22.4331C23.1997 22.3158 23.0408 22.25 22.875 22.25Z" fill="white"/>
</svg>
