<svg width="32" height="32" viewBox="0 0 32 32" fill="none" xmlns="http://www.w3.org/2000/svg">
<path d="M23.7586 11.7321L20.268 8.24073C20.1519 8.12463 20.0141 8.03253 19.8624 7.96969C19.7107 7.90685 19.5482 7.87451 19.384 7.87451C19.2198 7.87451 19.0572 7.90685 18.9056 7.96969C18.7539 8.03253 18.6161 8.12463 18.5 8.24073L8.86641 17.8751C8.74983 17.9908 8.65741 18.1284 8.59451 18.2801C8.5316 18.4318 8.49948 18.5945 8.50001 18.7587V22.2501C8.50001 22.5816 8.6317 22.8996 8.86612 23.134C9.10054 23.3684 9.41849 23.5001 9.75001 23.5001H13.2414C13.4056 23.5006 13.5683 23.4685 13.72 23.4056C13.8717 23.3427 14.0094 23.2503 14.125 23.1337L23.7586 13.5001C23.8747 13.384 23.9668 13.2462 24.0296 13.0945C24.0925 12.9429 24.1248 12.7803 24.1248 12.6161C24.1248 12.4519 24.0925 12.2894 24.0296 12.1377C23.9668 11.986 23.8747 11.8482 23.7586 11.7321ZM13.2414 22.2501H9.75001V18.7587L16.625 11.8837L20.1164 15.3751L13.2414 22.2501ZM21 14.4907L17.5086 11.0001L19.3836 9.1251L22.875 12.6157L21 14.4907Z" fill="black" fill-opacity="0.8"/>
</svg>
