<svg width="12" height="10" viewBox="0 0 12 10" fill="none" xmlns="http://www.w3.org/2000/svg">
<path d="M2.22027e-05 9.81818L5.77843 1.43051e-06L11.5568 9.81818H2.22027e-05ZM5.77843 8.71875C5.99718 8.71875 6.18326 8.64205 6.33667 8.48864C6.49292 8.33239 6.57104 8.14489 6.57104 7.92614C6.57104 7.70739 6.49292 7.52131 6.33667 7.3679C6.18326 7.21165 5.99718 7.13352 5.77843 7.13352C5.55968 7.13352 5.37218 7.21165 5.21593 7.3679C5.06252 7.52131 4.98582 7.70739 4.98582 7.92614C4.98582 8.14489 5.06252 8.33239 5.21593 8.48864C5.37218 8.64205 5.55968 8.71875 5.77843 8.71875ZM5.25854 6.17046H6.29832L6.37502 3.27273H5.18184L5.25854 6.17046Z" fill="#DC2626"/>
</svg>
