<svg width="24" height="24" viewBox="0 0 24 24" fill="none" xmlns="http://www.w3.org/2000/svg">
<path d="M12.375 2.4375C9.93916 2.44023 7.60387 3.40907 5.88147 5.13147C4.15907 6.85387 3.19023 9.18916 3.1875 11.625V19.5309C3.18775 19.8708 3.32285 20.1966 3.56314 20.4369C3.80342 20.6772 4.12925 20.8123 4.46906 20.8125H12.375C14.8117 20.8125 17.1486 19.8445 18.8715 18.1215C20.5945 16.3986 21.5625 14.0617 21.5625 11.625C21.5625 9.18832 20.5945 6.85145 18.8715 5.12846C17.1486 3.40547 14.8117 2.4375 12.375 2.4375ZM12.375 19.6875H4.46906C4.42754 19.6875 4.38772 19.671 4.35836 19.6416C4.32899 19.6123 4.3125 19.5725 4.3125 19.5309V11.625C4.3125 10.0304 4.78536 8.47159 5.67128 7.14572C6.5572 5.81984 7.81639 4.78645 9.28961 4.17622C10.7628 3.56599 12.3839 3.40633 13.9479 3.71742C15.5119 4.02851 16.9485 4.79639 18.076 5.92395C19.2036 7.05151 19.9715 8.48811 20.2826 10.0521C20.5937 11.6161 20.434 13.2372 19.8238 14.7104C19.2135 16.1836 18.1802 17.4428 16.8543 18.3287C15.5284 19.2146 13.9696 19.6875 12.375 19.6875ZM13.3125 12C13.3125 12.1854 13.2575 12.3667 13.1545 12.5208C13.0515 12.675 12.9051 12.7952 12.7338 12.8661C12.5625 12.9371 12.374 12.9557 12.1921 12.9195C12.0102 12.8833 11.8432 12.794 11.7121 12.6629C11.581 12.5318 11.4917 12.3648 11.4555 12.1829C11.4193 12.001 11.4379 11.8125 11.5089 11.6412C11.5798 11.4699 11.7 11.3235 11.8542 11.2205C12.0083 11.1175 12.1896 11.0625 12.375 11.0625C12.6236 11.0625 12.8621 11.1613 13.0379 11.3371C13.2137 11.5129 13.3125 11.7514 13.3125 12ZM9.1875 12C9.1875 12.1854 9.13252 12.3667 9.0295 12.5208C8.92649 12.675 8.78007 12.7952 8.60877 12.8661C8.43746 12.9371 8.24896 12.9557 8.0671 12.9195C7.88525 12.8833 7.7182 12.794 7.58709 12.6629C7.45598 12.5318 7.36669 12.3648 7.33051 12.1829C7.29434 12.001 7.31291 11.8125 7.38386 11.6412C7.45482 11.4699 7.57498 11.3235 7.72915 11.2205C7.88332 11.1175 8.06458 11.0625 8.25 11.0625C8.49864 11.0625 8.7371 11.1613 8.91291 11.3371C9.08873 11.5129 9.1875 11.7514 9.1875 12ZM17.4375 12C17.4375 12.1854 17.3825 12.3667 17.2795 12.5208C17.1765 12.675 17.0301 12.7952 16.8588 12.8661C16.6875 12.9371 16.499 12.9557 16.3171 12.9195C16.1352 12.8833 15.9682 12.794 15.8371 12.6629C15.706 12.5318 15.6167 12.3648 15.5805 12.1829C15.5443 12.001 15.5629 11.8125 15.6339 11.6412C15.7048 11.4699 15.825 11.3235 15.9792 11.2205C16.1333 11.1175 16.3146 11.0625 16.5 11.0625C16.7486 11.0625 16.9871 11.1613 17.1629 11.3371C17.3387 11.5129 17.4375 11.7514 17.4375 12Z" fill="black" fill-opacity="0.8"/>
</svg>
