<svg width="32" height="32" viewBox="0 0 32 32" fill="none" xmlns="http://www.w3.org/2000/svg">
<path d="M11 14.2031V9.125C11 8.95924 10.9342 8.80027 10.817 8.68306C10.6998 8.56585 10.5408 8.5 10.375 8.5C10.2093 8.5 10.0503 8.56585 9.93308 8.68306C9.81587 8.80027 9.75002 8.95924 9.75002 9.125V14.2031C9.21226 14.3408 8.73562 14.6536 8.39524 15.0921C8.05487 15.5306 7.87012 16.0699 7.87012 16.625C7.87012 17.1801 8.05487 17.7194 8.39524 18.1579C8.73562 18.5964 9.21226 18.9092 9.75002 19.0469V22.875C9.75002 23.0408 9.81587 23.1997 9.93308 23.3169C10.0503 23.4342 10.2093 23.5 10.375 23.5C10.5408 23.5 10.6998 23.4342 10.817 23.3169C10.9342 23.1997 11 23.0408 11 22.875V19.0469C11.5378 18.9092 12.0144 18.5964 12.3548 18.1579C12.6952 17.7194 12.8799 17.1801 12.8799 16.625C12.8799 16.0699 12.6952 15.5306 12.3548 15.0921C12.0144 14.6536 11.5378 14.3408 11 14.2031ZM10.375 17.875C10.1278 17.875 9.88612 17.8017 9.68056 17.6643C9.475 17.527 9.31478 17.3318 9.22017 17.1034C9.12556 16.8749 9.10081 16.6236 9.14904 16.3811C9.19727 16.1387 9.31632 15.9159 9.49114 15.7411C9.66595 15.5663 9.88868 15.4472 10.1312 15.399C10.3736 15.3508 10.625 15.3755 10.8534 15.4702C11.0818 15.5648 11.277 15.725 11.4144 15.9305C11.5517 16.1361 11.625 16.3778 11.625 16.625C11.625 16.9565 11.4933 17.2745 11.2589 17.5089C11.0245 17.7433 10.7065 17.875 10.375 17.875ZM16.625 10.4531V9.125C16.625 8.95924 16.5592 8.80027 16.442 8.68306C16.3248 8.56585 16.1658 8.5 16 8.5C15.8343 8.5 15.6753 8.56585 15.5581 8.68306C15.4409 8.80027 15.375 8.95924 15.375 9.125V10.4531C14.8373 10.5908 14.3606 10.9036 14.0202 11.3421C13.6799 11.7806 13.4951 12.3199 13.4951 12.875C13.4951 13.4301 13.6799 13.9694 14.0202 14.4079C14.3606 14.8464 14.8373 15.1592 15.375 15.2969V22.875C15.375 23.0408 15.4409 23.1997 15.5581 23.3169C15.6753 23.4342 15.8343 23.5 16 23.5C16.1658 23.5 16.3248 23.4342 16.442 23.3169C16.5592 23.1997 16.625 23.0408 16.625 22.875V15.2969C17.1628 15.1592 17.6394 14.8464 17.9798 14.4079C18.3202 13.9694 18.5049 13.4301 18.5049 12.875C18.5049 12.3199 18.3202 11.7806 17.9798 11.3421C17.6394 10.9036 17.1628 10.5908 16.625 10.4531ZM16 14.125C15.7528 14.125 15.5111 14.0517 15.3056 13.9143C15.1 13.777 14.9398 13.5818 14.8452 13.3534C14.7506 13.1249 14.7258 12.8736 14.774 12.6311C14.8223 12.3887 14.9413 12.1659 15.1161 11.9911C15.291 11.8163 15.5137 11.6972 15.7562 11.649C15.9986 11.6008 16.25 11.6255 16.4784 11.7202C16.7068 11.8148 16.902 11.975 17.0394 12.1805C17.1767 12.3861 17.25 12.6278 17.25 12.875C17.25 13.2065 17.1183 13.5245 16.8839 13.7589C16.6495 13.9933 16.3315 14.125 16 14.125ZM24.125 19.125C24.1245 18.5707 23.9401 18.0323 23.6008 17.5941C23.2616 17.1558 22.7865 16.8425 22.25 16.7031V9.125C22.25 8.95924 22.1842 8.80027 22.067 8.68306C21.9498 8.56585 21.7908 8.5 21.625 8.5C21.4593 8.5 21.3003 8.56585 21.1831 8.68306C21.0659 8.80027 21 8.95924 21 9.125V16.7031C20.4623 16.8408 19.9856 17.1536 19.6452 17.5921C19.3049 18.0306 19.1201 18.5699 19.1201 19.125C19.1201 19.6801 19.3049 20.2194 19.6452 20.6579C19.9856 21.0964 20.4623 21.4092 21 21.5469V22.875C21 23.0408 21.0659 23.1997 21.1831 23.3169C21.3003 23.4342 21.4593 23.5 21.625 23.5C21.7908 23.5 21.9498 23.4342 22.067 23.3169C22.1842 23.1997 22.25 23.0408 22.25 22.875V21.5469C22.7865 21.4075 23.2616 21.0942 23.6008 20.6559C23.9401 20.2177 24.1245 19.6793 24.125 19.125ZM21.625 20.375C21.3778 20.375 21.1361 20.3017 20.9306 20.1643C20.725 20.027 20.5648 19.8318 20.4702 19.6034C20.3756 19.3749 20.3508 19.1236 20.399 18.8811C20.4473 18.6387 20.5663 18.4159 20.7411 18.2411C20.916 18.0663 21.1387 17.9472 21.3812 17.899C21.6236 17.8508 21.875 17.8755 22.1034 17.9702C22.3318 18.0648 22.527 18.225 22.6644 18.4305C22.8017 18.6361 22.875 18.8778 22.875 19.125C22.875 19.4565 22.7433 19.7745 22.5089 20.0089C22.2745 20.2433 21.9565 20.375 21.625 20.375Z" fill="black" fill-opacity="0.8"/>
</svg>
