<svg width="16" height="16" viewBox="0 0 16 16" fill="none" xmlns="http://www.w3.org/2000/svg">
<path d="M8 1.5C6.71442 1.5 5.45772 1.88122 4.3888 2.59545C3.31988 3.30968 2.48676 4.32484 1.99479 5.51256C1.50282 6.70028 1.37409 8.00721 1.6249 9.26809C1.8757 10.529 2.49477 11.6872 3.40381 12.5962C4.31285 13.5052 5.47104 14.1243 6.73192 14.3751C7.99279 14.6259 9.29972 14.4972 10.4874 14.0052C11.6752 13.5132 12.6903 12.6801 13.4046 11.6112C14.1188 10.5423 14.5 9.28558 14.5 8C14.4982 6.27665 13.8128 4.62441 12.5942 3.40582C11.3756 2.18722 9.72335 1.50182 8 1.5ZM13.4769 7.5H10.9875C10.8994 5.72125 10.3456 4.03312 9.4175 2.6875C10.5045 2.97933 11.4761 3.5969 12.2018 4.45722C12.9275 5.31753 13.3724 6.37936 13.4769 7.5ZM8 13.4931C6.82938 12.2262 6.11938 10.4306 6.01438 8.5H9.98563C9.88063 10.4294 9.17063 12.2262 8 13.4931ZM6.01438 7.5C6.11938 5.57062 6.82688 3.77375 8 2.50688C9.17063 3.77375 9.88063 5.56938 9.98563 7.5H6.01438ZM6.5825 2.6875C5.65438 4.03312 5.10063 5.72125 5.0125 7.5H2.52313C2.62756 6.37936 3.07251 5.31753 3.79819 4.45722C4.52387 3.5969 5.4955 2.97933 6.5825 2.6875ZM2.52313 8.5H5.0125C5.10063 10.2787 5.65438 11.9669 6.5825 13.3125C5.4955 13.0207 4.52387 12.4031 3.79819 11.5428C3.07251 10.6825 2.62756 9.62064 2.52313 8.5ZM9.4175 13.3125C10.3456 11.965 10.8994 10.2769 10.9875 8.5H13.4769C13.3724 9.62064 12.9275 10.6825 12.2018 11.5428C11.4761 12.4031 10.5045 13.0207 9.4175 13.3125Z" fill="black" fill-opacity="0.8"/>
</svg>
