<svg width="24" height="24" viewBox="0 0 24 24" fill="none" xmlns="http://www.w3.org/2000/svg">
<path d="M11.0306 15.9695C11.1003 16.0391 11.1556 16.1218 11.1933 16.2129C11.2311 16.3039 11.2505 16.4015 11.2505 16.5001C11.2505 16.5987 11.2311 16.6963 11.1933 16.7873C11.1556 16.8784 11.1003 16.9611 11.0306 17.0307L8.03055 20.0307C7.9609 20.1005 7.87818 20.1558 7.78713 20.1935C7.69609 20.2313 7.59849 20.2507 7.49993 20.2507C7.40137 20.2507 7.30377 20.2313 7.21272 20.1935C7.12168 20.1558 7.03896 20.1005 6.9693 20.0307L3.9693 17.0307C3.89962 16.961 3.84435 16.8783 3.80663 16.7873C3.76892 16.6962 3.74951 16.5986 3.74951 16.5001C3.74951 16.4016 3.76892 16.304 3.80663 16.2129C3.84435 16.1219 3.89962 16.0392 3.9693 15.9695C4.11003 15.8287 4.30091 15.7497 4.49993 15.7497C4.59847 15.7497 4.69606 15.7691 4.7871 15.8068C4.87815 15.8445 4.96087 15.8998 5.03055 15.9695L6.74993 17.6898V4.5001C6.74993 4.30119 6.82895 4.11042 6.9696 3.96977C7.11025 3.82912 7.30102 3.7501 7.49993 3.7501C7.69884 3.7501 7.88961 3.82912 8.03026 3.96977C8.17091 4.11042 8.24993 4.30119 8.24993 4.5001V17.6898L9.9693 15.9695C10.039 15.8997 10.1217 15.8444 10.2127 15.8067C10.3038 15.7689 10.4014 15.7495 10.4999 15.7495C10.5985 15.7495 10.6961 15.7689 10.7871 15.8067C10.8782 15.8444 10.9609 15.8997 11.0306 15.9695ZM20.0306 6.96948L17.0306 3.96948C16.9609 3.89974 16.8782 3.84443 16.7871 3.80668C16.6961 3.76894 16.5985 3.74951 16.4999 3.74951C16.4014 3.74951 16.3038 3.76894 16.2127 3.80668C16.1217 3.84443 16.039 3.89974 15.9693 3.96948L12.9693 6.96948C12.8286 7.11021 12.7495 7.30108 12.7495 7.5001C12.7495 7.69912 12.8286 7.89 12.9693 8.03073C13.11 8.17146 13.3009 8.25052 13.4999 8.25052C13.699 8.25052 13.8898 8.17146 14.0306 8.03073L15.7499 6.31041V19.5001C15.7499 19.699 15.8289 19.8898 15.9696 20.0304C16.1103 20.1711 16.301 20.2501 16.4999 20.2501C16.6988 20.2501 16.8896 20.1711 17.0303 20.0304C17.1709 19.8898 17.2499 19.699 17.2499 19.5001V6.31041L18.9693 8.03073C19.11 8.17146 19.3009 8.25052 19.4999 8.25052C19.699 8.25052 19.8898 8.17146 20.0306 8.03073C20.1713 7.89 20.2503 7.69912 20.2503 7.5001C20.2503 7.30108 20.1713 7.11021 20.0306 6.96948Z" fill="#22C55E"/>
</svg>
