<svg width="348" height="348" viewBox="0 0 348 348" fill="none" xmlns="http://www.w3.org/2000/svg">
<rect width="348" height="348" fill="black"/>
<path fill-rule="evenodd" clip-rule="evenodd" d="M142.68 209.52H123L145.08 142.8H170.04L192.6 209.52H172.44L169.08 197.04H147L142.68 209.52ZM148.44 172.56C155.64 168.72 156.92 164.08 158.04 161.04C159.48 164.4 160.44 168.72 167.64 172.56C161.4 175.44 158.04 183.6 158.04 183.6C155.64 177.84 155.64 176.88 148.44 172.56Z" fill="#2DD4BF"/>
<path d="M200.28 138C199.328 140.587 198.24 144.536 192.12 147.804C198.24 151.481 198.24 152.298 200.28 157.2C200.28 157.2 203.136 150.255 208.44 147.804C202.32 144.536 201.504 140.86 200.28 138Z" fill="#2DD4BF"/>
<path d="M208.311 209.52H192.951C192.471 201.36 192.6 172.56 193.079 159.12C203.159 161.04 208.44 159.12 208.44 159.12L208.311 209.52Z" fill="#2DD4BF"/>
<path d="M213.72 168.832V160.08L218.749 167.081L224.28 160.08V168.832M222.59 177.365L224.28 180.865M222.59 177.365H215.39M222.59 177.365L220.478 172.114H217.894L215.39 177.365M213.72 180.865L215.39 177.365M213.72 193.993V190.336M213.72 190.336V185.309C217.24 185.156 221.88 185.309 224.28 185.309V190.336C223.32 190.336 214.41 190.142 213.72 190.336ZM213.72 190.336H220.44L224.28 193.993M219 207.12V198.368M219 198.368H213.72M219 198.368H224.28" stroke="#2DD4BF" stroke-width="3" stroke-linecap="round" stroke-linejoin="round"/>
</svg>
