<svg width="22" height="15" viewBox="0 0 22 15" fill="none" xmlns="http://www.w3.org/2000/svg">
<path fill-rule="evenodd" clip-rule="evenodd" d="M4.12752 15.0001H0L4.63087 1.00684H9.86577L14.5973 15.0001H10.3691L9.66443 12.3827H5.03356L4.12752 15.0001ZM5.33557 7.24845C6.84564 6.44308 7.11409 5.46992 7.34899 4.83234C7.65101 5.53704 7.85235 6.44308 9.36242 7.24845C8.05369 7.85247 7.34899 9.56388 7.34899 9.56388C6.84564 8.35583 6.84564 8.15449 5.33557 7.24845Z" fill="black"/>
<path d="M16.208 0C16.0083 0.542625 15.7801 1.37084 14.4966 2.05626C15.7801 2.82736 15.7801 2.99871 16.208 4.02685C16.208 4.02685 16.807 2.57033 17.9194 2.05626C16.6358 1.37084 16.4647 0.599743 16.208 0Z" fill="black"/>
<path d="M17.8924 15H14.6708C14.5703 13.2886 14.5972 7.24832 14.6978 4.42953C16.8119 4.83221 17.9194 4.42953 17.9194 4.42953L17.8924 15Z" fill="black"/>
<path d="M19.0269 6.46635V4.63086L20.0815 6.09925L21.2416 4.63086V6.46635M20.8873 8.25596L21.2416 8.99015M20.8873 8.25596H19.377M20.8873 8.25596L20.4443 7.15466H19.9023L19.377 8.25596M19.0269 8.99015L19.377 8.25596M19.0269 11.7434V10.9765M19.0269 10.9765V9.9221C19.7651 9.89015 20.7383 9.92209 21.2416 9.92213V10.9765C21.0403 10.9765 19.1716 10.9358 19.0269 10.9765ZM19.0269 10.9765H20.4363L21.2416 11.7434M20.1342 14.4966V12.6611M20.1342 12.6611H19.0269M20.1342 12.6611H21.2416" stroke="black" stroke-width="0.604027" stroke-linecap="round" stroke-linejoin="round"/>
</svg>
