<svg width="24" height="24" viewBox="0 0 24 24" fill="none" xmlns="http://www.w3.org/2000/svg">
<path d="M11.1929 16.2132C11.2498 16.3503 11.2647 16.5011 11.2358 16.6466C11.207 16.7921 11.1356 16.9258 11.0307 17.0307L8.03073 20.0307C7.96107 20.1005 7.87836 20.1558 7.78731 20.1935C7.69626 20.2313 7.59866 20.2507 7.5001 20.2507C7.40154 20.2507 7.30395 20.2313 7.2129 20.1935C7.12185 20.1558 7.03913 20.1005 6.96948 20.0307L3.96948 17.0307C3.86447 16.9258 3.79294 16.7921 3.76396 16.6466C3.73497 16.501 3.74982 16.3501 3.80664 16.213C3.86345 16.0759 3.95967 15.9587 4.08312 15.8763C4.20656 15.7939 4.35168 15.75 4.5001 15.7501H6.7501V4.5001C6.7501 4.30119 6.82912 4.11042 6.96977 3.96977C7.11043 3.82912 7.30119 3.7501 7.5001 3.7501C7.69902 3.7501 7.88978 3.82912 8.03043 3.96977C8.17108 4.11042 8.2501 4.30119 8.2501 4.5001V15.7501H10.5001C10.6484 15.7501 10.7934 15.7941 10.9168 15.8766C11.0401 15.959 11.1362 16.0762 11.1929 16.2132ZM20.0307 6.96948L17.0307 3.96948C16.9611 3.89974 16.8784 3.84443 16.7873 3.80668C16.6963 3.76894 16.5987 3.74951 16.5001 3.74951C16.4015 3.74951 16.3039 3.76894 16.2129 3.80668C16.1219 3.84443 16.0391 3.89974 15.9695 3.96948L12.9695 6.96948C12.8645 7.07437 12.7929 7.20806 12.764 7.35362C12.735 7.49919 12.7498 7.65008 12.8066 7.78719C12.8635 7.92431 12.9597 8.04149 13.0831 8.12389C13.2066 8.2063 13.3517 8.25022 13.5001 8.2501H15.7501V19.5001C15.7501 19.699 15.8291 19.8898 15.9698 20.0304C16.1104 20.1711 16.3012 20.2501 16.5001 20.2501C16.699 20.2501 16.8898 20.1711 17.0304 20.0304C17.1711 19.8898 17.2501 19.699 17.2501 19.5001V8.2501H19.5001C19.6485 8.25022 19.7936 8.2063 19.9171 8.12389C20.0405 8.04149 20.1368 7.92431 20.1936 7.78719C20.2504 7.65008 20.2652 7.49919 20.2362 7.35362C20.2073 7.20806 20.1357 7.07437 20.0307 6.96948Z" fill="#EF4444"/>
</svg>
