<svg width="270" height="273" viewBox="0 0 270 273" fill="none" xmlns="http://www.w3.org/2000/svg">
<path d="M258.552 37.2748L256.928 34.5939C243.257 12.0665 218.529 -1.51179 192.472 0.134527C189.117 0.344051 185.782 0.800922 182.494 1.50142C158.794 6.5763 138.174 24.497 129.625 47.4396C124.602 60.9349 123.197 76.4767 113.658 87.1929C101.241 101.134 80.1685 101.541 61.6338 100.99C43.0991 100.439 22.0192 100.907 9.6627 114.901C1.92859 123.706 -0.533639 136.144 0.0932466 147.872C1.73977 178.956 23.4013 206.777 50.9465 220.559C78.4918 234.342 110.924 235.61 141.075 229.531C183.31 221.02 223.469 197.647 247.615 161.564C271.762 125.481 277.864 76.2502 258.552 37.2748Z" fill="#F0FDFA"/>
<path d="M222.502 71.4436C237.674 69.4577 248.363 55.553 246.376 40.3867C244.389 25.2203 230.479 14.5354 215.307 16.5214C200.135 18.5073 189.446 32.412 191.433 47.5783C193.42 62.7447 207.33 73.4295 222.502 71.4436Z" fill="white"/>
<path d="M191.196 43.9901C191.196 43.9901 191.196 43.8427 191.196 43.5403C191.196 43.2378 191.196 42.7647 191.242 42.2218C191.242 41.9349 191.242 41.6091 191.289 41.2524C191.335 40.8956 191.39 40.4768 191.444 40.089C191.498 39.7012 191.576 39.2204 191.646 38.7318C191.734 38.2089 191.851 37.6911 191.995 37.1806C192.62 34.5708 193.643 32.0727 195.028 29.7739C196.836 26.7043 199.224 24.0149 202.058 21.8554L203.26 20.9557C203.679 20.6765 204.122 20.4206 204.564 20.1802C205.006 19.9397 205.441 19.614 205.922 19.4046L207.365 18.7066L208.094 18.3576L208.87 18.0706L210.422 17.4967C210.957 17.3183 211.516 17.2097 212.066 17.0546C212.62 16.8926 213.182 16.7631 213.75 16.6668C214.911 16.4503 216.085 16.313 217.265 16.2558C217.87 16.2558 218.475 16.1705 219.08 16.1782L220.927 16.2713C221.237 16.2713 221.547 16.2713 221.858 16.3256L222.781 16.473C223.402 16.5738 224.038 16.6436 224.659 16.7677C227.214 17.3425 229.686 18.2417 232.014 19.4434C232.596 19.7614 233.162 20.1336 233.744 20.4749C234.031 20.661 234.334 20.8161 234.605 21.0178L235.428 21.6305C236.538 22.4583 237.595 23.3545 238.593 24.3139L240.013 25.8651L240.37 26.2606L240.688 26.6794L241.324 27.5326L241.968 28.3934L242.527 29.3086L243.093 30.2315L243.372 30.6891L243.613 31.1777C243.923 31.8292 244.241 32.4884 244.559 33.1399C244.878 33.7914 245.064 34.5127 245.335 35.2029C247.254 40.9067 247.254 47.0813 245.335 52.785L244.559 54.8558C244.241 55.5073 243.931 56.1665 243.613 56.818L243.372 57.3066L243.093 57.7642L242.534 58.6871L241.968 59.6101L241.332 60.4632L240.688 61.3163L240.37 61.7429L240.013 62.1306L238.593 63.6818C237.6 64.6475 236.543 65.5441 235.428 66.3653L234.652 66.9779C234.38 67.1874 234.07 67.3425 233.791 67.5208C233.201 67.8699 232.642 68.2344 232.053 68.5523C230.877 69.1661 229.661 69.6999 228.414 70.15C227.199 70.5863 225.957 70.9463 224.697 71.2281C224.077 71.3599 223.441 71.4297 222.82 71.5305L221.897 71.6701C221.586 71.7089 221.268 71.7089 220.966 71.7322L219.119 71.8175C218.506 71.8175 217.901 71.771 217.303 71.7477C216.121 71.6913 214.944 71.5514 213.781 71.3289C213.212 71.2345 212.65 71.105 212.097 70.9411C211.547 70.7937 210.996 70.6774 210.46 70.499L208.909 69.9251L208.133 69.6459L207.357 69.2891L205.922 68.5911C205.456 68.3557 205.003 68.0968 204.564 67.8156C204.122 67.5364 203.679 67.2882 203.26 67.04C202.841 66.7918 202.484 66.435 202.058 66.1403C199.225 63.9582 196.838 61.2514 195.028 58.1675C193.647 55.865 192.627 53.3645 192.003 50.7531C191.857 50.243 191.74 49.7251 191.653 49.2019C191.584 48.7211 191.514 48.2712 191.452 47.8447C191.39 47.4181 191.328 47.0691 191.297 46.6813C191.266 46.2935 191.297 46.0066 191.25 45.7119C191.25 45.1379 191.211 44.7036 191.203 44.3934C191.196 44.0832 191.203 43.9436 191.203 43.9436C191.203 43.9436 191.203 44.0987 191.242 44.3934C191.281 44.6881 191.289 45.169 191.328 45.7119C191.328 45.9988 191.366 46.3246 191.382 46.6736C191.397 47.0226 191.498 47.4491 191.56 47.8369C191.622 48.2247 191.7 48.6978 191.77 49.1787C191.84 49.6595 192.01 50.1559 192.134 50.691C192.78 53.2796 193.813 55.7558 195.199 58.0356C197.001 61.0691 199.372 63.7262 202.182 65.8611L203.377 66.753C203.796 67.0245 204.238 67.2804 204.672 67.5286C205.107 67.7768 205.541 68.0948 206.022 68.3042L207.45 68.9867L208.179 69.3357L208.955 69.6149L210.507 70.1733C211.034 70.3517 211.585 70.4603 212.128 70.6154C212.676 70.775 213.233 70.8994 213.797 70.9876C214.947 71.2015 216.111 71.3362 217.28 71.3909C217.878 71.3909 218.475 71.4685 219.08 71.4607L220.903 71.3677C221.206 71.3677 221.516 71.3677 221.827 71.3056L222.742 71.166C223.355 71.0652 223.976 70.9954 224.597 70.8635C225.846 70.5888 227.074 70.2286 228.274 69.7855C229.505 69.3507 230.706 68.8325 231.866 68.2344C232.448 67.9164 233.007 67.5519 233.581 67.2106C233.86 67.0322 234.163 66.8771 234.434 66.6677L235.21 66.0628C236.301 65.2468 237.338 64.3608 238.314 63.4103L239.71 61.8592L240.067 61.4714L240.378 61.0526L241.014 60.2072L241.642 59.3619L242.201 58.4544L242.752 57.5393L243.031 57.0895L243.264 56.6008C243.574 55.9571 243.892 55.3134 244.203 54.6619L244.978 52.6222C246.871 46.9859 246.871 40.8858 244.978 35.2495L244.203 33.2097L243.264 31.2708L243.031 30.7899L242.752 30.3324L242.201 29.4172L241.642 28.5098L241.006 27.6644L240.378 26.819L240.059 26.4002L239.71 26.0124C239.245 25.5006 238.772 24.9887 238.314 24.4613C237.338 23.508 236.302 22.6194 235.21 21.8011L234.396 21.1962C234.132 20.9945 233.829 20.8394 233.55 20.661C232.968 20.3198 232.417 19.9475 231.835 19.6373C230.673 19.0378 229.47 18.5195 228.235 18.0861C227.05 17.6693 225.84 17.3274 224.612 17.0624C223.991 16.9383 223.371 16.8685 222.758 16.7599L221.842 16.6203C221.532 16.6203 221.222 16.6203 220.919 16.566L219.096 16.4652C218.491 16.4652 217.893 16.5195 217.296 16.535C216.127 16.5901 214.963 16.7248 213.812 16.9383C213.249 17.0328 212.692 17.1597 212.144 17.3183C211.601 17.4657 211.05 17.582 210.522 17.7526L208.971 18.3188L208.195 18.598L207.466 18.9393L206.038 19.6295C205.578 19.8649 205.13 20.1238 204.696 20.4051C204.253 20.6765 203.811 20.9247 203.392 21.1806L202.205 22.0648C199.382 24.1964 196.998 26.8537 195.184 29.8903C193.799 32.1734 192.766 34.652 192.119 37.2427C191.995 37.7701 191.816 38.2664 191.754 38.7473C191.692 39.2281 191.607 39.6779 191.545 40.0968C191.483 40.5156 191.405 40.8723 191.366 41.2524C191.328 41.6324 191.328 41.9349 191.312 42.2218C191.312 42.7957 191.25 43.23 191.227 43.5403C191.203 43.8505 191.196 43.9901 191.196 43.9901Z" fill="#263238"/>
<path d="M180.66 61.4016C180.66 62.2928 180.924 63.164 181.419 63.905C181.915 64.646 182.619 65.2236 183.442 65.5646C184.266 65.9057 185.172 65.9949 186.047 65.821C186.921 65.6472 187.724 65.218 188.355 64.5878C188.985 63.9576 189.415 63.1547 189.588 62.2807C189.762 61.4066 189.673 60.5005 189.332 59.6772C188.991 58.8538 188.413 58.15 187.672 57.6549C186.93 57.1598 186.059 56.8955 185.167 56.8955C183.972 56.8955 182.825 57.3702 181.98 58.2153C181.134 59.0603 180.66 60.2065 180.66 61.4016Z" fill="white"/>
<path d="M180.66 61.4017C180.648 61.3039 180.648 61.2049 180.66 61.107C180.657 60.8302 180.688 60.5541 180.753 60.2849C180.984 59.2694 181.56 58.3652 182.382 57.7255C182.994 57.2484 183.717 56.9341 184.484 56.812C185.25 56.69 186.035 56.7641 186.766 57.0275C187.637 57.3319 188.395 57.8947 188.938 58.6407C189.486 59.3938 189.796 60.2941 189.827 61.2251C189.858 62.1562 189.609 63.075 189.112 63.8629C188.614 64.6507 187.892 65.2712 187.038 65.6441C186.184 66.0169 185.238 66.125 184.322 65.9543C183.457 65.7866 182.66 65.372 182.027 64.7609C181.394 64.1497 180.951 63.3682 180.753 62.5108C180.688 62.2416 180.657 61.9655 180.66 61.6887C180.647 61.5934 180.647 61.497 180.66 61.4017C180.66 61.4017 180.66 61.7973 180.869 62.4798C181.132 63.4429 181.711 64.2897 182.514 64.884C182.978 65.2293 183.505 65.4794 184.066 65.6199C184.627 65.7604 185.21 65.7886 185.782 65.7028C186.354 65.617 186.903 65.4189 187.398 65.12C187.893 64.8211 188.324 64.4272 188.666 63.9611C189.213 63.2181 189.507 62.32 189.507 61.3979C189.507 60.4757 189.213 59.5776 188.666 58.8346C188.17 58.1257 187.469 57.5847 186.657 57.2835C185.972 57.0311 185.236 56.9536 184.513 57.0579C183.791 57.1622 183.107 57.445 182.522 57.8807C181.721 58.4767 181.142 59.3228 180.877 60.2849C180.683 60.9984 180.698 61.4017 180.66 61.4017Z" fill="#263238"/>
<path d="M230.913 54.5865L225.046 48.7201C226.746 46.6783 227.594 44.0595 227.413 41.4085C227.232 38.7574 226.036 36.2781 224.074 34.4865C222.112 32.6948 219.534 31.7287 216.877 31.789C214.221 31.8494 211.69 32.9317 209.811 34.8106C207.932 36.6896 206.85 39.2206 206.789 41.8772C206.729 44.5337 207.695 47.1113 209.487 49.0737C211.278 51.0361 213.758 52.2322 216.409 52.4132C219.06 52.5942 221.679 51.7461 223.72 50.0455L229.587 55.9131C229.674 56.0002 229.777 56.0693 229.891 56.1164C230.005 56.1635 230.127 56.1878 230.25 56.1878C230.373 56.1878 230.495 56.1635 230.609 56.1164C230.723 56.0693 230.826 56.0002 230.913 55.9131C231 55.826 231.07 55.7226 231.117 55.6087C231.164 55.4949 231.188 55.373 231.188 55.2498C231.188 55.1266 231.164 55.0046 231.117 54.8908C231.07 54.777 231 54.6736 230.913 54.5865ZM208.688 42.1248C208.688 40.456 209.182 38.8247 210.109 37.4372C211.037 36.0496 212.354 34.9682 213.896 34.3295C215.438 33.6909 217.134 33.5238 218.771 33.8494C220.408 34.175 221.911 34.9786 223.091 36.1586C224.271 37.3386 225.075 38.842 225.4 40.4787C225.726 42.1154 225.559 43.8119 224.92 45.3537C224.282 46.8954 223.2 48.2132 221.813 49.1403C220.425 50.0674 218.794 50.5623 217.125 50.5623C214.888 50.5598 212.743 49.6701 211.162 48.0883C209.58 46.5065 208.69 44.3618 208.688 42.1248Z" fill="black" fill-opacity="0.8"/>
<mask id="path-7-inside-1_74_3205" fill="white">
<path d="M223.634 42C223.836 42 224.001 41.836 223.99 41.6341C223.949 40.8399 223.772 40.0576 223.467 39.3212C223.115 38.4719 222.6 37.7003 221.95 37.0503C221.3 36.4002 220.528 35.8846 219.679 35.5328C218.942 35.2278 218.16 35.0511 217.366 35.0096C217.164 34.999 217 35.1639 217 35.366C217 35.5682 217.164 35.731 217.366 35.7428C218.064 35.7836 218.751 35.941 219.399 36.2092C220.159 36.5242 220.85 36.9859 221.432 37.5679C222.014 38.1499 222.476 38.8409 222.791 39.6014C223.059 40.249 223.216 40.9361 223.257 41.6342C223.269 41.836 223.432 42 223.634 42Z"/>
</mask>
<path d="M223.634 42C223.836 42 224.001 41.836 223.99 41.6341C223.949 40.8399 223.772 40.0576 223.467 39.3212C223.115 38.4719 222.6 37.7003 221.95 37.0503C221.3 36.4002 220.528 35.8846 219.679 35.5328C218.942 35.2278 218.16 35.0511 217.366 35.0096C217.164 34.999 217 35.1639 217 35.366C217 35.5682 217.164 35.731 217.366 35.7428C218.064 35.7836 218.751 35.941 219.399 36.2092C220.159 36.5242 220.85 36.9859 221.432 37.5679C222.014 38.1499 222.476 38.8409 222.791 39.6014C223.059 40.249 223.216 40.9361 223.257 41.6342C223.269 41.836 223.432 42 223.634 42Z" stroke="black" stroke-opacity="0.8" stroke-width="2" mask="url(#path-7-inside-1_74_3205)"/>
<mask id="path-8-inside-2_74_3205" fill="white">
<path d="M209.852 42.9303C209.65 42.9443 209.497 43.1194 209.521 43.3201C209.618 44.1095 209.849 44.8776 210.204 45.591C210.614 46.4138 211.182 47.1478 211.876 47.7511C212.569 48.3543 213.375 48.8151 214.247 49.107C215.002 49.3601 215.795 49.482 216.59 49.4683C216.792 49.4648 216.944 49.289 216.93 49.0873C216.916 48.8856 216.741 48.7346 216.539 48.7369C215.84 48.7447 215.144 48.6354 214.479 48.4128C213.699 48.1514 212.977 47.7389 212.356 47.1987C211.735 46.6585 211.226 46.0013 210.859 45.2645C210.547 44.6372 210.342 43.9626 210.253 43.2691C210.227 43.0686 210.053 42.9163 209.852 42.9303Z"/>
</mask>
<path d="M209.852 42.9303C209.65 42.9443 209.497 43.1194 209.521 43.3201C209.618 44.1095 209.849 44.8776 210.204 45.591C210.614 46.4138 211.182 47.1478 211.876 47.7511C212.569 48.3543 213.375 48.8151 214.247 49.107C215.002 49.3601 215.795 49.482 216.59 49.4683C216.792 49.4648 216.944 49.289 216.93 49.0873C216.916 48.8856 216.741 48.7346 216.539 48.7369C215.84 48.7447 215.144 48.6354 214.479 48.4128C213.699 48.1514 212.977 47.7389 212.356 47.1987C211.735 46.6585 211.226 46.0013 210.859 45.2645C210.547 44.6372 210.342 43.9626 210.253 43.2691C210.227 43.0686 210.053 42.9163 209.852 42.9303Z" stroke="black" stroke-opacity="0.8" stroke-width="2" mask="url(#path-8-inside-2_74_3205)"/>
<path d="M105.028 62.945L108.908 128.729C109.575 139.912 112.841 156.207 130.485 154.322C145.668 151.554 148.686 136.771 148.058 126.332C147.755 121.384 147.515 117.25 147.515 116.746C147.515 116.746 164.18 114.171 164.397 97.5275C164.506 89.4771 163.381 72.8955 162.186 57.896C161.559 50.1312 158.032 42.8866 152.307 37.6017C146.581 32.3168 139.077 29.3784 131.284 29.3706H129.678C112.384 30.3944 103.554 45.6575 105.028 62.945Z" fill="#FFBF9D"/>
<path d="M147.553 116.777C147.553 116.777 137.056 117.382 125.884 110.348C125.884 110.348 131.16 122.509 147.778 121.027L147.553 116.777Z" fill="#FF9A6C"/>
<path d="M134.41 66.7453C134.108 67.1021 132.083 65.7061 129.305 65.8302C126.528 65.9543 124.557 67.4666 124.239 67.1254C124.084 66.978 124.386 66.3498 125.24 65.644C126.399 64.7425 127.814 64.2296 129.282 64.1782C130.732 64.114 132.165 64.5222 133.363 65.3416C134.224 65.9775 134.566 66.5825 134.41 66.7453Z" fill="#263238"/>
<path d="M132.331 74.8036C132.337 75.3901 132.113 75.9558 131.707 76.3792C131.301 76.8026 130.745 77.05 130.159 77.0682C129.872 77.0936 129.583 77.0609 129.309 76.972C129.035 76.8831 128.781 76.7399 128.564 76.5509C128.347 76.362 128.17 76.1311 128.044 75.8722C127.918 75.6132 127.846 75.3315 127.831 75.044C127.826 74.4585 128.05 73.8942 128.454 73.4702C128.858 73.0462 129.41 72.7957 129.996 72.7716C130.283 72.7473 130.573 72.781 130.847 72.8706C131.122 72.9603 131.376 73.1042 131.593 73.2937C131.811 73.4832 131.989 73.7145 132.115 73.9738C132.242 74.2332 132.315 74.5153 132.331 74.8036Z" fill="#263238"/>
<path d="M142.759 85.5295C142.759 85.3822 144.31 85.1107 146.917 84.754C147.569 84.6842 148.19 84.5523 148.298 84.1103C148.356 83.4347 148.204 82.7578 147.864 82.1713L145.932 77.1999C143.255 70.1112 141.323 64.2867 141.61 64.1859C141.897 64.0851 144.295 69.7312 146.972 76.8199C147.615 78.5649 148.236 80.2324 148.818 81.8223C149.231 82.6112 149.349 83.5213 149.152 84.3895C149.058 84.6196 148.913 84.8252 148.727 84.9905C148.541 85.1559 148.32 85.2766 148.081 85.3434C147.718 85.4377 147.346 85.4898 146.972 85.4985C144.365 85.6614 142.759 85.6769 142.759 85.5295Z" fill="#263238"/>
<path d="M134.449 57.9659C134.17 58.5786 131.951 58.0512 129.29 58.1132C126.628 58.1753 124.409 58.7027 124.122 58.1132C123.991 57.8263 124.425 57.2679 125.341 56.7405C126.554 56.101 127.903 55.7631 129.274 55.7555C130.639 55.7157 131.992 56.0113 133.216 56.6164C134.139 57.1283 134.573 57.6789 134.449 57.9659Z" fill="#263238"/>
<path d="M159.866 61.9757C159.61 62.4953 157.407 62.092 154.777 62.2006C152.147 62.3092 149.997 62.8056 149.687 62.3014C149.547 62.061 149.943 61.5802 150.828 61.1148C152.023 60.5338 153.331 60.2189 154.66 60.1919C156.002 60.1375 157.34 60.3675 158.586 60.8666C159.525 61.2699 159.975 61.7275 159.866 61.9757Z" fill="#263238"/>
<path d="M106.371 75.269C106.091 75.1526 94.9345 71.8797 95.2837 83.2573C95.6328 94.6349 106.999 91.9359 107.007 91.6102C107.015 91.2844 106.371 75.269 106.371 75.269Z" fill="#FFBF9D"/>
<path d="M103.399 87.4064C103.345 87.4064 103.205 87.5538 102.872 87.7167C102.406 87.9337 101.875 87.9615 101.39 87.7942C100.172 87.3909 99.0621 85.514 98.9845 83.4588C98.9248 82.4846 99.0839 81.5095 99.45 80.6047C99.547 80.2487 99.7291 79.9216 99.9804 79.6514C100.232 79.3813 100.545 79.1761 100.893 79.0536C101.119 78.9873 101.36 79.0014 101.577 79.0933C101.793 79.1852 101.971 79.3493 102.08 79.5577C102.243 79.8757 102.181 80.1006 102.243 80.1238C102.305 80.1471 102.476 79.9222 102.375 79.4569C102.301 79.1774 102.134 78.9314 101.902 78.7588C101.744 78.645 101.566 78.5637 101.377 78.5198C101.187 78.4758 100.991 78.4701 100.8 78.5029C100.334 78.6084 99.9041 78.8323 99.5507 79.153C99.1973 79.4737 98.9327 79.8803 98.7827 80.3332C98.3273 81.3312 98.1247 82.426 98.1931 83.5208C98.3327 85.8475 99.5741 87.9261 101.234 88.3526C101.544 88.4292 101.867 88.4363 102.179 88.3732C102.492 88.3102 102.787 88.1787 103.042 87.9881C103.384 87.6856 103.438 87.4297 103.399 87.4064Z" fill="#FF9A6C"/>
<path d="M89.9535 57.9892C92.0328 53.8166 92.2423 49.0004 93.2121 44.44C94.1819 39.8797 96.3156 35.0789 100.606 33.202L100.707 33.2408C104.524 31.3717 109.373 30.9994 112.803 33.4968C113.175 27.5404 118.009 22.4992 123.665 20.5758C129.321 18.6524 138.623 18.885 144.303 20.7076C148.694 22.1192 153.078 25.361 158.47 30.1541C160.747 32.1781 162.854 34.3856 164.77 36.7541L170.891 51.8545L167.183 60.2616C166.966 60.8355 166.741 61.4017 166.461 61.9756L163.823 79.3406C163.241 74.6872 162.411 58.47 161.829 53.8244C158.319 53.9732 154.814 53.411 151.526 52.1715C148.238 50.932 145.235 49.0408 142.697 46.6116C139.95 43.9747 137.692 40.5854 134.162 39.1506C129.623 37.2893 124.503 39.2515 119.995 41.1904L120.173 40.9965C117.842 42.2887 115.779 44.0157 114.098 46.0842C115.799 55.2151 115.516 64.605 113.268 73.6169C112.927 74.9741 111.941 77.7817 110.685 78.3711C108.202 79.5422 107.333 76.9984 105.696 75.7264C104.493 74.7958 102.81 74.788 100.978 74.9509C99.4143 71.162 98.08 67.2823 96.9828 63.3329C95.4753 63.9179 93.8522 64.1436 92.2423 63.9921L93.4526 60.378C92.8783 60.8692 92.2068 61.2339 91.4819 61.4482C91.1173 61.5489 90.7305 61.5353 90.3738 61.409C90.0172 61.2828 89.708 61.0501 89.488 60.7425C89.0069 59.9049 89.519 58.8578 89.9535 57.9892Z" fill="#263238"/>
<path d="M118.148 35.0247C117.586 35.5252 117.066 36.0727 116.597 36.6611C115.401 38.3357 114.66 40.2919 114.447 42.3383C114.27 43.7425 114.231 45.1609 114.331 46.5729C114.432 48.124 114.672 49.7217 114.913 51.4357C115.195 53.2333 115.369 55.0462 115.433 56.8647C115.445 57.8292 115.388 58.7934 115.262 59.7498C115.189 60.771 114.855 61.7564 114.292 62.6116C114.028 62.9548 113.678 63.2232 113.278 63.3905C112.878 63.5577 112.442 63.6181 112.011 63.5656C111.188 63.4741 110.418 63.1112 109.823 62.5341C108.667 61.363 108.272 59.8041 107.93 58.4391H108.279C107.869 59.7234 107.273 60.9409 106.51 62.0532C105.77 63.0896 104.658 63.8007 103.407 64.0387C102.825 64.1374 102.227 64.0757 101.677 63.8603C101.163 63.6428 100.729 63.2716 100.435 62.7978C100.152 62.3713 99.9938 61.8744 99.9776 61.3629C99.9632 60.8837 100.117 60.4146 100.412 60.0367L100.598 60.1763C99.4691 61.6907 97.9519 62.8723 96.2069 63.5966C96.0815 63.6492 95.9517 63.6907 95.819 63.7207C95.9297 63.6439 96.0496 63.5814 96.1759 63.5345C96.4164 63.4182 96.7733 63.2398 97.2155 62.9761C98.4819 62.2189 99.5824 61.2138 100.451 60.0212L100.637 60.1686C100.391 60.5358 100.265 60.9708 100.277 61.4129C100.29 61.855 100.44 62.2822 100.707 62.6349C100.976 63.0516 101.366 63.3763 101.824 63.5656C102.318 63.7564 102.855 63.8074 103.376 63.7129C104.538 63.4734 105.565 62.7993 106.247 61.8283C106.979 60.7375 107.548 59.5462 107.938 58.2917L108.14 57.7488L108.295 58.315C108.659 59.68 109.071 61.1768 110.103 62.1928C110.633 62.7099 111.321 63.0347 112.058 63.1157C112.421 63.1674 112.791 63.123 113.131 62.9869C113.472 62.8508 113.77 62.6278 113.997 62.3402C114.516 61.5378 114.823 60.6173 114.89 59.6645C115.016 58.7263 115.073 57.7801 115.06 56.8336C115.006 55.0335 114.84 53.2385 114.564 51.459C114.339 49.7449 114.106 48.1162 114.013 46.5729C113.925 45.1386 113.982 43.6991 114.184 42.2762C114.433 40.1921 115.237 38.213 116.511 36.5448C116.969 35.951 117.522 35.4373 118.148 35.0247Z" fill="#455A64"/>
<path d="M170.527 47.4414C170.489 47.4837 170.447 47.5226 170.403 47.5577L170.007 47.8912C169.797 48.0754 169.574 48.2439 169.34 48.3953C169.029 48.6147 168.705 48.8141 168.37 48.9925C166.228 50.1601 163.827 50.7733 161.387 50.7763C157.751 50.8015 154.185 49.7724 151.122 47.8137C147.419 45.376 144.251 42.2093 141.812 38.5069C140.462 36.5912 139.337 34.629 138.119 32.7832C136.997 31.0083 135.628 29.4022 134.053 28.0134C132.633 26.7601 130.92 25.8828 129.072 25.4618C128.237 25.2951 127.382 25.2585 126.535 25.3532C125.756 25.4551 124.994 25.6612 124.27 25.9659C122.051 26.9077 120.267 28.649 119.273 30.8442C118.947 31.6621 118.721 32.5162 118.598 33.3881C118.598 33.3881 118.598 33.3338 118.598 33.2175C118.598 33.1011 118.598 32.9073 118.598 32.7056C118.685 32.0491 118.851 31.4058 119.095 30.79C119.499 29.8213 120.063 28.9273 120.763 28.1453C121.695 27.1018 122.841 26.2712 124.122 25.71C124.866 25.3916 125.649 25.1726 126.45 25.0585C127.326 24.947 128.214 24.9784 129.08 25.1516C130.988 25.5693 132.759 26.4602 134.232 27.742C135.839 29.1442 137.235 30.7717 138.375 32.5738C139.609 34.4041 140.741 36.3896 142.076 38.2819C144.494 41.9464 147.629 45.0833 151.293 47.5034C154.298 49.4502 157.799 50.492 161.379 50.5049C163.787 50.5217 166.164 49.9577 168.308 48.8607C169.073 48.429 169.814 47.9551 170.527 47.4414Z" fill="#455A64"/>
<path d="M159.766 65.9697C159.463 66.3265 157.438 64.9304 154.66 65.0545C151.883 65.1786 149.912 66.691 149.594 66.3497C149.439 66.2024 149.741 65.5742 150.595 64.8684C151.754 63.9669 153.169 63.454 154.637 63.4026C156.088 63.3383 157.52 63.7466 158.718 64.5659C159.603 65.1941 159.921 65.8068 159.766 65.9697Z" fill="#263238"/>
<path d="M155.948 74.2762C155.955 74.8628 155.731 75.4285 155.325 75.8519C154.918 76.2753 154.362 76.5226 153.776 76.5409C153.489 76.5663 153.2 76.5336 152.926 76.4447C152.652 76.3558 152.399 76.2126 152.181 76.0236C151.964 75.8346 151.787 75.6037 151.661 75.3448C151.535 75.0859 151.463 74.8042 151.448 74.5166C151.444 73.9312 151.667 73.3669 152.071 72.9429C152.475 72.5189 153.028 72.2684 153.613 72.2442C153.901 72.2199 154.19 72.2536 154.465 72.3433C154.739 72.433 154.993 72.5769 155.211 72.7664C155.428 72.9559 155.606 73.1871 155.733 73.4465C155.859 73.7059 155.933 73.988 155.948 74.2762Z" fill="#263238"/>
<path d="M163.234 34.947C164.785 36.7231 167.028 38.2897 169.332 37.9019C170.163 37.6754 170.974 37.385 171.76 37.0333C172.598 37.4754 172.575 40.2674 172.063 41.0663C171.573 41.7457 171.025 42.3815 170.426 42.9664C173.242 44.2693 175.678 43.4007 178.518 42.1908C178.381 44.6826 177.593 47.0949 176.231 49.1867C174.87 51.2785 172.983 52.9765 170.759 54.1113C169.332 54.8093 167.578 55.2514 166.19 54.4681C164.972 53.7778 164.405 52.3508 163.971 51.0245C162.371 46.1291 161.383 41.0545 161.03 35.9165L163.234 34.947Z" fill="#263238"/>
<path d="M156.398 126.038L146.855 122.517L110.359 121.438L101.886 123.742L102.996 144.372L122.152 156.587L140.726 156.215L152.41 145.574L155.002 135.034L156.398 126.038Z" fill="#FFBF9D"/>
<path d="M48.1035 157.65C50.3612 152.944 52.9137 148.385 55.7457 144C60.2153 136.976 67.283 132.005 75.4061 130.171L106.037 121.873C106.037 121.873 108.116 142.518 129.173 142.518C150.23 142.518 150.665 123.393 150.665 123.393L189.225 137.485C190.443 137.958 198.66 140.804 208.226 161.303C217.335 180.824 221.315 190.774 221.315 190.774L184.942 200.546L182.529 234.136L183.305 252.882L72.4966 252.634L73.1173 231.205L72.613 195.777L70.2854 200.143L35.6974 186.276C35.6974 186.276 39.1656 176.108 48.1035 157.65Z" fill="#2DD4BF"/>
<path d="M72.1552 177.481C71.9923 177.481 72.0931 189.355 72.3802 203.99C72.6673 218.625 73.0242 230.483 73.1561 230.483C73.288 230.483 73.2181 218.617 72.9311 203.974C72.644 189.332 72.2793 177.481 72.1552 177.481Z" fill="#263238"/>
<g opacity="0.3">
<path d="M180.07 180.94C178.347 179.048 175.671 178.419 173.165 177.907C144.652 172.052 115.254 174.526 86.369 178.14C82.7845 178.582 78.8276 179.342 76.6629 182.235C75.1112 184.321 76.1043 187.098 75.9569 189.704C75.181 203.082 76.95 217.337 79.5957 230.483L177.991 228.932C181.358 218.741 182.18 201.454 182.227 189.704C182.242 186.602 182.141 183.212 180.07 180.94Z" fill="black"/>
</g>
<path d="M186.471 165.499C186.489 165.666 186.489 165.835 186.471 166.003V167.445C186.471 168.694 186.432 170.501 186.378 172.742C186.269 177.217 186.028 183.399 185.656 190.216C185.284 197.033 184.834 203.207 184.477 207.666C184.291 209.861 184.135 211.645 184.027 212.948C183.965 213.537 183.91 214.01 183.879 214.383C183.872 214.551 183.843 214.718 183.794 214.879C183.773 214.712 183.773 214.542 183.794 214.375C183.794 214.003 183.833 213.529 183.856 212.94C183.941 211.637 184.05 209.838 184.182 207.651C184.453 203.129 184.826 196.987 185.229 190.193C185.633 183.399 185.889 177.202 186.083 172.735C186.176 170.54 186.253 168.74 186.308 167.437C186.308 166.848 186.362 166.375 186.385 165.995C186.396 165.827 186.424 165.66 186.471 165.499Z" fill="#263238"/>
<path d="M218.196 191.728L233.038 221.518C234.698 224.846 235.476 228.545 235.296 232.259C235.024 237.834 232.617 243.09 228.572 246.938C224.526 250.785 219.155 252.927 213.572 252.921L170.992 250.454L169.138 231.065L201.538 223.255L188.984 199.538L218.196 191.728Z" fill="#FFBF9D"/>
<path d="M201.561 223.224C201.561 223.356 203.035 223.115 205.379 223.131C208.436 223.176 211.467 223.7 214.363 224.682C217.262 225.645 219.979 227.087 222.401 228.948C224.247 230.406 225.116 231.6 225.217 231.515C225.318 231.429 225.07 231.174 224.682 230.623C224.102 229.871 223.449 229.177 222.735 228.552C220.344 226.515 217.58 224.964 214.596 223.984C211.632 222.96 208.505 222.487 205.371 222.588C204.428 222.626 203.489 222.735 202.562 222.914C201.903 223.077 201.546 223.177 201.561 223.224Z" fill="#FF9A6C"/>
<path d="M36.3026 186.602C36.3026 186.602 28.3035 208.946 18.2638 233.81C18.0628 234.314 17.902 234.833 17.7828 235.362C16.231 242.078 21.3905 253.386 28.2724 253.386L85.9267 252.82V233.958L52.6888 226.667L65.5138 198.313L36.3026 186.602Z" fill="#FFBF9D"/>
<path d="M26.8371 231.833C26.9147 231.926 28.0474 231.057 30.0569 229.878C35.3134 226.874 41.3535 225.523 47.3897 226.001C49.7172 226.171 51.106 226.497 51.1371 226.373C51.1681 226.249 50.8112 226.202 50.175 226.016C49.279 225.771 48.3662 225.592 47.444 225.481C41.2722 224.719 35.0277 226.131 29.7853 229.475C29.0007 229.973 28.2538 230.527 27.5509 231.135C27.0543 231.53 26.806 231.794 26.8371 231.833Z" fill="#FF9A6C"/>
<path d="M177.494 229.902H169.138C169.138 229.902 150.323 223.115 146.459 223.759C142.976 224.349 130.221 232.818 127.722 234.493C127.442 234.679 127.229 234.951 127.117 235.269C126.875 235.936 126.901 236.671 127.191 237.319C127.48 237.968 128.01 238.478 128.669 238.743L128.933 238.852L128.824 239.232C128.665 239.733 128.599 240.258 128.63 240.783C128.664 241.17 128.821 241.537 129.076 241.83C129.332 242.123 129.675 242.328 130.054 242.414C130.434 242.5 130.831 242.464 131.189 242.31C131.546 242.156 131.846 241.893 132.044 241.558L131.563 242.412C131.368 242.761 131.276 243.159 131.299 243.559L131.346 244.335C131.366 244.755 131.515 245.16 131.771 245.493C132.028 245.827 132.38 246.075 132.781 246.204C133.162 246.33 133.572 246.342 133.96 246.241C134.348 246.139 134.699 245.927 134.969 245.63C136.59 243.854 140.082 240.286 142.448 239.899C145.022 239.589 147.615 239.46 150.207 239.511C150.732 239.513 151.245 239.673 151.678 239.97C152.112 240.268 152.445 240.689 152.635 241.178C151.231 241.279 141.455 246.375 137.995 248.197C137.46 248.466 136.999 248.859 136.649 249.343C136.299 249.828 136.071 250.39 135.985 250.982C135.861 252.06 136.404 253.2 138.546 252.696C143.147 251.625 151.417 247.825 151.417 247.825C151.417 247.825 155.677 246.607 158.447 248.554C162.326 251.3 164.11 252.3 167.447 251.191C169.478 250.519 171.425 249.616 173.25 248.5L179.822 247.848C179.822 247.848 185.997 232.283 177.494 229.902Z" fill="#FFBF9D"/>
<path d="M152.659 233.082C152.659 233.151 151.324 232.732 149.121 232.593C146.256 232.401 143.385 232.888 140.744 234.015C138.103 235.141 135.765 236.876 133.922 239.077C132.502 240.76 131.897 242.001 131.827 241.962C131.939 241.66 132.079 241.369 132.246 241.093C132.68 240.328 133.176 239.599 133.728 238.914C135.554 236.63 137.918 234.835 140.608 233.687C143.298 232.54 146.231 232.076 149.144 232.337C150.018 232.414 150.885 232.562 151.735 232.779C152.054 232.844 152.364 232.945 152.659 233.082Z" fill="#FFBF9D"/>
<path d="M150.665 228.513C149.469 228.153 148.234 227.936 146.987 227.87C143.971 227.865 141.014 228.706 138.453 230.297C135.909 231.927 133.593 233.885 131.563 236.122L129.647 238.1C129.431 238.361 129.189 238.6 128.925 238.813C129.109 238.537 129.317 238.278 129.546 238.037C129.965 237.541 130.57 236.82 131.354 235.951C133.352 233.64 135.675 231.631 138.251 229.987C140.87 228.357 143.911 227.534 146.995 227.622C147.923 227.667 148.841 227.834 149.726 228.118C149.966 228.196 150.202 228.286 150.432 228.389C150.516 228.417 150.595 228.459 150.665 228.513Z" fill="#FFBF9D"/>
<path d="M73.7069 230.491H82.0397C82.0397 230.491 100.862 223.697 104.741 224.348C108.225 224.93 120.972 233.399 123.471 235.075C123.748 235.264 123.96 235.535 124.076 235.85C124.32 236.517 124.295 237.253 124.005 237.902C123.716 238.551 123.184 239.061 122.524 239.325L122.26 239.433L122.377 239.813C122.528 240.316 122.594 240.84 122.571 241.364C122.539 241.754 122.383 242.124 122.127 242.419C121.87 242.715 121.526 242.921 121.145 243.007C120.763 243.094 120.364 243.056 120.005 242.9C119.646 242.744 119.346 242.478 119.149 242.14L119.63 242.993C119.824 243.341 119.917 243.735 119.902 244.133L119.855 244.909C119.832 245.331 119.682 245.736 119.424 246.071C119.167 246.406 118.814 246.655 118.412 246.786C118.031 246.911 117.621 246.924 117.233 246.822C116.845 246.72 116.495 246.508 116.224 246.212C114.61 244.436 111.111 240.868 108.753 240.48C106.192 240.165 103.612 240.036 101.033 240.093C100.507 240.093 99.9937 240.253 99.5603 240.55C99.1269 240.848 98.7937 241.27 98.6043 241.76C100.009 241.861 109.777 246.956 113.237 248.779C113.772 249.046 114.235 249.439 114.585 249.924C114.934 250.409 115.162 250.971 115.247 251.563C115.378 252.641 114.828 253.774 112.686 253.277C108.093 252.207 99.8224 248.407 99.8224 248.407C99.8224 248.407 95.5552 247.189 92.7931 249.136C88.9138 251.873 87.1293 252.882 83.7854 251.773C81.757 251.1 79.8124 250.197 77.9897 249.081L71.4104 248.422C71.4104 248.422 65.219 232.872 73.7069 230.491Z" fill="#FFBF9D"/>
<path d="M98.5345 233.671C99.7019 233.445 100.88 233.279 102.065 233.175C104.931 232.985 107.803 233.474 110.445 234.602C113.087 235.73 115.426 237.465 117.272 239.666C118.691 241.349 119.297 242.59 119.359 242.551C119.251 242.247 119.111 241.956 118.94 241.682C118.509 240.917 118.016 240.188 117.466 239.503C115.639 237.22 113.275 235.424 110.585 234.277C107.895 233.129 104.962 232.665 102.049 232.926C101.172 232.999 100.302 233.147 99.45 233.368C99.1342 233.434 98.8269 233.535 98.5345 233.671Z" fill="#FFBF9D"/>
<path d="M100.552 229.103C101.746 228.736 102.981 228.52 104.229 228.459C107.245 228.448 110.203 229.287 112.764 230.879C115.309 232.511 117.629 234.472 119.661 236.711L121.547 238.72C121.767 238.977 122.009 239.215 122.268 239.433C122.089 239.156 121.884 238.896 121.655 238.658C121.236 238.154 120.623 237.44 119.84 236.572C117.844 234.261 115.523 232.252 112.95 230.607C110.33 228.973 107.285 228.15 104.198 228.242C103.27 228.288 102.352 228.455 101.467 228.738C101.23 228.816 100.996 228.906 100.769 229.01C100.622 229.049 100.544 229.087 100.552 229.103Z" fill="#FFBF9D"/>
<path d="M86.8966 253.432H182.591C183.9 253.434 185.159 252.929 186.105 252.024C187.05 251.12 187.609 249.885 187.666 248.577L190.536 182.747C190.567 182.063 190.458 181.38 190.217 180.739C189.976 180.098 189.608 179.512 189.135 179.017C188.661 178.522 188.092 178.128 187.463 177.859C186.833 177.589 186.155 177.45 185.47 177.45H84.2354C83.5513 177.45 82.8744 177.589 82.2453 177.857C81.6161 178.126 81.0476 178.518 80.5738 179.011C80.1 179.504 79.7306 180.088 79.4879 180.727C79.2452 181.367 79.1341 182.048 79.1612 182.732L81.8457 248.562C81.8977 249.868 82.452 251.103 83.393 252.011C84.334 252.918 85.5891 253.427 86.8966 253.432Z" fill="#E0E0E0"/>
<path d="M86.8966 253.432H86.6638C86.4298 253.429 86.1964 253.408 85.9655 253.37C85.0579 253.207 84.2111 252.803 83.5138 252.199C82.949 251.704 82.4979 251.093 82.1912 250.408C81.8845 249.723 81.7296 248.979 81.7371 248.228C81.6595 246.47 81.5716 244.451 81.4733 242.171C81.0776 233.05 80.519 219.866 79.8207 203.579L79.3086 190.79C79.2155 188.561 79.1224 186.294 79.0293 183.988C79.0293 183.399 78.9595 182.84 78.9828 182.227C79.0179 181.619 79.157 181.021 79.394 180.459C79.8837 179.314 80.7633 178.38 81.8767 177.822C82.4356 177.541 83.0396 177.36 83.6612 177.287C84.2974 177.233 84.8871 177.287 85.5078 177.287H112.5H182.677H185.004C185.81 177.25 186.614 177.374 187.371 177.652C188.125 177.943 188.803 178.402 189.353 178.995C189.903 179.588 190.31 180.298 190.544 181.072C190.754 181.828 190.82 182.618 190.738 183.399L190.637 185.686C190.567 187.238 190.505 188.734 190.435 190.247C190.172 196.307 189.913 202.268 189.66 208.131C189.147 219.85 188.651 231.166 188.17 241.938C188.116 243.28 188.053 244.622 187.999 245.948L187.906 247.934C187.914 248.612 187.825 249.289 187.642 249.942C187.245 251.264 186.346 252.378 185.136 253.045C184.546 253.371 183.898 253.579 183.228 253.657C182.553 253.727 181.924 253.657 181.28 253.657H166.415H139.733L101.087 253.587L90.5819 253.541H87.8509C87.2302 253.541 86.9198 253.541 86.9198 253.541H87.8509H90.5819L101.087 253.494L139.733 253.425H166.415H181.28C181.916 253.425 182.576 253.425 183.181 253.386C183.796 253.307 184.39 253.115 184.934 252.82C186.051 252.21 186.886 251.189 187.262 249.973C187.43 249.354 187.511 248.715 187.503 248.073C187.503 247.414 187.565 246.755 187.588 246.088C187.65 244.754 187.704 243.42 187.766 242.07C188.232 231.298 188.721 219.99 189.225 208.263C189.484 202.4 189.742 196.438 190.001 190.379C190.063 188.864 190.13 187.346 190.203 185.826L190.296 183.499C190.381 182.761 190.323 182.013 190.125 181.297C189.908 180.595 189.535 179.951 189.034 179.414C188.532 178.877 187.916 178.46 187.231 178.194C186.527 177.937 185.777 177.826 185.028 177.869H182.7H112.523H85.5233C84.9181 177.869 84.2897 177.869 83.7233 177.869C83.1454 177.933 82.5833 178.098 82.063 178.357C81.0191 178.866 80.193 179.733 79.7354 180.8C79.5145 181.32 79.3833 181.873 79.3474 182.437C79.3474 182.995 79.3474 183.592 79.3862 184.166C79.4793 186.478 79.5698 188.745 79.6578 190.968C79.8362 195.412 80.0069 199.685 80.1698 203.757C80.7983 220.044 81.3104 233.229 81.6673 242.357C81.7526 244.637 81.8224 246.662 81.8923 248.414C81.8824 249.145 82.0289 249.868 82.322 250.537C82.615 251.206 83.0479 251.804 83.5914 252.292C84.2687 252.898 85.0968 253.311 85.9888 253.487C86.6017 253.44 86.8966 253.409 86.8966 253.432Z" fill="#263238"/>
<path d="M129.615 216.601C129.614 217.638 129.92 218.652 130.496 219.515C131.071 220.379 131.89 221.052 132.848 221.45C133.806 221.848 134.861 221.953 135.879 221.751C136.897 221.55 137.832 221.051 138.566 220.318C139.3 219.585 139.801 218.651 140.004 217.634C140.207 216.617 140.103 215.562 139.707 214.604C139.31 213.645 138.638 212.826 137.775 212.25C136.912 211.673 135.898 211.365 134.86 211.365C133.471 211.365 132.138 211.917 131.154 212.898C130.171 213.88 129.618 215.211 129.615 216.601Z" fill="white"/>
<path d="M134.074 92.0522C134.055 91.9611 134.59 91.5697 135.67 91.3481C137.088 91.0723 138.558 91.266 139.856 91.8998C141.154 92.5336 142.211 93.5729 142.865 94.8606C143.352 95.8434 143.386 96.526 143.297 96.5529C143.207 96.5799 142.944 95.9777 142.375 95.1632C141.662 94.0795 140.67 93.2078 139.504 92.6396C138.338 92.0714 137.04 91.8278 135.747 91.9343C134.74 91.974 134.115 92.1703 134.074 92.0522Z" fill="#263238"/>
</svg>
