<svg width="240" height="240" viewBox="0 0 240 240" fill="none" xmlns="http://www.w3.org/2000/svg">
<g clip-path="url(#clip0_72_126)">
<path d="M0 5.99999C0 2.68629 2.68629 0 6 0H234C237.314 0 240 2.68629 240 6V234C240 237.314 237.314 240 234 240H5.99999C2.68629 240 0 237.314 0 234V5.99999Z" fill="#F2F2F2"/>
<path d="M131 109H109C108.47 109 107.961 109.211 107.586 109.586C107.211 109.961 107 110.47 107 111V129C107 129.53 107.211 130.039 107.586 130.414C107.961 130.789 108.47 131 109 131H131C131.53 131 132.039 130.789 132.414 130.414C132.789 130.039 133 129.53 133 129V111C133 110.47 132.789 109.961 132.414 109.586C132.039 109.211 131.53 109 131 109ZM123.5 115C123.797 115 124.087 115.088 124.333 115.253C124.58 115.418 124.772 115.652 124.886 115.926C124.999 116.2 125.029 116.502 124.971 116.793C124.913 117.084 124.77 117.351 124.561 117.561C124.351 117.77 124.084 117.913 123.793 117.971C123.502 118.029 123.2 117.999 122.926 117.886C122.652 117.772 122.418 117.58 122.253 117.333C122.088 117.087 122 116.797 122 116.5C122 116.102 122.158 115.721 122.439 115.439C122.721 115.158 123.102 115 123.5 115ZM109 129V125.5L115.5 119L125.5 129H109ZM131 129H128.329L123.829 124.5L126.329 122L131 126.673V129Z" fill="black" fill-opacity="0.25"/>
</g>
<defs>
<clipPath id="clip0_72_126">
<path d="M0 5.99999C0 2.68629 2.68629 0 6 0H234C237.314 0 240 2.68629 240 6V234C240 237.314 237.314 240 234 240H5.99999C2.68629 240 0 237.314 0 234V5.99999Z" fill="white"/>
</clipPath>
</defs>
</svg>
