<svg width="295" height="229" viewBox="0 0 295 229" fill="none" xmlns="http://www.w3.org/2000/svg">
<g clip-path="url(#clip0_75_3026)">
<path d="M83.4694 495.763C84.9185 476.114 82.542 454.523 84.165 423.86C84.3099 416.006 84.5997 407.587 85.1214 400.095C86.9037 374.939 90.7873 366.332 91.135 361.478C91.135 361.478 93.0478 313.238 94.6853 258.173C95.4678 232.263 102.974 224.424 108.973 210.672H180.268C188.238 244.595 190.498 318.599 190.266 353.566C190.136 371.389 182.949 466.767 182.804 468.956C182.296 476.737 182.978 479.809 186.021 483.084C192.411 489.938 201.671 496.474 209.67 502.444C208.51 505.501 198.888 505.342 194.121 503.067C187.871 499.814 181.917 496.022 176.326 491.735C169.747 486.866 161.343 482.954 161.227 475.549C161.197 475.103 161.125 474.662 161.009 474.23C160.894 469.883 150.866 406.124 149.968 391.3C149.243 378.562 150.794 356.971 150.794 356.971L142.577 303.051C142.577 303.051 136.274 343.987 131.159 365.752C126.985 383.46 120.102 413.688 115.422 435.482C110.915 460.609 104.438 485.011 103.293 497.589C102.96 500.589 99.5542 530.049 98.1486 536.801C96.743 543.554 82.1363 543.742 81.1219 532.15C80.4988 524.397 83.2086 499.459 83.4694 495.763Z" fill="#FFBF9D"/>
<path d="M101.699 210.672C93.8593 229.974 91.164 240.943 90.309 286.749C89.4541 332.554 89.541 352.392 89.3526 357.913C89.1643 363.434 85.9618 373.302 83.1361 400.516C80.3104 427.729 82.9043 459.565 82.9043 459.565C82.9043 459.565 85.5995 464.507 95.9459 465.362C105.539 466.231 110.292 462.623 110.292 462.623C110.292 462.623 123.449 409.645 127.101 393.27C130.753 376.896 142.548 313.933 142.548 313.933L148.823 357.623C148.823 357.623 145.925 372.635 148.823 396.502C151.721 420.368 156.909 444.785 156.909 444.785C161.644 446.439 166.63 447.258 171.646 447.205C176.188 447.275 180.662 446.102 184.586 443.814C184.586 443.814 192.73 372.809 192.73 345.798C192.73 318.788 192.396 250.623 183.876 210.6L101.699 210.672Z" fill="#455A64"/>
<path d="M85.4546 462.087C85.911 462.432 86.3958 462.737 86.9037 463C84.2519 420.252 89.57 395.705 93.1058 379.345C93.4535 377.765 93.7723 376.273 94.0766 374.853C96.7574 362.057 97.9602 336.38 97.9167 315.353C97.9167 309.021 97.9167 302.486 97.9167 295.53C97.9167 287.401 98.221 278.982 98.8876 270.664C113.799 268.882 117.03 254.159 121.102 235.582C121.653 233.031 122.237 230.409 122.855 227.713L121.537 227.409C120.914 230.104 120.334 232.742 119.769 235.292C115.697 253.913 112.697 267.432 99.0035 269.244C100.626 250.406 104.524 232.017 113.799 218.773L112.697 217.99C98.8876 237.697 96.7574 268.244 96.5546 295.516C96.5546 302.471 96.5546 309.021 96.5546 315.353C96.5546 336.307 95.3953 361.927 92.7435 374.577L91.7871 379.055C88.2224 395.357 82.9332 419.759 85.4546 462.087ZM151.17 261.998L142.606 314.006L148.881 357.695L148.055 315.252L153.851 283.01C154.068 286.213 154.3 289.502 154.518 292.849C156.416 320.498 158.546 351.827 157.111 358.42C153.141 376.49 154.3 387.894 156.416 408.602C156.633 410.703 156.865 412.949 157.097 415.209C158.256 426.903 159.546 438.395 160.415 445.915L161.864 446.234C160.995 438.728 159.676 427.019 158.488 415.079C158.256 412.76 158.039 410.572 157.822 408.471C155.72 387.909 154.561 376.591 158.474 358.71C159.923 351.928 157.908 321.845 155.923 292.762C155.561 287.473 155.213 282.372 154.894 277.504L156.546 268.345C163.067 266.78 177.428 259.202 179.34 250.203C169.255 260.709 151.17 261.998 151.17 261.998Z" fill="#37474F"/>
<path d="M225.189 187.936C224.102 187.342 222.059 189.139 219.393 191.675C218.726 192.301 218.208 193.068 217.877 193.921C217.546 194.774 217.41 195.69 217.48 196.602C219.33 196.258 221.008 195.291 222.233 193.863C223.658 192.139 224.67 190.112 225.189 187.936Z" fill="#263238"/>
<path d="M231.391 208.701C230.348 208.368 229.942 207.919 231.391 206.571C232.84 205.224 237.622 201.76 237.622 201.76L238.825 203.789C238.825 203.789 233.202 209.107 231.391 208.701Z" fill="black"/>
<path d="M262.155 175.836C261.474 172.851 258.199 170.648 252.287 167.359L252.127 167.272L251.301 166.808C241.491 161.795 193.222 139.957 185.412 136.957C179.432 134.433 173.115 132.798 166.661 132.103L177.485 170.199C177.485 170.199 213.35 181.43 228.203 185.994C224.131 190.82 220.146 195.486 216.48 197.167L230.971 209.44C234.188 204.47 253.75 194.5 258.083 187.704C261.17 182.719 262.807 178.749 262.155 175.836Z" fill="#FFBF9D"/>
<path d="M247.708 170.663C237.825 169.605 229.638 178.082 225.783 182.502C225.392 182.951 224.58 183.951 223.928 184.705L228.102 185.994C228.319 185.748 229.971 183.56 231 182.183C234.984 176.44 240.923 172.344 247.708 170.663Z" fill="#FF9A6C"/>
<path d="M229.725 198.601C228.087 197.152 224.088 193.486 221.537 194.558C217.538 196.254 215.654 197.848 209.64 200.659C205.293 202.702 200.004 205.426 198.859 206.774C195.961 210.223 196.947 219.033 198.106 222.714C198.24 223.184 198.475 223.62 198.794 223.99C199.113 224.361 199.509 224.658 199.954 224.86C200.399 225.063 200.883 225.166 201.372 225.164C201.861 225.161 202.344 225.052 202.786 224.844C203.134 225.612 204.105 227.264 207.134 226.641C207.365 227.786 209.119 229.162 211.829 228.612C212.176 229.872 214.611 230.322 216.248 229.568C218.523 228.554 220.885 225.308 222.32 224.076C223.754 222.844 224.436 222.381 224.465 221.613C224.465 220.569 223.349 219.511 221.436 219.685C223.692 219.056 225.71 217.77 227.232 215.99C228.403 214.363 229.376 212.602 230.13 210.745C230.716 209.196 231.608 207.782 232.753 206.586C234.869 204.209 231.71 200.644 230 198.978L229.725 198.601Z" fill="#FFBF9D"/>
<path d="M221.479 219.729C220.821 220.073 220.203 220.491 219.639 220.975C219.371 221.221 219.129 221.492 218.915 221.786C218.683 222.076 218.523 222.395 218.263 222.714L218.132 222.873L217.958 222.786C216.835 222.346 215.622 222.182 214.422 222.308C215.626 221.822 216.972 221.822 218.176 222.308H217.871C218.258 221.659 218.748 221.076 219.32 220.583C219.975 220.156 220.709 219.865 221.479 219.729Z" fill="#FF9A6C"/>
<path d="M217.277 225.859C217.422 225.264 217.625 224.757 217.741 224.221C217.882 223.673 217.988 223.116 218.06 222.555C218.339 223.106 218.401 223.742 218.234 224.337C218.09 224.935 217.754 225.47 217.277 225.859Z" fill="#FF9A6C"/>
<path d="M211.872 228.655C211.167 227.214 210.748 225.649 210.64 224.047C210.476 222.449 210.629 220.834 211.09 219.294C210.99 220.863 211.015 222.438 211.162 224.004C211.27 225.571 211.507 227.127 211.872 228.655Z" fill="#FF9A6C"/>
<path d="M207.177 226.684C206.514 224.881 206.081 223.002 205.887 221.091C205.651 219.158 205.734 217.2 206.134 215.295C206.104 217.197 206.191 219.098 206.395 220.99C206.568 222.931 206.902 224.801 207.177 226.684Z" fill="#FF9A6C"/>
<path d="M202.786 224.945C201.06 221.329 200.71 217.208 201.801 213.353C201.629 215.281 201.629 217.221 201.801 219.149C201.963 221.106 202.292 223.045 202.786 224.945Z" fill="#FF9A6C"/>
<path d="M202.062 210.281C202.027 209.785 202.112 209.288 202.308 208.832C202.513 208.384 202.815 207.988 203.192 207.672C203.97 207.124 204.871 206.776 205.815 206.658C205.409 206.904 205.003 207.122 204.612 207.339C204.216 207.541 203.842 207.784 203.496 208.064C202.8 208.636 202.299 209.411 202.062 210.281Z" fill="#FF9A6C"/>
<path d="M206.554 212.034C206.506 211.539 206.585 211.04 206.786 210.585C206.991 210.134 207.298 209.737 207.684 209.426C208.451 208.868 209.35 208.518 210.293 208.412L209.09 209.078C208.7 209.291 208.327 209.533 207.974 209.803C207.28 210.381 206.784 211.161 206.554 212.034Z" fill="#FF9A6C"/>
<path d="M211.988 214.498C211.94 214.003 212.02 213.504 212.22 213.049C212.425 212.597 212.732 212.2 213.118 211.889C213.888 211.337 214.786 210.988 215.727 210.875C215.321 211.121 214.915 211.339 214.524 211.556C214.128 211.758 213.754 212.001 213.408 212.281C212.708 212.847 212.21 213.625 211.988 214.498Z" fill="#FF9A6C"/>
<path d="M234.68 189.196L228.594 187.153C227.902 186.961 227.174 186.934 226.469 187.075C225.764 187.215 225.102 187.52 224.537 187.965L219.711 192.21C219.501 192.362 219.335 192.566 219.23 192.803C219.126 193.04 219.087 193.301 219.117 193.558C219.117 193.862 219.407 195.007 219.48 195.341C219.553 195.587 219.691 195.81 219.88 195.986C220.068 196.162 220.3 196.284 220.552 196.34L226.638 198.398C227.331 198.59 228.059 198.616 228.763 198.475C229.468 198.334 230.13 198.03 230.695 197.587L235.506 193.326C235.713 193.184 235.879 192.99 235.988 192.764C236.098 192.538 236.146 192.287 236.129 192.037C236.129 191.703 235.825 190.588 235.753 190.211C235.681 189.961 235.544 189.735 235.355 189.557C235.167 189.378 234.934 189.254 234.68 189.196Z" fill="#37474F"/>
<path d="M219.712 192.21L224.537 187.965C225.102 187.52 225.764 187.215 226.469 187.075C227.174 186.934 227.902 186.961 228.594 187.153L234.681 189.196C234.944 189.227 235.192 189.34 235.387 189.52C235.583 189.7 235.717 189.937 235.77 190.197C235.823 190.457 235.792 190.728 235.683 190.969C235.573 191.211 235.389 191.412 235.159 191.544L230.333 195.79C229.768 196.234 229.106 196.539 228.401 196.68C227.697 196.821 226.968 196.794 226.276 196.601L220.19 194.558C219.926 194.527 219.679 194.414 219.483 194.234C219.287 194.055 219.154 193.818 219.101 193.557C219.047 193.297 219.078 193.027 219.188 192.785C219.297 192.543 219.481 192.342 219.712 192.21Z" fill="#455A64"/>
<path d="M228.29 196.094C227.691 196.249 227.063 196.249 226.464 196.094L220.378 194.051C219.987 193.921 219.741 193.718 219.697 193.486C219.654 193.254 219.799 192.993 220.117 192.718L224.928 188.472C225.408 188.088 225.976 187.829 226.58 187.718C227.179 187.563 227.807 187.563 228.406 187.718L234.492 189.762C234.883 189.892 235.13 190.095 235.173 190.327C235.217 190.559 235.072 190.82 234.753 191.095L229.942 195.341C229.462 195.725 228.895 195.984 228.29 196.094Z" fill="#263238"/>
<path d="M225.595 197.413H225.493L221.146 195.964C221.12 195.956 221.096 195.942 221.075 195.925C221.055 195.907 221.038 195.885 221.026 195.861C221.013 195.837 221.006 195.81 221.005 195.783C221.003 195.756 221.007 195.729 221.016 195.703C221.033 195.65 221.069 195.606 221.117 195.579C221.166 195.552 221.223 195.544 221.277 195.558L225.624 197.007C225.651 197.013 225.677 197.025 225.699 197.043C225.721 197.06 225.738 197.082 225.751 197.107C225.763 197.132 225.77 197.159 225.771 197.187C225.771 197.215 225.766 197.242 225.754 197.268C225.741 197.303 225.72 197.335 225.692 197.36C225.665 197.385 225.631 197.403 225.595 197.413Z" fill="#455A64"/>
<path d="M230.725 196.471C231.637 196.746 233.623 197.992 234.478 201.629C235.333 205.267 233.42 208.281 231.348 208.701C232.087 209.194 233.84 208.469 235.999 206.846L237.796 205.498C238.511 204.967 239.084 204.267 239.463 203.46C239.843 202.654 240.017 201.766 239.97 200.876C239.94 200.328 239.858 199.785 239.723 199.253C239.507 197.869 238.998 196.548 238.231 195.376C237.464 194.204 236.456 193.209 235.275 192.457L230.725 196.471Z" fill="#263238"/>
<path d="M90.8307 243.885C94.1636 228.698 99.2354 206.31 99.3513 202.948C99.844 189.356 96.3372 179.227 95.0765 170.779C92.3232 152.361 99.2209 136.899 103.51 133.262C103.51 133.262 107.973 132.248 113.291 130.973C116.318 130.238 119.386 129.686 122.479 129.321C130.639 128.178 138.902 127.954 147.113 128.654C149.113 128.857 158.575 130.48 158.575 130.48C161.473 131.146 166.675 132.103 166.69 132.103C171.762 136.781 176.001 142.289 179.224 148.39C183.89 156.737 186.194 163.722 185.571 181.603C185.397 186.979 185.18 196.587 185.397 204.252C185.847 220.67 187.093 227.438 189.18 242.334C170.356 253.927 122.87 259.274 90.8307 243.885Z" fill="#263238"/>
<path d="M123.928 119.163C125.347 118.812 126.73 118.327 128.057 117.714C129.973 116.726 132.104 116.228 134.26 116.265C136.911 116.54 139.085 118.322 141.606 119.003C143.029 119.353 144.508 119.412 145.954 119.177C146.852 119.047 147.707 118.757 148.591 118.554C150.037 118.205 151.535 118.121 153.011 118.308C154.513 118.649 156.073 118.649 157.575 118.308C159.923 117.496 161.27 114.975 163.531 113.961C166.052 112.801 169.037 113.801 171.762 113.294C172.984 113.029 174.134 112.503 175.134 111.753C176.135 111.003 176.961 110.046 177.558 108.947C178.726 106.723 179.181 104.193 178.862 101.701C178.449 100.021 178.449 98.2663 178.862 96.5862C179.395 95.5393 180.111 94.5968 180.978 93.8039C182.557 92.0651 183.876 89.6741 183.137 87.4425C182.499 85.4862 180.398 84.1241 180.239 82.0664C180.236 81.5934 180.339 81.1257 180.539 80.6973C180.74 80.2689 181.033 79.8904 181.398 79.5894C181.763 79.2884 182.19 79.0723 182.649 78.9568C183.107 78.8414 183.586 78.8295 184.05 78.9219C184.499 79.0682 184.91 79.3106 185.256 79.6324C185.602 79.9541 185.873 80.3474 186.051 80.7847C186.229 81.2221 186.309 81.693 186.287 82.1647C186.264 82.6363 186.138 83.0973 185.919 83.5155C186.92 82.8809 187.767 82.0314 188.398 81.0289C189.03 80.0263 189.43 78.8958 189.571 77.7192C189.419 75.6869 188.471 73.7967 186.933 72.459C185.484 71.01 183.861 69.8362 182.586 68.2712C181.908 67.4157 181.415 66.4289 181.137 65.3731C181.004 64.8577 180.95 64.3251 180.978 63.7936C180.978 62.8517 181.412 61.9243 181.557 60.9824C181.811 59.0464 181.367 57.0833 180.305 55.445C179.243 53.8066 177.632 52.6001 175.761 52.0416C173.732 51.5054 171.298 51.6503 169.965 50.0563C168.965 48.8971 168.936 47.1582 168.371 45.796C166.922 42.1878 161.98 41.101 158.343 42.5211C156.546 43.2167 154.735 44.4049 152.866 43.9702C151.603 43.5055 150.466 42.7511 149.547 41.7676C147.847 40.3487 145.875 39.2933 143.751 38.6666C142.693 38.3506 141.605 38.1418 140.505 38.0435C139.954 38.0435 139.404 38.0435 138.853 38.0435C138.434 38.0889 138.014 38.113 137.592 38.1159C137.238 38.0558 136.88 38.0171 136.52 38C136.064 38.0044 135.609 38.0383 135.158 38.1014C133.367 38.34 131.642 38.9363 130.086 39.8548C128.821 40.5926 127.694 41.5437 126.753 42.666C126.123 43.5309 125.42 44.3405 124.652 45.086C122.58 46.8394 119.624 46.8104 116.929 47.1437C113.808 47.4613 110.83 48.6125 108.307 50.4766C107.068 51.4264 106.041 52.6248 105.292 53.9948C104.544 55.3648 104.09 56.8762 103.959 58.432C104.087 59.8243 103.914 61.2278 103.452 62.5474C102.874 63.4634 102.044 64.1931 101.061 64.6485C98.7875 65.6813 96.572 66.8374 94.4244 68.1118C93.3559 68.7651 92.4717 69.6802 91.8555 70.7706C91.2394 71.8609 90.9116 73.0905 90.9032 74.3428C91.0771 76.444 92.5261 78.1829 93.8013 79.9073C95.0765 81.6317 96.1343 83.7618 95.4967 85.7761C94.9098 86.9788 94.2112 88.1238 93.4101 89.1959C92.6758 90.6774 92.5545 92.3885 93.0725 93.9588C93.5905 95.5291 94.7061 96.8322 96.1778 97.586C98.0471 98.4555 100.699 98.6873 101.235 100.673C101.311 101.819 101.148 102.969 100.757 104.049C100.177 107.454 103.452 110.57 106.886 111.033C108.814 111.309 110.987 111.033 112.538 112.207C113.857 113.222 114.277 115.018 115.204 116.41C116.139 117.784 117.556 118.756 119.175 119.134C119.957 119.322 120.783 119.206 121.551 119.409C122.352 119.498 123.162 119.414 123.928 119.163Z" fill="#263238"/>
<path d="M123.377 123.698C123.377 120.684 123 105.542 123 105.542C122.87 106.672 117.363 109.744 112.465 103.904C107.568 98.0643 107.249 91.8477 110.205 87.9642C113.465 83.617 121.986 83.7184 122.797 91.0942C127.029 90.9348 129.072 89.109 127.391 82.1389C127.768 78.0815 131.738 76.3426 132.868 69.8363C133.245 67.3588 134.456 65.0839 136.3 63.3872C138.144 61.6906 140.512 60.6736 143.012 60.5042C145.015 60.3459 147.029 60.6357 148.906 61.3526C150.783 62.0694 152.478 63.1953 153.866 64.6486C154.372 63.6588 155.093 62.7941 155.975 62.1174C156.857 61.4407 157.879 60.9688 158.966 60.7361C161.718 60.3695 164.506 61.0643 166.764 62.6792C169.023 64.294 170.581 66.7079 171.124 69.4305C172.606 76.4194 173.229 83.5631 172.979 90.703C172.385 106.773 168.066 114.526 162.922 117.221C159.459 119.018 156.343 119.438 150.33 118.931L150.591 123.974C150.707 126.51 150.475 128.321 152.938 129.205C154.576 129.756 158.488 130.509 158.488 130.509C158.488 130.509 164.212 140.392 148.446 141.276C123.319 142.725 113.248 131.002 113.248 131.002L118.812 129.292C122.913 127.988 123.348 126.727 123.377 123.698Z" fill="#FFBF9D"/>
<path d="M147.014 99.9959C147.343 100.58 147.85 101.044 148.462 101.32C149.007 101.571 149.578 101.763 150.165 101.89C150.734 102.02 151.318 102.07 151.9 102.04C152.226 102.024 152.55 101.983 152.87 101.918C153.143 101.838 153.402 101.718 153.64 101.562C153.783 101.48 154.051 100.948 153.736 100.902C153.439 100.83 153.137 100.785 152.832 100.77L152.033 100.727C151.47 100.674 150.91 100.593 150.356 100.483C149.815 100.372 149.29 100.197 148.791 99.9619C148.572 99.8568 148.347 99.7947 148.126 99.7039C147.905 99.6131 147.878 99.5946 147.751 99.5614C147.586 99.5229 147.419 99.4984 147.249 99.4883C147.045 99.4877 146.933 99.8522 147.014 99.9959Z" fill="#FF9A6C"/>
<path opacity="0.2" d="M147.014 99.9959C147.343 100.58 147.85 101.044 148.462 101.32C149.007 101.571 149.578 101.763 150.165 101.89C150.734 102.02 151.318 102.07 151.9 102.04C152.226 102.024 152.55 101.983 152.87 101.918C153.143 101.838 153.402 101.718 153.64 101.562C153.783 101.48 154.051 100.948 153.736 100.902C153.439 100.83 153.137 100.785 152.832 100.77L152.033 100.727C151.47 100.674 150.91 100.593 150.356 100.483C149.815 100.372 149.29 100.197 148.791 99.9619C148.572 99.8568 148.347 99.7947 148.126 99.7039C147.905 99.6131 147.878 99.5946 147.751 99.5614C147.586 99.5229 147.419 99.4984 147.249 99.4883C147.045 99.4877 146.933 99.8522 147.014 99.9959Z" fill="black"/>
<path d="M168.313 76.4584L161.995 73.937C162.138 73.5124 162.366 73.1217 162.666 72.789C162.966 72.4562 163.331 72.1885 163.738 72.0025C164.146 71.8164 164.587 71.7159 165.035 71.7072C165.483 71.6984 165.928 71.7817 166.342 71.9517C167.184 72.3088 167.858 72.9748 168.224 73.8129C168.591 74.651 168.622 75.5976 168.313 76.4584Z" fill="#263238"/>
<path d="M138.362 76.7271L145.072 75.1535C144.992 74.7123 144.822 74.2921 144.574 73.9185C144.326 73.5449 144.004 73.2258 143.628 72.9806C143.253 72.7354 142.831 72.5692 142.389 72.4923C141.947 72.4153 141.494 72.4291 141.058 72.5329C140.155 72.7507 139.371 73.3082 138.869 74.0894C138.367 74.8707 138.185 75.8154 138.362 76.7271Z" fill="#263238"/>
<path d="M161.415 82.5446C161.359 83.2998 161.6 84.0472 162.087 84.6267C162.575 85.2063 163.27 85.572 164.024 85.6456C164.39 85.6877 164.761 85.6557 165.115 85.5515C165.469 85.4474 165.798 85.2733 166.083 85.0394C166.368 84.8056 166.604 84.5169 166.775 84.1904C166.946 83.8639 167.051 83.5063 167.081 83.1387C167.138 82.3835 166.896 81.6362 166.409 81.0566C165.922 80.4771 165.227 80.1113 164.473 80.0377C164.106 79.9957 163.735 80.0277 163.382 80.1318C163.028 80.236 162.699 80.4101 162.413 80.6439C162.128 80.8777 161.893 81.1665 161.721 81.493C161.55 81.8195 161.446 82.1771 161.415 82.5446Z" fill="#263238"/>
<path d="M140.838 82.9357C140.782 83.6909 141.023 84.4383 141.51 85.0179C141.998 85.5974 142.693 85.9631 143.447 86.0368C143.812 86.0809 144.183 86.0508 144.537 85.9484C144.89 85.8459 145.22 85.6732 145.505 85.4406C145.791 85.2079 146.026 84.92 146.198 84.5942C146.37 84.2684 146.474 83.9113 146.504 83.5443C146.561 82.7891 146.32 82.0418 145.832 81.4622C145.345 80.8827 144.65 80.5169 143.896 80.4433C143.53 80.3992 143.16 80.4292 142.806 80.5317C142.452 80.6341 142.123 80.8068 141.837 81.0395C141.552 81.2722 141.316 81.5601 141.145 81.8859C140.973 82.2117 140.869 82.5687 140.838 82.9357Z" fill="#263238"/>
<path d="M163.98 92.4275L154.706 95.8183L152.243 79.7046C155.807 79.7915 160.386 85.414 163.98 92.4275Z" fill="#FF9A6C"/>
<path d="M150.33 118.902C139.534 117.786 129.202 114.236 126.797 109.309C127.23 112.401 128.776 115.23 131.144 117.265C138.389 123.293 150.562 122.713 150.562 122.713L150.33 118.902Z" fill="#FF9A6C"/>
<path d="M103.467 133.262C90.8017 135.146 84.933 138.175 77.9629 152.187C69.8481 168.504 56.7194 191.196 54.6907 198.282C52.7924 204.876 49.0249 209.585 56.2413 219.598C62.8346 228.771 83.5853 252.797 86.6719 256.318C89.3671 259.433 87.8746 268.374 78.6005 267.041C78.6005 267.041 85.6575 273.286 89.5266 272.591C92.8739 271.997 98.134 269.07 102.959 258.926C106.003 252.521 103.452 247.507 98.8296 240.378C93.2941 231.872 81.3393 208.15 81.3393 208.15L102.728 170.199C102.728 170.199 114.248 144.522 103.467 133.262Z" fill="#FFBF9D"/>
<path d="M4.3008 58.3499C9.7608 69.4299 22.6008 78.8199 45.0608 78.8399C55.0608 78.8399 63.1508 76.9599 69.5408 73.9099C73.8308 79.1899 82.5408 81.1499 88.8908 78.6899C89.0773 78.6162 89.2374 78.4881 89.3502 78.3222C89.4629 78.1564 89.5232 77.9604 89.5232 77.7599C89.5232 77.5593 89.4629 77.3634 89.3502 77.1976C89.2374 77.0317 89.0773 76.9036 88.8908 76.8299C82.4808 74.1499 80.6308 69.5999 80.1308 66.3899C82.4277 64.0341 84.344 61.3351 85.8108 58.3899C88.7563 52.574 90.0917 46.0758 89.6785 39.5696C89.2653 33.0635 87.1184 26.7864 83.4608 21.3899C76.2208 10.3399 60.3008 3.38989 45.0508 3.38989C29.8008 3.38989 13.8808 10.3299 6.64081 21.3899C2.99417 26.7837 0.854536 33.0537 0.443146 39.5516C0.0317559 46.0494 1.36354 52.5392 4.3008 58.3499Z" fill="white"/>
<path d="M82.9908 80.11C77.8408 80.11 72.5308 78 69.4408 74.37C62.6108 77.57 54.4408 79.2 45.1008 79.2H45.0308C18.1708 79.2 7.7808 66.2 3.9708 58.52C1.00273 52.6477 -0.342538 46.0891 0.074134 39.5225C0.490806 32.956 2.65429 26.62 6.3408 21.17C13.4608 10.3 29.0208 3 45.0608 3C61.1008 3 76.6608 10.29 83.7808 21.16C87.48 26.6053 89.6552 32.9411 90.0807 39.5103C90.5062 46.0795 89.1666 52.643 86.2008 58.52C84.74 61.4538 82.8454 64.1508 80.5808 66.52C81.1308 69.71 83.0708 73.97 89.0908 76.52C89.3447 76.625 89.5609 76.8044 89.7109 77.0347C89.8608 77.265 89.9375 77.5353 89.9308 77.81C89.9349 78.0818 89.8543 78.3482 89.7002 78.5722C89.5461 78.7962 89.3261 78.9666 89.0708 79.06C87.1269 79.7846 85.0651 80.1407 82.9908 80.11ZM69.6408 73.45L69.8208 73.68C73.9208 78.68 82.4108 80.81 88.7608 78.34C88.8765 78.2976 88.9756 78.2196 89.0439 78.1171C89.1123 78.0146 89.1462 77.8931 89.1408 77.77C89.148 77.6428 89.1153 77.5166 89.0471 77.409C88.979 77.3014 88.8789 77.2178 88.7608 77.17C82.3108 74.47 80.3108 69.85 79.7608 66.45V66.27L79.8908 66.14C82.1693 63.7823 84.0655 61.0831 85.5108 58.14C88.4152 52.3904 89.7324 45.9698 89.3263 39.541C88.9202 33.1123 86.8056 26.9084 83.2008 21.57C76.3208 11.08 60.6608 3.75 45.1008 3.75C29.5408 3.75 13.8808 11.08 7.00081 21.57C3.38355 26.9122 1.26014 33.1242 0.850478 39.5628C0.440813 46.0014 1.75979 52.4325 4.67081 58.19C8.40081 65.76 18.6108 78.45 45.1008 78.47C54.4508 78.47 62.6308 76.82 69.4208 73.58L69.6408 73.45Z" fill="#455A64"/>
<path d="M54.3608 48.6301C57.0208 51.5601 57.2608 55.1201 57.2608 59.3901H32.7908C32.7908 55.1201 33.0308 51.5601 35.6908 48.6301C38.3508 45.7001 40.4908 44.6901 41.5808 43.6301C41.9934 43.3565 42.3318 42.985 42.5659 42.5488C42.8 42.1125 42.9225 41.6252 42.9225 41.1301C42.9225 40.6351 42.8 40.1477 42.5659 39.7115C42.3318 39.2753 41.9934 38.9038 41.5808 38.6301C40.4908 37.5701 38.3408 36.5501 35.6908 33.6301C33.0408 30.7101 32.7908 27.1401 32.7908 22.8701H57.2608C57.2608 27.1401 57.0208 30.7101 54.3608 33.6301C51.7008 36.5501 49.5608 37.5701 48.4708 38.6301C48.0583 38.9038 47.7198 39.2753 47.4857 39.7115C47.2516 40.1477 47.1291 40.6351 47.1291 41.1301C47.1291 41.6252 47.2516 42.1125 47.4857 42.5488C47.7198 42.985 48.0583 43.3565 48.4708 43.6301C49.0608 44.2001 49.9708 44.7701 51.0908 45.6301C52.2695 46.5289 53.364 47.533 54.3608 48.6301Z" fill="#2DD4BF"/>
<path opacity="0.6" d="M54.3608 48.6301C57.0208 51.5601 57.2608 55.1201 57.2608 59.3901H32.7908C32.7908 55.1201 33.0308 51.5601 35.6908 48.6301C38.3508 45.7001 40.4908 44.6901 41.5808 43.6301C41.9934 43.3565 42.3318 42.985 42.5659 42.5488C42.8 42.1125 42.9225 41.6252 42.9225 41.1301C42.9225 40.6351 42.8 40.1477 42.5659 39.7115C42.3318 39.2753 41.9934 38.9038 41.5808 38.6301C40.4908 37.5701 38.3408 36.5501 35.6908 33.6301C33.0408 30.7101 32.7908 27.1401 32.7908 22.8701H57.2608C57.2608 27.1401 57.0208 30.7101 54.3608 33.6301C51.7008 36.5501 49.5608 37.5701 48.4708 38.6301C48.0583 38.9038 47.7198 39.2753 47.4857 39.7115C47.2516 40.1477 47.1291 40.6351 47.1291 41.1301C47.1291 41.6252 47.2516 42.1125 47.4857 42.5488C47.7198 42.985 48.0583 43.3565 48.4708 43.6301C49.0608 44.2001 49.9708 44.7701 51.0908 45.6301C52.2695 46.5289 53.364 47.533 54.3608 48.6301Z" fill="white"/>
<path opacity="0.5" d="M33.4808 58.89C33.4145 58.89 33.3509 58.8636 33.304 58.8167C33.2571 58.7699 33.2308 58.7063 33.2308 58.64C33.2308 55.05 33.4908 51.64 36.0208 48.8C37.3222 47.3755 38.7816 46.104 40.3708 45.01C40.9078 44.6493 41.4191 44.2517 41.9008 43.82C42.3484 43.5087 42.7141 43.0937 42.9667 42.6105C43.2192 42.1273 43.3511 41.5902 43.3511 41.045C43.3511 40.4997 43.2192 39.9626 42.9667 39.4794C42.7141 38.9962 42.3484 38.5812 41.9008 38.27C41.4207 37.8405 40.9129 37.443 40.3808 37.08C38.7886 35.982 37.326 34.7072 36.0208 33.28C33.4908 30.49 33.2608 27.04 33.2308 23.45C33.2308 23.3836 33.2571 23.3201 33.304 23.2732C33.3509 23.2263 33.4145 23.2 33.4808 23.2C33.5445 23.2 33.6055 23.2252 33.6505 23.2702C33.6955 23.3153 33.7208 23.3763 33.7208 23.44C33.7208 26.94 33.9708 30.29 36.3808 32.96C37.6617 34.3554 39.0977 35.6001 40.6608 36.67C41.2015 37.0517 41.716 37.4693 42.2008 37.92C42.6926 38.2792 43.0927 38.7495 43.3685 39.2925C43.6442 39.8355 43.788 40.4359 43.788 41.045C43.788 41.654 43.6442 42.2544 43.3685 42.7974C43.0927 43.3404 42.6926 43.8107 42.2008 44.17C41.7033 44.6192 41.1754 45.0335 40.6208 45.41C39.0555 46.4808 37.6192 47.729 36.3408 49.13C33.9308 51.79 33.7108 55.13 33.6808 58.64C33.682 58.6984 33.6626 58.7555 33.6261 58.8012C33.5895 58.8469 33.5381 58.8783 33.4808 58.89Z" fill="white"/>
<path d="M53.2808 49.55C55.2808 51.74 55.7008 54.55 55.7708 57.78H34.3508C34.4208 54.5 34.7708 51.72 36.8408 49.55C38.9108 47.38 41.4608 46.43 45.0608 46.43C46.5695 46.3783 48.0733 46.6276 49.4846 47.1633C50.8959 47.699 52.1864 48.5103 53.2808 49.55Z" fill="#FAFAFA"/>
<path d="M55.6708 26.3C55.5958 28.589 54.7542 30.7865 53.2808 32.54C52.0301 33.9051 50.6277 35.1229 49.1008 36.17C48.5214 36.5683 47.9701 37.006 47.4508 37.48C46.9262 37.9199 46.4975 38.4628 46.1913 39.0752C45.8851 39.6876 45.708 40.3563 45.6708 41.04C45.6708 42.24 45.4708 42.55 45.0608 42.55C44.6508 42.55 44.4508 42.27 44.4508 41.04C44.4137 40.3563 44.2365 39.6876 43.9303 39.0752C43.6241 38.4628 43.1954 37.9199 42.6708 37.48C42.1551 37.0059 41.6071 36.5682 41.0308 36.17C39.4986 35.1259 38.0926 33.9077 36.8408 32.54C36.3814 32.033 35.9852 31.4723 35.6608 30.87C35.6388 30.8259 35.6297 30.7765 35.6346 30.7275C35.6395 30.6785 35.6583 30.6319 35.6887 30.5931C35.719 30.5544 35.7598 30.525 35.8062 30.5085C35.8526 30.492 35.9028 30.4891 35.9508 30.5C37.8817 30.9603 39.8685 31.1421 41.8508 31.04C45.7908 30.8 47.5608 30.14 50.0308 28.04C51.5108 26.8 52.6308 25.04 53.6208 24.66C53.8669 24.524 54.1479 24.4642 54.428 24.488C54.7082 24.5119 54.975 24.6184 55.1945 24.7941C55.4141 24.9697 55.5765 25.2066 55.6613 25.4747C55.7461 25.7428 55.7494 26.03 55.6708 26.3Z" fill="#FAFAFA"/>
<path d="M45.0608 45.0301C45.464 45.0301 45.7908 44.7032 45.7908 44.3001C45.7908 43.8969 45.464 43.5701 45.0608 43.5701C44.6576 43.5701 44.3308 43.8969 44.3308 44.3001C44.3308 44.7032 44.6576 45.0301 45.0608 45.0301Z" fill="#FAFAFA"/>
<path opacity="0.3" d="M51.0908 45.6299C52.2695 46.5287 53.364 47.5328 54.3608 48.6299C57.0208 51.5599 57.2608 55.1199 57.2608 59.3899H35.6008C38.8708 59.3899 48.0208 57.8599 51.2908 54.6599C54.7508 51.2499 53.0508 48.3599 51.0908 45.6299Z" fill="#2DD4BF"/>
<path opacity="0.3" d="M57.2608 22.8999C57.2608 27.1699 57.0208 30.7399 54.3608 33.6599C51.7008 36.5799 49.5608 37.5999 48.4708 38.6599C48.0583 38.9336 47.7198 39.3051 47.4857 39.7413C47.2516 40.1775 47.1291 40.6648 47.1291 41.1599C47.1291 41.655 47.2516 42.1423 47.4857 42.5785C47.7198 43.0147 48.0583 43.3862 48.4708 43.6599C44.8808 41.4799 45.4708 39.2899 46.1308 37.8299C46.7908 36.3699 51.2708 33.6099 51.0208 29.5699C50.7708 25.5299 44.4808 22.9299 38.5008 22.9299L57.2608 22.8999Z" fill="#2DD4BF"/>
<path d="M59.4708 19.6201C59.4708 20.1956 59.2422 20.7476 58.8352 21.1545C58.4283 21.5615 57.8763 21.7901 57.3008 21.7901H32.8308C32.2553 21.7901 31.7033 21.5615 31.2964 21.1545C30.8894 20.7476 30.6608 20.1956 30.6608 19.6201H59.4708Z" fill="#2DD4BF"/>
<path opacity="0.2" d="M49.5708 19.6201C49.5682 20.1966 49.3373 20.7485 48.9288 21.1551C48.5202 21.5618 47.9673 21.7901 47.3908 21.7901H32.8308C32.2553 21.7901 31.7033 21.5615 31.2964 21.1545C30.8894 20.7476 30.6608 20.1956 30.6608 19.6201H49.5708Z" fill="white"/>
<path d="M61.2008 16.93V17.77C61.2008 18.2607 61.0059 18.7312 60.659 19.0782C60.312 19.4251 59.8414 19.62 59.3508 19.62H30.8008C30.3102 19.62 29.8396 19.4251 29.4927 19.0782C29.1457 18.7312 28.9508 18.2607 28.9508 17.77V16.93C28.9534 16.8283 28.9957 16.7317 29.0685 16.6607C29.1414 16.5897 29.2391 16.55 29.3408 16.55H60.7908C60.8432 16.5459 60.8958 16.5526 60.9454 16.5699C60.9951 16.5871 61.0406 16.6144 61.0791 16.6501C61.1176 16.6858 61.1483 16.7291 61.1693 16.7773C61.1902 16.8255 61.201 16.8775 61.2008 16.93Z" fill="#2DD4BF"/>
<path opacity="0.15" d="M61.1408 16.93V17.77C61.1408 18.2607 60.9459 18.7313 60.599 19.0782C60.252 19.4251 59.7815 19.62 59.2908 19.62H30.7708C30.2802 19.62 29.8096 19.4251 29.4627 19.0782C29.1157 18.7313 28.9208 18.2607 28.9208 17.77V16.93C28.9208 16.8293 28.9608 16.7326 29.0321 16.6613C29.1034 16.5901 29.2 16.55 29.3008 16.55H60.7508C60.8525 16.55 60.9502 16.5897 61.0231 16.6607C61.096 16.7317 61.1382 16.8284 61.1408 16.93Z" fill="black"/>
<path d="M52.9708 16.93V17.77C52.9708 18.2607 52.7759 18.7313 52.429 19.0782C52.082 19.4251 51.6115 19.62 51.1208 19.62H30.8008C30.3102 19.62 29.8396 19.4251 29.4927 19.0782C29.1457 18.7313 28.9508 18.2607 28.9508 17.77V16.93C28.9534 16.8284 28.9957 16.7317 29.0685 16.6607C29.1414 16.5897 29.2391 16.55 29.3408 16.55H52.5908C52.6916 16.55 52.7882 16.5901 52.8595 16.6613C52.9308 16.7326 52.9708 16.8293 52.9708 16.93Z" fill="#2DD4BF"/>
<path opacity="0.2" d="M33.8508 19.62C33.4921 19.1889 33.2957 18.6458 33.2957 18.085C33.2957 17.5242 33.4921 16.9812 33.8508 16.55H40.4008C40.7651 16.9786 40.9651 17.5226 40.9651 18.085C40.9651 18.6475 40.7651 19.1915 40.4008 19.62H33.8508Z" fill="white"/>
<path opacity="0.2" d="M34.9608 21.7901C34.72 21.4797 34.5893 21.098 34.5893 20.7051C34.5893 20.3122 34.72 19.9305 34.9608 19.6201H39.3008C39.5416 19.9305 39.6723 20.3122 39.6723 20.7051C39.6723 21.098 39.5416 21.4797 39.3008 21.7901H34.9608Z" fill="white"/>
<path d="M30.6608 62.46C30.6608 61.8845 30.8894 61.3326 31.2964 60.9256C31.7033 60.5187 32.2553 60.29 32.8308 60.29H57.3008C57.8763 60.29 58.4283 60.5187 58.8352 60.9256C59.2422 61.3326 59.4708 61.8845 59.4708 62.46H30.6608Z" fill="#2DD4BF"/>
<path opacity="0.2" d="M40.5608 62.46C40.5608 61.8845 40.7894 61.3326 41.1964 60.9256C41.6033 60.5187 42.1553 60.29 42.7308 60.29H57.3008C57.8763 60.29 58.4283 60.5187 58.8352 60.9256C59.2422 61.3326 59.4708 61.8845 59.4708 62.46H40.5608Z" fill="white"/>
<path d="M28.9508 65.15V64.31C28.9508 63.8193 29.1457 63.3488 29.4927 63.0018C29.8396 62.6549 30.3102 62.46 30.8008 62.46H59.3208C59.8115 62.46 60.282 62.6549 60.629 63.0018C60.9759 63.3488 61.1708 63.8193 61.1708 64.31V65.15C61.1721 65.2007 61.1633 65.2512 61.1448 65.2985C61.1263 65.3457 61.0985 65.3888 61.0631 65.4251C61.0277 65.4615 60.9853 65.4904 60.9386 65.5101C60.8918 65.5298 60.8416 65.54 60.7908 65.54H29.3408C29.2374 65.54 29.1382 65.4989 29.065 65.4257C28.9919 65.3526 28.9508 65.2534 28.9508 65.15Z" fill="#2DD4BF"/>
<path opacity="0.15" d="M28.9508 65.15V64.31C28.9508 63.8193 29.1457 63.3488 29.4927 63.0018C29.8396 62.6549 30.3102 62.46 30.8008 62.46H59.3208C59.8115 62.46 60.282 62.6549 60.629 63.0018C60.9759 63.3488 61.1708 63.8193 61.1708 64.31V65.15C61.1721 65.2007 61.1633 65.2512 61.1448 65.2985C61.1263 65.3457 61.0985 65.3888 61.0631 65.4251C61.0277 65.4615 60.9853 65.4904 60.9386 65.5101C60.8918 65.5298 60.8416 65.54 60.7908 65.54H29.3408C29.2374 65.54 29.1382 65.4989 29.065 65.4257C28.9919 65.3526 28.9508 65.2534 28.9508 65.15Z" fill="black"/>
<path d="M37.2008 65.15V64.31C37.2008 63.8193 37.3957 63.3488 37.7427 63.0018C38.0896 62.6549 38.5602 62.46 39.0508 62.46H59.3708C59.8614 62.46 60.332 62.6549 60.6789 63.0018C61.0259 63.3488 61.2208 63.8193 61.2208 64.31V65.15C61.2221 65.2007 61.2133 65.2512 61.1948 65.2985C61.1763 65.3457 61.1485 65.3888 61.1131 65.4251C61.0777 65.4615 61.0353 65.4904 60.9886 65.5101C60.9418 65.5298 60.8916 65.54 60.8408 65.54H37.5408C37.4453 65.5299 37.3572 65.4841 37.2942 65.4118C37.2311 65.3394 37.1977 65.2459 37.2008 65.15Z" fill="#2DD4BF"/>
<path opacity="0.2" d="M56.2708 62.46C56.634 62.8909 56.8331 63.4364 56.8331 64C56.8331 64.5635 56.634 65.109 56.2708 65.54H49.7208C49.3614 65.1073 49.1646 64.5625 49.1646 64C49.1646 63.4374 49.3614 62.8926 49.7208 62.46H56.2708Z" fill="white"/>
<path opacity="0.2" d="M55.2008 60.29C55.4416 60.6004 55.5724 60.9822 55.5724 61.375C55.5724 61.7679 55.4416 62.1496 55.2008 62.46H50.8508C50.6116 62.1489 50.4819 61.7675 50.4819 61.375C50.4819 60.9826 50.6116 60.6011 50.8508 60.29H55.2008Z" fill="white"/>
</g>
<defs>
<clipPath id="clip0_75_3026">
<rect width="295" height="229" fill="white"/>
</clipPath>
</defs>
</svg>
