<svg width="269" height="269" viewBox="0 0 269 269" fill="none" xmlns="http://www.w3.org/2000/svg">
<path d="M225.836 61.0898L224.68 59.1799C214.942 43.1314 197.328 33.4582 178.767 34.631C176.377 34.7803 174.001 35.1057 171.66 35.6048C154.777 39.2201 140.09 51.9869 134 68.3313C130.422 77.9454 129.421 89.0174 122.626 96.6516C113.782 106.583 98.7714 106.874 85.5689 106.481C72.3664 106.088 57.3508 106.422 48.5491 116.391C43.04 122.664 41.2861 131.525 41.7327 139.88C42.9055 162.024 58.3354 181.844 77.9562 191.662C97.5771 201.481 120.679 202.385 142.156 198.054C172.241 191.991 200.846 175.34 218.046 149.634C235.246 123.928 239.593 88.856 225.836 61.0898Z" fill="#F0FDFA"/>
<path d="M124.526 32.4522C125.02 32.3486 125.476 32.1126 125.846 31.7693C126.216 31.4261 126.486 30.9885 126.627 30.5037C126.767 30.0188 126.773 29.5049 126.643 29.0169C126.514 28.529 126.254 28.0855 125.892 27.7339C126.117 27.6149 126.316 27.4527 126.479 27.2566C126.641 27.0605 126.763 26.8343 126.838 26.591C126.913 26.3477 126.939 26.0921 126.916 25.8386C126.892 25.5852 126.818 25.3389 126.699 25.1139C126.58 24.8888 126.418 24.6895 126.222 24.5271C126.026 24.3648 125.799 24.2427 125.556 24.1677C125.313 24.0928 125.057 24.0665 124.804 24.0904C124.55 24.1143 124.304 24.1878 124.079 24.3069C124.13 23.8786 124.058 23.4447 123.87 23.0563C123.683 22.6679 123.388 22.3413 123.021 22.115C122.654 21.8887 122.23 21.7722 121.798 21.7793C121.367 21.7863 120.947 21.9167 120.587 22.1549C120.226 21.8512 119.792 21.6478 119.328 21.565C118.863 21.4822 118.385 21.5229 117.942 21.6832C117.498 21.8434 117.104 22.1175 116.8 22.4779C116.496 22.8383 116.292 23.2724 116.208 23.7366C115.981 23.3151 115.624 22.9777 115.19 22.774C114.757 22.5703 114.269 22.511 113.8 22.605C113.33 22.6989 112.903 22.9411 112.581 23.2958C112.259 23.6506 112.06 24.0993 112.012 24.5759C111.113 24.3123 110.048 24.0863 109.322 24.6781C108.595 25.2699 108.606 26.2329 108.628 27.1098C108.614 28.1489 108.715 29.1864 108.929 30.2034C109.32 31.7729 110.235 33.1621 111.522 34.1415C112.144 34.7915 112.959 35.2233 113.846 35.3726C114.733 35.5218 115.644 35.3807 116.445 34.97" fill="#263238"/>
<path d="M125.65 36.0459C125.94 35.8532 126.187 35.6013 126.373 35.3068C126.559 35.0123 126.681 34.6818 126.73 34.3369C126.78 33.992 126.756 33.6406 126.661 33.3055C126.565 32.9704 126.4 32.6593 126.176 32.3926C125.952 32.1258 125.674 31.9093 125.36 31.7573C125.047 31.6054 124.705 31.5213 124.356 31.5107C124.008 31.5 123.662 31.5631 123.339 31.6956C123.017 31.8282 122.727 32.0273 122.487 32.2799C122.218 32.5435 121.949 32.8879 121.583 32.9094C121.217 32.9309 120.937 32.6565 120.636 32.4575C120.248 32.2007 119.795 32.0602 119.33 32.0525C118.866 32.0448 118.408 32.1703 118.012 32.414C117.616 32.6578 117.298 33.0097 117.096 33.4283C116.894 33.8468 116.815 34.3145 116.87 34.7762C115.627 34.2382 113.905 34.3996 113.276 35.594C112.738 36.67 113.362 38.0527 114.395 38.666C115.481 39.204 116.717 39.3594 117.903 39.1071C120.758 38.6871 123.413 37.3942 125.505 35.4057" fill="#2DD4BF"/>
<path d="M117.919 36.0997C117.892 36.1696 117.483 36.0082 117.182 35.5886C116.881 35.169 116.87 34.7278 116.945 34.717C117.02 34.7063 117.15 35.0614 117.413 35.4218C117.677 35.7823 117.962 36.0459 117.919 36.0997Z" fill="white"/>
<path d="M122.33 35.7877C122.25 35.7877 122.33 35.1744 122.11 34.4696C121.889 33.7648 121.572 33.2699 121.652 33.2161C122.041 33.5 122.304 33.9248 122.384 34.3997C122.551 34.8512 122.531 35.3504 122.33 35.7877Z" fill="white"/>
<path d="M124.703 35.2067C124.622 35.2067 124.778 34.588 124.639 33.8671C124.499 33.1462 124.154 32.6458 124.219 32.592C124.581 32.9106 124.825 33.3415 124.913 33.8156C125.001 34.2898 124.927 34.7797 124.703 35.2067Z" fill="white"/>
<path d="M116.154 37.6168C116.154 37.6491 115.96 37.6491 115.686 37.5361C115.331 37.3771 115.028 37.122 114.81 36.7998C114.593 36.4775 114.469 36.1009 114.454 35.7123C114.454 35.4164 114.519 35.2389 114.551 35.2443C114.637 35.734 114.803 36.2064 115.041 36.6431C115.498 37.3263 116.208 37.5415 116.154 37.6168Z" fill="white"/>
<path d="M141.494 63.9521C142.407 63.6544 143.179 63.0306 143.661 62.1999C144.143 61.3692 144.303 60.3898 144.109 59.4491C144.635 59.0829 145.082 58.6127 145.42 58.0675C145.758 57.5222 145.981 56.9135 146.074 56.2788C146.168 55.6442 146.131 54.997 145.965 54.3773C145.799 53.7576 145.508 53.1785 145.109 52.6756C145.612 52.244 145.974 51.6712 146.147 51.0316C146.321 50.392 146.299 49.715 146.083 49.0884C145.867 48.4617 145.468 47.9142 144.938 47.5169C144.408 47.1195 143.77 46.8906 143.108 46.8599C143.389 46.1237 143.471 45.3264 143.345 44.5485C143.22 43.7706 142.891 43.0396 142.393 42.429C141.895 41.8185 141.245 41.3501 140.508 41.0711C139.771 40.792 138.974 40.7122 138.196 40.8396C138.319 40.0502 138.209 39.2419 137.879 38.5141C137.55 37.7864 137.014 37.1709 136.339 36.7434C135.664 36.3158 134.879 36.0949 134.08 36.1077C133.281 36.1205 132.503 36.3665 131.842 36.8154C129.83 34.0985 125.214 33.9317 123.019 36.5034C120.464 34.9432 116.66 36.1106 115.417 38.8329C113.749 37.2781 110.839 37.8322 109.322 39.5377C107.804 41.2431 107.444 43.6964 107.627 45.9937C107.022 46.2734 106.502 46.7086 106.121 47.2547C105.739 47.8009 105.509 48.4385 105.455 49.1026C105.4 49.7666 105.522 50.4333 105.809 51.0345C106.097 51.6358 106.538 52.1501 107.089 52.525C104.98 55.1451 105.55 59.4867 108.267 61.4666C108.081 62.9234 108.33 64.4026 108.982 65.7186C109.634 67.0346 110.66 68.1288 111.931 68.8641" fill="#263238"/>
<path d="M114.556 50.7925L113.604 48.1025L130.433 45.4125C135.608 45.0198 141.031 50.3567 141.193 55.5431C141.387 61.305 141.392 68.3475 140.585 72.6192C138.971 81.2272 132.31 82.1149 132.31 82.1149L131.772 95.6671L112.754 94.9085L114.556 50.7925Z" fill="#FFBE9D"/>
<path d="M138.078 61.1975C138.068 61.4799 137.952 61.7482 137.752 61.948C137.552 62.1478 137.284 62.2641 137.002 62.2735C136.718 62.2823 136.442 62.1786 136.235 61.9852C136.027 61.7917 135.905 61.5241 135.893 61.2406C135.901 60.9578 136.017 60.6888 136.217 60.4887C136.418 60.2887 136.687 60.1727 136.969 60.1646C137.253 60.1558 137.529 60.2595 137.736 60.4529C137.944 60.6464 138.066 60.914 138.078 61.1975Z" fill="#263238"/>
<path d="M139.272 59.1262C139.132 59.266 138.315 58.6204 137.12 58.5882C135.926 58.5559 135.038 59.1262 134.914 58.9755C134.855 58.9056 135 58.6527 135.388 58.3837C135.916 58.0434 136.535 57.8726 137.163 57.8941C137.782 57.9103 138.379 58.1233 138.869 58.5021C139.229 58.798 139.342 59.067 139.272 59.1262Z" fill="#263238"/>
<path d="M126.317 60.5733C126.309 60.8561 126.193 61.1251 125.993 61.3251C125.793 61.5252 125.524 61.6411 125.241 61.6493C124.958 61.658 124.684 61.5551 124.476 61.3628C124.269 61.1705 124.145 60.9043 124.133 60.6217C124.141 60.3389 124.257 60.0699 124.457 59.8698C124.657 59.6698 124.926 59.5538 125.209 59.5457C125.492 59.5369 125.766 59.6398 125.974 59.8321C126.181 60.0244 126.304 60.2907 126.317 60.5733Z" fill="#263238"/>
<path d="M127.296 58.9809C127.156 59.1207 126.333 58.4751 125.144 58.4429C123.955 58.4106 123.062 58.9809 122.938 58.8302C122.874 58.7657 123.019 58.5074 123.412 58.2438C123.937 57.901 124.555 57.73 125.182 57.7542C125.802 57.7704 126.401 57.9833 126.893 58.3622C127.248 58.6419 127.366 58.9163 127.296 58.9809Z" fill="#263238"/>
<path d="M131.622 67.9656C132.256 67.7873 132.91 67.6897 133.569 67.6751C133.871 67.6751 134.161 67.5998 134.22 67.3953C134.251 67.0814 134.19 66.7653 134.043 66.4861L133.209 64.1458C132.058 60.8102 131.234 58.0718 131.369 58.0234C131.503 57.9749 132.547 60.6488 133.698 63.979L134.5 66.3355C134.68 66.7089 134.721 67.1338 134.618 67.5352C134.569 67.6441 134.494 67.7397 134.401 67.8145C134.307 67.8892 134.198 67.941 134.08 67.9656C133.904 68.0069 133.723 68.025 133.542 68.0194C132.903 68.0835 132.257 68.0654 131.622 67.9656Z" fill="#263238"/>
<path d="M132.348 82.1095C128.187 82.0518 124.121 80.8595 120.587 78.6609C120.587 78.6609 123.326 84.7887 132.284 84.2615L132.348 82.1095Z" fill="#EB996E"/>
<path d="M126.882 52.7238C126.817 53.0628 125.618 53.1004 124.267 53.4932C122.917 53.8859 121.857 54.44 121.626 54.1818C121.523 54.0581 121.669 53.7245 122.067 53.3425C122.532 52.769 123.205 52.4033 123.939 52.3257C124.638 52.1218 125.377 52.0904 126.091 52.2342C126.613 52.358 126.909 52.5678 126.882 52.7238Z" fill="#263238"/>
<path d="M139.245 55.3764C139.014 55.6292 138.218 55.2849 137.233 55.1988C136.248 55.1128 135.404 55.2365 135.232 54.9406C135.162 54.7954 135.312 54.5371 135.694 54.3111C136.204 54.0309 136.79 53.9198 137.368 53.9937C137.944 54.0506 138.489 54.2835 138.928 54.6608C139.256 54.9675 139.342 55.2526 139.245 55.3764Z" fill="#263238"/>
<path d="M123.164 45.2457C123.336 45.9445 123.684 46.5874 124.176 47.1125C124.428 47.3657 124.766 47.5171 125.123 47.5379C125.48 47.5588 125.832 47.4476 126.113 47.2255C126.307 47.4344 126.546 47.5973 126.812 47.7021C127.078 47.807 127.364 47.8512 127.649 47.8317C127.934 47.8121 128.211 47.7291 128.46 47.5889C128.709 47.4487 128.923 47.2547 129.088 47.0211C129.507 47.4114 130.044 47.6532 130.614 47.7096C131.185 47.766 131.758 47.6337 132.246 47.3331L134.817 47.8711C135.748 48.0756 136.91 48.1993 137.48 47.4353C137.615 47.2632 137.712 47.0372 137.911 46.9458C138.128 46.8867 138.356 46.8867 138.573 46.9458C138.945 46.9685 139.317 46.8972 139.655 46.7383C139.992 46.5794 140.284 46.338 140.504 46.0365C140.935 45.4288 141.259 44.7519 141.462 44.0352C141.838 42.9592 142.134 41.5604 141.252 40.8072C140.884 40.5483 140.46 40.3805 140.014 40.3176C139.142 40.0633 138.226 39.9937 137.324 40.1132C136.225 40.4188 135.271 41.1077 134.634 42.0553C134.727 41.7598 134.701 41.4402 134.564 41.1628C134.427 40.8853 134.188 40.6713 133.897 40.5651C133.299 40.3787 132.651 40.4367 132.095 40.7265C131.261 41.1087 130.556 41.7256 130.067 42.5019C129.344 42.5017 128.635 42.703 128.021 43.0831C127.406 43.4632 126.909 44.0072 126.586 44.6539C126.263 44.4405 125.9 44.2952 125.519 44.2267C125.138 44.1583 124.747 44.1682 124.369 44.2558C124.236 44.2772 124.108 44.3254 123.993 44.3975C123.878 44.4696 123.78 44.5641 123.702 44.6754C123.668 44.7321 123.647 44.7956 123.64 44.8614C123.633 44.9273 123.64 44.9939 123.662 45.0565C123.683 45.1191 123.718 45.1762 123.764 45.2238C123.81 45.2713 123.866 45.3082 123.928 45.3318" fill="#263238"/>
<path d="M131.493 45.7622C131.266 46.3396 131.233 46.9752 131.401 47.5727C131.568 48.1701 131.925 48.6967 132.418 49.0727C132.912 49.4487 133.514 49.6535 134.135 49.6561C134.755 49.6587 135.359 49.4589 135.856 49.0871C136.066 49.6734 136.478 50.1658 137.018 50.4763C137.559 50.7867 138.191 50.895 138.804 50.7818C138.798 51.5199 138.99 52.2461 139.361 52.8841C139.732 53.5222 140.268 54.0485 140.913 54.4079C140.597 55.1578 140.576 55.9995 140.854 56.7643C140.932 57.0112 141.058 57.2401 141.225 57.4378C141.392 57.6354 141.597 57.7979 141.828 57.9157C142.116 58.0179 142.423 58.0596 142.728 58.0383C143.034 58.0171 143.331 57.9332 143.603 57.7919C144.01 57.6379 144.381 57.4024 144.694 57.0999C145.006 56.7974 145.254 56.4342 145.421 56.0327C145.572 55.624 145.573 55.175 145.423 54.7659C145.273 54.3568 144.983 54.0144 144.604 53.8C145.356 53.1149 145.948 52.2715 146.336 51.3305C146.469 51.0729 146.55 50.7915 146.574 50.5025C146.598 50.2135 146.565 49.9227 146.476 49.6466C146.425 49.5137 146.344 49.3937 146.241 49.2952C146.138 49.1968 146.015 49.1223 145.88 49.0771C145.745 49.0319 145.601 49.017 145.46 49.0336C145.318 49.0502 145.182 49.0979 145.061 49.1732C145.287 48.7522 145.39 48.2759 145.358 47.799C145.326 47.3221 145.16 46.864 144.879 46.4774C144.598 46.0907 144.213 45.7912 143.77 45.6133C143.326 45.4354 142.841 45.3863 142.371 45.4717C142.365 45.0694 142.243 44.6774 142.022 44.3417C141.8 44.006 141.487 43.7409 141.119 43.5774C140.751 43.4139 140.345 43.3591 139.947 43.4192C139.549 43.4794 139.177 43.6521 138.874 43.9169" fill="#263238"/>
<path d="M121.174 44.7937C121.254 43.7177 120.254 42.8623 119.215 42.717C118.161 42.6548 117.113 42.9077 116.203 43.4433C115.709 42.8723 115.053 42.4661 114.322 42.2795C113.591 42.0928 112.82 42.1348 112.114 42.3996C110.72 42.9376 109.827 44.288 108.676 45.251C108.015 45.6939 107.429 46.2386 106.938 46.865C106.519 47.5375 106.529 48.5812 107.213 48.9847C106.757 49.1441 106.352 49.4232 106.041 49.793C105.73 50.1627 105.524 50.6094 105.446 51.086C105.367 51.5627 105.418 52.0517 105.594 52.5018C105.769 52.9519 106.063 53.3464 106.443 53.6438C106.685 53.8321 106.981 53.9989 107.078 54.2894C107.133 54.5421 107.107 54.8059 107.003 55.0426C106.594 56.1993 105.959 57.2807 105.712 58.4804C105.464 59.6802 105.712 61.1166 106.75 61.7891C107.019 61.9667 107.352 62.1066 107.476 62.4078C107.544 62.6104 107.544 62.8293 107.476 63.0319C107.243 63.6933 106.952 64.3325 106.605 64.9418C106.256 65.5551 106.142 66.2736 106.282 66.9647C106.369 67.3057 106.588 67.5982 106.891 67.7786C107.193 67.959 107.554 68.0126 107.896 67.9277C107.439 69.2512 107.471 70.8275 108.326 71.9304C109.182 73.0333 112.022 73.5444 113.706 72.5115L113.862 68.5572C113.636 67.8632 114.718 64.1563 114.271 63.4031C114.271 63.4031 113.082 65.9748 115.756 65.5551C116.622 65.7919 118.29 63.2417 118.408 62.3271C118.437 61.8761 118.337 61.4263 118.121 61.0294C117.905 60.6325 117.581 60.3047 117.187 60.0837C117.93 59.4922 118.442 58.6585 118.632 57.7283C118.823 56.798 118.681 55.8304 118.231 54.9942C118.72 54.9396 119.175 54.7191 119.521 54.3695C119.867 54.0199 120.083 53.5623 120.133 53.0729C120.182 52.5835 120.063 52.0919 119.794 51.6799C119.526 51.2679 119.124 50.9604 118.656 50.8086C119.255 50.6321 119.811 50.3315 120.286 49.9262C120.761 49.5209 121.146 49.02 121.415 48.4561C121.684 47.8923 121.831 47.2781 121.847 46.6536C121.863 46.029 121.747 45.4082 121.507 44.8314" fill="#263238"/>
<path d="M108.262 45.5739C108.262 45.5739 108.133 45.6493 107.966 45.8698C107.665 46.3041 107.522 46.8283 107.562 47.3551C107.601 47.8819 107.819 48.3793 108.181 48.7643C108.483 49.067 108.859 49.2858 109.271 49.399C109.683 49.5122 110.118 49.516 110.532 49.4099L110.317 49.1947C110.262 49.4211 110.252 49.6564 110.29 49.8865C110.328 50.1165 110.411 50.3367 110.535 50.5338C110.66 50.731 110.822 50.9011 111.014 51.0341C111.205 51.167 111.422 51.2601 111.65 51.3078C111.878 51.3554 112.113 51.3567 112.342 51.3115C112.571 51.2663 112.788 51.1755 112.981 51.0446C113.174 50.9137 113.338 50.7454 113.465 50.5495C113.591 50.3537 113.677 50.1345 113.717 49.9048H113.314C113.374 50.1884 113.503 50.4526 113.691 50.6733C113.879 50.8941 114.119 51.0645 114.39 51.1691C114.742 51.3123 115.132 51.3331 115.498 51.2283C115.856 51.1204 116.163 50.8875 116.364 50.572C116.557 50.2809 116.66 49.9394 116.66 49.5901C116.66 49.2408 116.557 48.8993 116.364 48.6083L116.111 48.8934C116.638 49.177 117.217 49.3496 117.813 49.4005C118.409 49.4513 119.009 49.3795 119.576 49.1893C120.306 48.9336 120.951 48.4813 121.44 47.8823C121.928 47.2832 122.242 46.5607 122.347 45.7945C122.391 45.5834 122.391 45.3654 122.347 45.1543C122.238 45.9361 121.957 46.684 121.523 47.344C121.024 48.0634 120.302 48.5985 119.468 48.8665C118.945 49.0278 118.394 49.0828 117.849 49.0283C117.304 48.9738 116.775 48.8108 116.294 48.5491L115.514 48.1133L116.052 48.8342C116.198 49.0592 116.276 49.3218 116.276 49.5901C116.276 49.8584 116.198 50.121 116.052 50.346C115.901 50.5836 115.669 50.7589 115.4 50.8399C115.13 50.9209 114.84 50.9022 114.583 50.7872C114.376 50.7098 114.191 50.5824 114.044 50.4163C113.898 50.2501 113.795 50.0504 113.744 49.8349L113.518 48.619L113.335 49.8457C113.295 50.0309 113.217 50.2062 113.108 50.3612C112.999 50.5162 112.86 50.6477 112.699 50.748C112.538 50.8483 112.358 50.9153 112.171 50.9451C111.984 50.975 111.792 50.967 111.608 50.9217C111.278 50.8053 111.001 50.5733 110.829 50.2687C110.657 49.964 110.601 49.6073 110.672 49.2646L110.753 48.9633L110.457 49.0494C110.1 49.1493 109.723 49.1553 109.363 49.0667C109.003 48.9781 108.672 48.7979 108.402 48.5437C108.195 48.3424 108.033 48.1 107.927 47.8321C107.82 47.5642 107.771 47.2769 107.783 46.9889C107.811 46.4824 107.976 45.9931 108.262 45.5739Z" fill="#455A64"/>
<path d="M140.418 40.8179C140.486 40.9756 140.517 41.1467 140.509 41.3183C140.502 41.4119 140.473 41.5024 140.424 41.5827C140.376 41.6631 140.309 41.731 140.23 41.7809C140.127 41.8472 140.007 41.8824 139.885 41.8824C139.763 41.8824 139.644 41.8472 139.541 41.7809L139.191 41.5388L139.363 41.9316C139.482 42.2456 139.505 42.5875 139.43 42.9147C139.356 43.2418 139.187 43.5398 138.944 43.7715C138.628 44.0439 138.22 44.1836 137.804 44.1616C137.388 44.1395 136.996 43.9573 136.711 43.6532L136.507 43.4326L136.388 43.707C136.188 44.1685 135.875 44.5724 135.478 44.8815C135.081 45.1906 134.613 45.3949 134.117 45.4758C133.62 45.5567 133.111 45.5115 132.637 45.3444C132.162 45.1773 131.737 44.8936 131.401 44.5194L131.277 44.3741L131.127 44.4978C130.418 45.0942 129.561 45.4866 128.646 45.633C127.933 45.7591 127.202 45.7427 126.495 45.5846C125.856 45.414 125.239 45.1722 124.655 44.8637C124.655 44.8637 124.778 45.0089 125.063 45.208C125.484 45.4833 125.945 45.6903 126.43 45.8213C127.175 46.0286 127.956 46.0781 128.722 45.9666C129.709 45.8324 130.64 45.4284 131.412 44.7991H131.143C131.519 45.2289 131.998 45.5559 132.535 45.7494C133.072 45.9428 133.649 45.9963 134.213 45.9048C134.777 45.8133 135.308 45.5798 135.756 45.2264C136.204 44.8729 136.555 44.4111 136.776 43.8845L136.453 43.9383C136.759 44.2788 137.178 44.4982 137.632 44.5567C138.086 44.6151 138.547 44.5088 138.929 44.2569C139.312 44.0051 139.592 43.6244 139.718 43.1839C139.844 42.7435 139.808 42.2724 139.616 41.8563L139.439 42.0069C139.581 42.0918 139.745 42.133 139.911 42.1253C140.076 42.1177 140.236 42.0615 140.37 41.9639C140.465 41.8915 140.542 41.7979 140.596 41.6906C140.649 41.5832 140.676 41.465 140.676 41.3452C140.649 40.9363 140.418 40.8018 140.418 40.8179Z" fill="#455A64"/>
<path d="M125.246 35.6479C125.246 35.6801 125.429 35.5725 125.747 35.5564C125.967 35.5479 126.186 35.5862 126.39 35.6687C126.594 35.7513 126.778 35.8762 126.93 36.0352C127.139 36.2849 127.284 36.5807 127.354 36.8981C127.424 37.2154 127.417 37.5449 127.334 37.859C127.101 38.6539 126.672 39.3773 126.086 39.9626L126.382 40.2478C126.586 40.0379 127.065 40.2478 127.194 40.506C127.262 40.678 127.294 40.8619 127.29 41.0467C127.285 41.2315 127.243 41.4136 127.167 41.582C126.931 42.2178 126.565 42.797 126.091 43.2821C125.619 43.7133 125.108 44.0988 124.563 44.4334C124.563 44.4334 124.762 44.4334 125.101 44.2881C125.547 44.0912 125.958 43.8222 126.317 43.4919C126.859 42.9995 127.282 42.3906 127.555 41.7111C127.654 41.4978 127.708 41.2663 127.713 41.0312C127.719 40.7961 127.676 40.5624 127.587 40.3446C127.459 40.0927 127.236 39.9014 126.968 39.812C126.828 39.7568 126.675 39.7406 126.526 39.7652C126.378 39.7899 126.238 39.8544 126.123 39.9519L126.419 40.237C127.056 39.599 127.509 38.8019 127.732 37.929C127.819 37.5586 127.813 37.1723 127.713 36.8051C127.613 36.4378 127.424 36.1011 127.162 35.8254C126.975 35.6507 126.751 35.5215 126.507 35.4477C126.262 35.374 126.004 35.3578 125.752 35.4004C125.354 35.4703 125.236 35.6317 125.246 35.6479Z" fill="#455A64"/>
<path d="M111.162 38.7736C111.647 38.5795 112.158 38.4563 112.679 38.4078C113.253 38.3854 113.823 38.5212 114.325 38.8005C114.958 39.1637 115.446 39.7336 115.708 40.4145L115.842 40.7642L116.052 40.4522C116.269 40.1429 116.578 39.9097 116.935 39.7855C117.292 39.6613 117.678 39.6524 118.041 39.76C118.403 39.8677 118.722 40.0864 118.953 40.3854C119.184 40.6843 119.316 41.0483 119.328 41.426V41.6681L119.565 41.6143C119.914 41.5439 120.274 41.5498 120.62 41.6315C120.967 41.7132 121.291 41.8688 121.572 42.0877C122.021 42.4413 122.327 42.946 122.433 43.508C122.509 44.0238 122.476 44.5499 122.336 45.0521C122.336 45.0521 122.449 44.9391 122.551 44.6755C122.692 44.2886 122.735 43.8725 122.675 43.465C122.585 42.8355 122.268 42.261 121.782 41.851C121.465 41.5886 121.095 41.3995 120.697 41.2972C120.299 41.1949 119.883 41.1819 119.479 41.2592L119.716 41.4475C119.712 40.9815 119.558 40.5291 119.278 40.1567C118.998 39.7843 118.606 39.5116 118.159 39.3786C117.712 39.2456 117.235 39.2592 116.797 39.4176C116.358 39.576 115.982 39.8707 115.724 40.2585L116.068 40.3015C115.757 39.5456 115.184 38.9269 114.454 38.5584C113.895 38.2686 113.262 38.1489 112.636 38.2141C112.231 38.2529 111.838 38.3718 111.479 38.5638C111.264 38.6499 111.151 38.736 111.162 38.7736Z" fill="#455A64"/>
<path d="M111.231 25.0815C111.443 24.811 111.714 24.5921 112.022 24.4413C112.378 24.2812 112.782 24.2677 113.147 24.4037C113.38 24.4926 113.587 24.6372 113.751 24.8247C113.915 25.0123 114.031 25.2371 114.088 25.4797L114.266 26.2867L114.4 25.4689C114.48 25.061 114.674 24.6841 114.96 24.3822C115.246 24.0803 115.611 23.8657 116.014 23.7634C116.485 23.6692 116.974 23.7351 117.403 23.9505C117.831 24.166 118.176 24.5186 118.382 24.9524L118.462 25.1353L118.651 25.0546C118.898 24.9486 119.166 24.8972 119.436 24.904C119.897 24.8954 120.348 25.0403 120.718 25.3158C121.088 25.5914 121.356 25.9821 121.48 26.4265C121.576 26.8267 121.559 27.2456 121.429 27.6363C121.3 28.0269 121.064 28.3737 120.749 28.6377L120.254 29.0089L120.867 28.9498C121.176 28.9267 121.486 28.9893 121.762 29.1307C122.039 29.2722 122.27 29.4869 122.433 29.7514C122.556 29.9599 122.63 30.194 122.649 30.4356C122.667 30.6772 122.63 30.9198 122.54 31.1448C122.369 31.5501 122.083 31.8962 121.717 32.1401C121.717 32.1401 121.852 32.1401 122.056 32.0056C122.352 31.8097 122.584 31.5309 122.723 31.204C122.843 30.95 122.9 30.6711 122.891 30.3905C122.882 30.1098 122.806 29.8355 122.669 29.59C122.489 29.2661 122.22 29.0001 121.894 28.823C121.569 28.6458 121.199 28.5648 120.829 28.5893L120.953 28.9013C121.332 28.6 121.618 28.1976 121.778 27.7406C121.938 27.2837 121.965 26.7908 121.857 26.3189C121.714 25.788 121.398 25.3197 120.96 24.9877C120.522 24.6556 119.986 24.4785 119.436 24.4844C119.111 24.4828 118.789 24.5468 118.489 24.6727L118.758 24.7803C118.543 24.2943 118.175 23.8913 117.711 23.6322C117.247 23.373 116.711 23.2716 116.185 23.3432C115.658 23.4148 115.169 23.6555 114.791 24.0292C114.413 24.4029 114.166 24.8892 114.088 25.4151H114.406C114.33 25.1273 114.183 24.8629 113.979 24.6459C113.775 24.4289 113.521 24.2662 113.238 24.1723C113.027 24.1048 112.805 24.08 112.584 24.0994C112.363 24.1188 112.148 24.182 111.952 24.2853C111.709 24.4107 111.502 24.5958 111.35 24.8233C111.242 24.9793 111.221 25.0762 111.231 25.0815Z" fill="#455A64"/>
<path d="M99.1802 28.0406C99.5471 27.7939 99.981 27.6661 100.423 27.6747C100.671 27.6803 100.914 27.7441 101.133 27.8609C101.351 27.9777 101.539 28.1443 101.682 28.3472C101.855 28.61 101.951 28.9156 101.961 29.23C101.97 29.5444 101.892 29.8553 101.736 30.128L101.036 31.2524L101.989 30.3271C102.258 30.0898 102.6 29.9494 102.958 29.9279C103.317 29.9065 103.672 30.0053 103.968 30.2087C104.281 30.4641 104.484 30.8301 104.534 31.2309C104.584 31.6316 104.478 32.0362 104.237 32.3607L104.576 32.5759C104.672 32.3756 104.806 32.1962 104.971 32.0477C105.137 31.8993 105.329 31.7849 105.539 31.7109C105.748 31.637 105.97 31.605 106.191 31.6168C106.413 31.6286 106.63 31.684 106.831 31.7797C107.031 31.8754 107.21 32.0097 107.359 32.1748C107.507 32.3399 107.622 32.5326 107.696 32.7419C107.769 32.9512 107.801 33.1731 107.79 33.3947C107.778 33.6164 107.723 33.8336 107.627 34.0339L107.939 33.9693C107.834 33.8473 107.776 33.6918 107.776 33.5309C107.776 33.37 107.834 33.2144 107.939 33.0924C108.05 32.9724 108.193 32.8857 108.35 32.842C108.508 32.7983 108.675 32.7993 108.832 32.8449C109.145 32.9564 109.423 33.15 109.636 33.4055C109.849 33.6611 109.989 33.9691 110.042 34.2975L110.354 34.1899C110.299 34.0402 110.288 33.8776 110.324 33.7219C110.359 33.5662 110.439 33.4241 110.554 33.313C110.654 33.2021 110.778 33.1154 110.917 33.0595C111.056 33.0036 111.206 32.9799 111.355 32.9902C111.613 33.0127 111.864 33.0867 112.094 33.2077C112.323 33.3287 112.525 33.4944 112.689 33.695C113.227 34.3782 113.448 34.8732 113.496 34.8409C113.473 34.718 113.429 34.5999 113.367 34.4912C113.225 34.1658 113.045 33.8587 112.829 33.5766C112.656 33.3441 112.437 33.1499 112.185 33.0064C111.933 32.8629 111.654 32.7731 111.366 32.7427C111.175 32.7269 110.983 32.7534 110.803 32.8204C110.624 32.8874 110.461 32.9931 110.328 33.1301C110.167 33.2833 110.055 33.4801 110.006 33.6961C109.956 33.9122 109.971 34.1381 110.048 34.3459L110.354 34.233C110.273 33.8692 110.123 33.5242 109.913 33.2161C109.678 32.8646 109.322 32.6118 108.913 32.506C108.686 32.4392 108.445 32.4386 108.218 32.5044C107.991 32.5702 107.788 32.6996 107.632 32.8772C107.466 33.0777 107.379 33.3316 107.386 33.5917C107.393 33.8519 107.494 34.1007 107.67 34.2921L107.869 34.4804L107.987 34.2276C108.187 33.7342 108.191 33.1832 107.999 32.6868C107.807 32.1904 107.433 31.7859 106.953 31.5555C106.473 31.3252 105.924 31.2864 105.416 31.4469C104.909 31.6075 104.481 31.9554 104.221 32.4199L104.56 32.6351C104.852 32.2588 104.991 31.7857 104.948 31.3113C104.905 30.8368 104.684 30.3962 104.329 30.0783C103.975 29.7604 103.512 29.5887 103.036 29.598C102.56 29.6072 102.105 29.7966 101.763 30.128L102.015 30.3271C102.201 29.999 102.287 29.6243 102.264 29.2481C102.241 28.872 102.11 28.5106 101.886 28.2074C101.603 27.846 101.195 27.6037 100.742 27.5281C100.289 27.4524 99.8239 27.5489 99.4385 27.7985C99.2448 27.9276 99.1748 28.0298 99.1802 28.0406Z" fill="#263238"/>
<path d="M147.412 69.6709C147.412 69.6709 147.283 69.6709 147.078 69.5794C146.936 69.5158 146.808 69.4238 146.703 69.3091C146.598 69.1944 146.517 69.0593 146.465 68.9123C146.373 68.6888 146.338 68.4457 146.363 68.2052C146.388 67.9647 146.473 67.7343 146.61 67.535C146.998 67.0072 147.491 66.5657 148.058 66.2384L147.858 65.9587C147.474 66.211 147.026 66.3508 146.566 66.3622C146.106 66.3736 145.652 66.2562 145.255 66.0232C144.809 65.7542 144.471 65.3388 144.299 64.848C144.126 64.3573 144.129 63.8219 144.308 63.3332C144.418 62.9945 144.602 62.6841 144.846 62.424C145.046 62.1793 145.326 62.0134 145.637 61.956C145.868 61.956 146.04 62.2572 146.024 62.5316C146.015 62.6674 145.964 62.7971 145.88 62.9037C145.795 63.0104 145.681 63.0888 145.55 63.1288C145.27 63.2111 144.975 63.234 144.685 63.196C144.395 63.158 144.116 63.06 143.867 62.9082C143.393 62.6593 142.996 62.2877 142.715 61.8322C142.311 61.1646 142.177 60.3682 142.339 59.6049C142.452 59.0669 142.629 58.7871 142.591 58.771C142.387 58.9933 142.246 59.2664 142.183 59.5619C142.065 59.9638 142.03 60.3854 142.079 60.8014C142.128 61.2174 142.26 61.6192 142.468 61.9829C142.761 62.4908 143.187 62.9093 143.7 63.1934C143.993 63.378 144.322 63.4979 144.665 63.5452C145.009 63.5926 145.358 63.5661 145.69 63.4677C145.879 63.3969 146.047 63.2804 146.18 63.1288C146.325 62.9629 146.409 62.752 146.417 62.5316C146.43 62.3126 146.375 62.0948 146.261 61.9075C146.198 61.8016 146.11 61.7126 146.005 61.6479C145.9 61.5833 145.781 61.545 145.658 61.5363C145.431 61.5381 145.21 61.6074 145.023 61.7354C144.85 61.8467 144.691 61.9786 144.55 62.1281C144.265 62.4365 144.052 62.8039 143.926 63.2041C143.729 63.7962 143.729 64.4359 143.926 65.0279C144.127 65.5943 144.529 66.0672 145.056 66.3568C145.517 66.6218 146.044 66.7504 146.575 66.7275C147.107 66.7046 147.621 66.5313 148.058 66.2277L147.858 65.9533C147.261 66.3158 146.752 66.8064 146.368 67.3898C146.217 67.6291 146.13 67.903 146.115 68.1855C146.1 68.4681 146.158 68.7498 146.282 69.0038C146.351 69.167 146.454 69.3133 146.585 69.4323C146.716 69.5513 146.872 69.6401 147.041 69.6924C147.283 69.7354 147.412 69.6816 147.412 69.6709Z" fill="#263238"/>
<path d="M124.16 30.5422C124.16 30.5422 124.235 30.6229 124.407 30.7305C124.654 30.8878 124.915 31.0212 125.187 31.1286C125.63 31.3276 126.126 31.3712 126.597 31.2524C126.895 31.1629 127.163 30.9936 127.371 30.7628C127.496 30.6287 127.587 30.4676 127.639 30.292C127.69 30.1164 127.7 29.9313 127.667 29.7513L127.458 29.9289C127.638 30.0025 127.83 30.0397 128.025 30.0382C128.219 30.0367 128.412 29.9965 128.591 29.9201C128.769 29.8437 128.931 29.7325 129.067 29.593C129.202 29.4535 129.309 29.2885 129.38 29.1075C129.451 28.9265 129.486 28.7332 129.482 28.5387C129.478 28.3443 129.435 28.1525 129.356 27.9747C129.278 27.7968 129.164 27.6364 129.023 27.5027C128.882 27.369 128.715 27.2647 128.534 27.1958L128.453 27.5724C128.85 27.5858 129.238 27.4521 129.543 27.197C129.848 26.9418 130.048 26.5832 130.104 26.1898C130.155 25.7756 130.061 25.3567 129.837 25.0045C129.613 24.6522 129.274 24.3885 128.878 24.2584C128.554 24.1342 128.205 24.0917 127.861 24.1346L127.974 24.522C128.243 24.3992 128.48 24.2166 128.668 23.9883C128.855 23.7599 128.988 23.4917 129.057 23.2041C129.125 22.9165 129.127 22.6171 129.062 22.3287C128.997 22.0404 128.867 21.7706 128.682 21.54C128.497 21.3095 128.262 21.1242 127.995 20.9982C127.727 20.8723 127.435 20.8091 127.139 20.8134C126.843 20.8177 126.553 20.8893 126.289 21.023C126.025 21.1566 125.796 21.3487 125.618 21.5845H125.887C125.621 21.2732 125.274 21.0419 124.884 20.9164C124.495 20.791 124.078 20.7764 123.681 20.8743C123.194 21.0093 122.774 21.3172 122.499 21.7402C122.223 22.1632 122.112 22.6722 122.185 23.1716C122.193 23.3065 122.238 23.4366 122.314 23.5482C122.239 23.0637 122.308 22.5678 122.513 22.1225C122.63 21.8769 122.801 21.6611 123.014 21.4915C123.226 21.3218 123.475 21.2028 123.74 21.1433C124.083 21.0715 124.438 21.0942 124.769 21.2088C125.1 21.3235 125.393 21.5259 125.618 21.7943L125.752 21.9665L125.887 21.7889C126.181 21.4566 126.596 21.2543 127.039 21.2261C127.483 21.1979 127.919 21.3461 128.254 21.6383C128.419 21.8216 128.539 22.0403 128.607 22.2775C128.674 22.5147 128.686 22.7642 128.642 23.0068C128.598 23.2494 128.498 23.4786 128.352 23.6769C128.205 23.8752 128.015 24.0373 127.796 24.1508L126.624 24.6888L127.909 24.5327C128.185 24.4964 128.464 24.5316 128.722 24.635C129.03 24.7283 129.295 24.926 129.473 25.1941C129.651 25.4622 129.729 25.7838 129.696 26.1037C129.654 26.3982 129.508 26.668 129.285 26.8652C129.063 27.0623 128.777 27.1738 128.48 27.1797L126.817 27.0129L128.399 27.5509C128.544 27.608 128.676 27.6938 128.787 27.8032C128.899 27.9126 128.986 28.0434 129.046 28.1876C129.105 28.3318 129.135 28.4866 129.132 28.6425C129.13 28.7984 129.097 28.9523 129.034 29.095C128.896 29.3402 128.675 29.5287 128.411 29.6272C128.147 29.7256 127.857 29.7277 127.592 29.633L127.312 29.5146L127.377 29.8052C127.399 30.073 127.326 30.3402 127.172 30.5603C127.018 30.7804 126.791 30.9396 126.532 31.0103C126.112 31.1252 125.666 31.1064 125.257 30.9565C124.547 30.7251 124.176 30.5045 124.16 30.5422Z" fill="#263238"/>
<path d="M115.186 61.504C115.068 61.4394 110.344 59.508 109.967 64.5168C109.591 69.5256 114.723 68.8531 114.739 68.7078C114.755 68.5625 115.186 61.504 115.186 61.504Z" fill="#FFBE9D"/>
<path d="M113.341 66.7121C113.341 66.7121 113.249 66.7659 113.098 66.8251C112.883 66.8965 112.649 66.885 112.442 66.7928C111.904 66.5614 111.538 65.7168 111.581 64.7807C111.599 64.3508 111.711 63.9301 111.909 63.5486C111.968 63.3957 112.063 63.2592 112.186 63.1506C112.308 63.042 112.455 62.9645 112.614 62.9246C112.716 62.9058 112.822 62.9228 112.913 62.9728C113.004 63.0228 113.075 63.1026 113.115 63.1989C113.168 63.3442 113.115 63.441 113.158 63.4518C113.201 63.4626 113.271 63.3765 113.244 63.1667C113.227 63.0403 113.166 62.924 113.072 62.8385C112.939 62.7277 112.77 62.6702 112.598 62.6771C112.389 62.7035 112.19 62.7832 112.021 62.9085C111.851 63.0338 111.716 63.2005 111.63 63.3926C111.387 63.8123 111.25 64.2852 111.232 64.7699C111.189 65.7813 111.64 66.7605 112.351 67.0241C112.483 67.0717 112.624 67.0891 112.763 67.0751C112.903 67.0612 113.038 67.0162 113.158 66.9434C113.324 66.8197 113.357 66.7121 113.341 66.7121Z" fill="#EB996E"/>
<path d="M128.184 69.6172C128.384 69.4257 128.628 69.2851 128.894 69.207C129.16 69.1289 129.441 69.1157 129.713 69.1683C129.986 69.221 130.241 69.3381 130.459 69.5097C130.677 69.6814 130.851 69.9027 130.965 70.1552C131.057 70.3647 131.104 70.5909 131.104 70.8196C131.104 71.0483 131.057 71.2745 130.965 71.484C130.825 71.7706 130.6 72.0076 130.321 72.1633C130.042 72.319 129.723 72.3861 129.405 72.3556C129.088 72.3119 128.793 72.1709 128.56 71.9522C128.327 71.7334 128.167 71.4477 128.103 71.1343C127.985 70.5049 127.786 69.7624 128.345 69.4612" fill="#EB996E"/>
<path d="M128.109 68.3259C128.297 68.3259 128.383 69.5633 129.524 70.3918C130.664 71.2204 131.998 70.989 132.025 71.1612C132.025 71.2419 131.74 71.4302 131.17 71.4786C130.432 71.5419 129.695 71.3397 129.093 70.9083C128.511 70.4963 128.113 69.8725 127.985 69.1706C127.904 68.6541 128.044 68.3259 128.109 68.3259Z" fill="#263238"/>
<path d="M109.306 84.5036L112.722 83.928L131.945 85.6334L138.804 88.8937L140.628 89.9697C140.628 89.9697 133.478 99.9227 126.15 99.3847C118.823 98.8467 106.169 88.3988 106.169 88.3988L106.11 84.9825L109.306 84.5036Z" fill="#FFBE9D"/>
<path d="M163.552 100.757L147.837 91.6752C145.889 91.0296 136.813 87.9468 136.813 87.9468C136.813 87.9468 129.766 99.1372 123.934 98.4163C120.781 98.0289 116.94 95.3013 114.104 92.8857C111.664 90.8117 109.581 88.3507 107.939 85.6011L107.304 84.5251C104.544 84.5251 95.9577 86.5964 92.9234 87.355C92.2008 87.5323 91.5462 87.9177 91.0404 88.4633C89.3564 90.2656 86.1015 93.698 85.4129 97.0713C84.7512 100.299 82.0558 110.688 82.0558 110.688L159.415 108.321L163.552 100.757Z" fill="#2DD4BF"/>
<path d="M188.402 101.02C187.224 101.558 177.475 104.878 177.04 105.373C176.604 105.868 163.235 101.144 163.235 101.144L159.415 108.38L193.901 107.632L188.402 101.02Z" fill="#FFBE9D"/>
<path d="M100.493 98.6745C100.445 98.6745 100.283 98.0558 99.8098 97.1305C99.1744 95.9302 98.3496 94.8402 97.3673 93.9025C96.3778 92.9726 95.3243 92.1133 94.2146 91.3308C93.7413 91.0207 93.2934 90.6735 92.875 90.2925C93.384 90.5395 93.8701 90.8312 94.3276 91.164C95.4806 91.9078 96.5613 92.7579 97.5556 93.7034C98.5612 94.6538 99.3836 95.7807 99.982 97.0282C100.159 97.4055 100.301 97.7981 100.407 98.2011C100.463 98.3526 100.492 98.5129 100.493 98.6745Z" fill="#263238"/>
<path d="M146.928 105.556C146.844 105.022 146.811 104.481 146.831 103.942C146.831 102.946 146.831 101.574 146.896 100.057C146.96 98.54 147.089 97.1735 147.197 96.189C147.229 95.6441 147.314 95.1036 147.45 94.575C147.473 95.1135 147.455 95.6531 147.396 96.189C147.337 97.265 147.261 98.5938 147.181 100.057C147.1 101.521 147.073 102.849 147.03 103.925C147.044 104.471 147.01 105.016 146.928 105.556Z" fill="#263238"/>
<path d="M110.419 89.7544C110.419 89.7544 110.387 89.8136 110.306 89.9104C110.187 90.0546 110.054 90.1862 109.908 90.3031C109.381 90.7467 108.759 91.0616 108.09 91.2231C107.088 91.478 106.032 91.4102 105.071 91.0294C104.508 90.796 103.996 90.4542 103.565 90.0234C103.108 89.593 102.699 89.1034 102.225 88.673C101.348 87.8539 100.198 87.3899 98.9974 87.371C98.0127 87.3528 97.0472 87.6445 96.2374 88.2049C95.6856 88.5796 95.2123 89.0584 94.844 89.6145C94.5858 90.0072 94.4836 90.2547 94.4567 90.244C94.465 90.1788 94.4831 90.1154 94.5105 90.0557C94.5804 89.8839 94.6613 89.7168 94.7526 89.5553C95.1838 88.8117 95.803 88.1946 96.548 87.7659C97.2931 87.3372 98.1378 87.1119 98.9974 87.1128C100.272 87.1151 101.498 87.5995 102.43 88.4686C102.919 88.9151 103.328 89.4101 103.769 89.8243C104.176 90.2333 104.656 90.5619 105.184 90.7927C105.948 91.1027 106.779 91.2125 107.597 91.1117C108.415 91.011 109.194 90.703 109.86 90.2171C110.225 89.9427 110.392 89.7275 110.419 89.7544Z" fill="white"/>
<path d="M146.395 98.1689C146.395 98.1689 146.228 97.8784 145.857 97.3726C145.28 96.6475 144.561 96.0486 143.743 95.6134C142.452 94.9067 140.96 94.6565 139.509 94.9032C138.563 95.0899 137.668 95.4776 136.884 96.0401C136.101 96.6025 135.447 97.3267 134.968 98.1635C134.399 99.1305 134.13 100.244 134.193 101.365C134.233 101.939 134.419 102.495 134.731 102.979C135.078 103.475 135.579 103.842 136.157 104.022C136.451 104.115 136.762 104.138 137.066 104.09C137.37 104.043 137.659 103.925 137.911 103.748C138.438 103.375 138.811 102.822 138.96 102.193C139.101 101.542 139.014 100.862 138.713 100.267C138.414 99.6459 137.962 99.1109 137.4 98.7122C136.194 97.905 134.729 97.5787 133.295 97.7976C131.794 98.0073 130.366 98.5797 129.136 99.4655C126.564 101.192 124.536 103.818 121.679 105.583C120.272 106.474 118.658 106.987 116.993 107.073C115.38 107.159 113.77 106.851 112.302 106.174C110.868 105.542 109.652 104.502 108.805 103.183C108.401 102.546 108.134 101.832 108.02 101.087C107.906 100.342 107.948 99.5805 108.143 98.8521C108.306 98.1479 108.649 97.4981 109.139 96.9662C109.628 96.4343 110.247 96.0386 110.936 95.8178C111.591 95.6365 112.282 95.6274 112.942 95.7914C113.601 95.9554 114.208 96.2869 114.702 96.7539C115.158 97.2262 115.449 97.8343 115.53 98.4863C115.594 99.1079 115.492 99.7355 115.234 100.305C114.752 101.376 113.889 102.229 112.813 102.699C111.831 103.082 110.763 103.188 109.725 103.005C108.81 102.848 107.924 102.556 107.094 102.139C105.79 101.443 104.553 100.629 103.398 99.7075C102.43 98.9759 101.666 98.4325 101.122 98.0935C100.853 97.9268 100.649 97.7977 100.504 97.717C100.359 97.6363 100.294 97.5878 100.294 97.5878C100.294 97.5878 100.375 97.6201 100.52 97.6954C100.665 97.7707 100.88 97.8837 101.155 98.0451C101.693 98.3733 102.489 98.9006 103.463 99.6161C104.619 100.521 105.856 101.317 107.159 101.994C107.978 102.397 108.851 102.678 109.752 102.828C110.757 102.998 111.79 102.891 112.738 102.516C113.761 102.061 114.58 101.242 115.035 100.219C115.274 99.6838 115.368 99.0959 115.31 98.5132C115.237 97.9043 114.965 97.3366 114.535 96.8992C114.07 96.4599 113.498 96.149 112.877 95.9972C112.255 95.8453 111.605 95.8577 110.989 96.033C110.343 96.2436 109.763 96.6179 109.305 97.1195C108.847 97.6211 108.526 98.2329 108.375 98.8952C108.192 99.59 108.154 100.315 108.265 101.025C108.375 101.735 108.63 102.415 109.015 103.022C109.838 104.292 111.014 105.294 112.399 105.905C113.829 106.559 115.396 106.858 116.967 106.777C118.581 106.689 120.146 106.189 121.513 105.324C124.316 103.597 126.355 100.977 128.964 99.218C130.238 98.3055 131.715 97.7182 133.268 97.5071C134.774 97.2817 136.31 97.6292 137.572 98.4809C138.168 98.9074 138.648 99.4773 138.965 100.138C139.281 100.788 139.371 101.525 139.218 102.231C139.055 102.918 138.645 103.521 138.067 103.925C137.785 104.12 137.463 104.249 137.125 104.301C136.787 104.353 136.441 104.328 136.114 104.227C135.489 104.025 134.946 103.625 134.57 103.086C134.223 102.565 134.017 101.962 133.973 101.338C133.909 100.176 134.194 99.0223 134.791 98.0236C135.288 97.1666 135.964 96.4266 136.772 95.8539C137.581 95.2811 138.503 94.889 139.476 94.7041C140.957 94.4638 142.475 94.7352 143.78 95.4735C144.606 95.9255 145.327 96.547 145.895 97.2973C146.093 97.5685 146.261 97.8608 146.395 98.1689Z" fill="white"/>
<path d="M157.456 97.2274C157.422 97.3824 157.364 97.5312 157.284 97.6686C157.092 98.0596 156.86 98.4293 156.59 98.7715C156.192 99.2807 155.725 99.7316 155.202 100.111C154.563 100.576 153.867 100.958 153.131 101.246C151.788 101.773 150.332 101.948 148.902 101.757C148.473 101.697 148.05 101.599 147.638 101.467C147.482 101.432 147.334 101.368 147.202 101.279C147.202 101.23 147.853 101.456 148.924 101.558C150.318 101.692 151.725 101.494 153.029 100.983C154.341 100.495 155.512 99.6909 156.44 98.6423C157.128 97.8246 157.408 97.2005 157.456 97.2274Z" fill="white"/>
<path d="M162.476 100.606C162.476 100.606 162.304 100.52 161.976 100.434C161.514 100.324 161.033 100.335 160.577 100.466C159.903 100.687 159.276 101.03 158.726 101.478C158.075 101.962 157.381 102.521 156.682 103.14C155.485 104.201 154.372 105.352 153.351 106.583C152.561 107.525 152.119 108.143 152.082 108.122C152.149 107.954 152.238 107.794 152.345 107.648C152.534 107.363 152.819 106.949 153.195 106.459C154.18 105.181 155.284 103.999 156.493 102.93C157.157 102.341 157.852 101.788 158.575 101.273C159.154 100.815 159.818 100.477 160.528 100.278C161.016 100.153 161.53 100.171 162.008 100.332C162.186 100.378 162.348 100.473 162.476 100.606Z" fill="white"/>
<path d="M141.037 90.0774C140.828 90.3251 140.567 90.5235 140.273 90.6584C138.902 91.4253 137.295 91.6554 135.764 91.304C135.443 91.2564 135.136 91.1389 134.866 90.9597C135.909 91.1752 136.979 91.2314 138.04 91.1265C139.086 90.9317 140.097 90.5779 141.037 90.0774Z" fill="white"/>
<path d="M94.6396 108.789C94.6516 107.997 94.6193 107.205 94.5428 106.416C94.3039 104.524 93.5606 102.731 92.3908 101.225C91.7437 100.407 90.987 99.6831 90.1419 99.0726C89.4456 98.5765 88.6856 98.1766 87.8823 97.8837C87.1302 97.6397 86.3628 97.4456 85.5851 97.3026C85.7975 97.2732 86.0129 97.2732 86.2253 97.3026C86.8111 97.3627 87.3884 97.4872 87.9469 97.6738C88.7791 97.9484 89.5673 98.3416 90.2872 98.8413C91.1666 99.4578 91.9498 100.201 92.6114 101.047C93.8217 102.587 94.5682 104.44 94.7634 106.389C94.8205 106.974 94.8205 107.564 94.7634 108.149C94.7494 108.366 94.7079 108.582 94.6396 108.789Z" fill="white"/>
<g opacity="0.3">
<path d="M100.116 106.077C99.6943 105.758 99.1931 105.561 98.6669 105.506C98.1407 105.451 97.6094 105.541 97.1305 105.765C96.727 105.959 96.3719 106.25 95.9577 106.427C95.7572 106.531 95.5325 106.579 95.3071 106.566C95.0817 106.552 94.8641 106.478 94.6772 106.352C94.3759 106.099 94.2899 105.669 94.0585 105.351C93.6228 104.765 92.7673 104.673 92.0464 104.813C91.3456 105.015 90.6231 105.132 89.8944 105.163C89.1833 105.029 88.4862 104.829 87.8124 104.566C87.0254 104.368 86.1988 104.398 85.4278 104.65C84.6568 104.902 83.9727 105.367 83.4545 105.991L82.1526 109.843L101.144 108.886C101.243 108.368 101.2 107.834 101.019 107.339C100.838 106.845 100.526 106.408 100.116 106.077Z" fill="black"/>
</g>
<path d="M106.524 108.558C106.475 108.558 106.309 108.057 105.787 107.379C105.121 106.49 104.175 105.851 103.101 105.565C102.028 105.279 100.889 105.363 99.8688 105.803C99.078 106.131 98.6745 106.503 98.6422 106.459C98.6099 106.416 98.7229 106.346 98.9058 106.185C99.1765 105.962 99.4727 105.773 99.7881 105.62C100.841 105.099 102.047 104.977 103.182 105.279C104.318 105.581 105.305 106.286 105.959 107.261C106.158 107.548 106.321 107.859 106.443 108.186C106.495 108.304 106.522 108.43 106.524 108.558Z" fill="white"/>
<g opacity="0.3">
<path d="M151.549 106.61C150.261 106.352 149.057 105.781 148.041 104.948C147.089 104.06 146.551 102.602 147.073 101.402C146.206 103.385 144.785 105.076 142.98 106.271C141.175 107.466 139.064 108.114 136.899 108.138L155.256 107.837C154.076 107.275 152.831 106.863 151.549 106.61Z" fill="black"/>
</g>
<path d="M130.158 60.9876C130.099 60.5349 130.015 60.0858 129.906 59.6426C129.564 58.4473 128.831 57.4014 127.823 56.6728C127.085 56.1371 126.224 55.795 125.319 55.6775C124.414 55.56 123.494 55.671 122.643 56.0003C121.637 56.3839 120.769 57.0604 120.152 57.9425C119.482 58.8846 119.131 60.0163 119.15 61.172C119.17 62.3278 119.558 63.447 120.259 64.3662C120.585 64.8066 120.979 65.1917 121.427 65.5068C121.851 65.815 122.319 66.058 122.815 66.2277C123.538 66.4754 124.305 66.57 125.067 66.5056C125.828 66.4411 126.569 66.2189 127.24 65.8531C127.911 65.4873 128.499 64.986 128.966 64.3808C129.434 63.7757 129.77 63.08 129.954 62.3379C130.045 61.8916 130.113 61.4409 130.158 60.9876C130.198 61.4471 130.165 61.91 130.062 62.3595C129.789 63.6122 129.094 64.733 128.092 65.5337C127.348 66.1326 126.464 66.5328 125.523 66.6965C124.582 66.8603 123.615 66.7822 122.712 66.4698C121.644 66.1048 120.708 65.4307 120.022 64.533C119.285 63.5673 118.876 62.3907 118.855 61.1756C118.835 59.9605 119.204 58.7709 119.91 57.7811C120.565 56.8617 121.479 56.1577 122.535 55.7582C123.486 55.3961 124.518 55.2976 125.521 55.4731C126.586 55.6604 127.575 56.1507 128.369 56.8854C129.163 57.6201 129.728 58.568 129.997 59.6157C130.123 60.0616 130.177 60.5246 130.158 60.9876Z" fill="#455A64"/>
<path d="M144.141 60.7454C144.081 60.2929 143.996 59.8439 143.888 59.4004C143.546 58.2055 142.81 57.161 141.801 56.4361C141.115 55.9341 140.321 55.6005 139.482 55.4623C138.52 55.3063 137.534 55.4084 136.625 55.7582C136.133 55.9433 135.672 56.2027 135.259 56.5275C134.822 56.8561 134.442 57.2541 134.134 57.7057C133.459 58.6456 133.105 59.7782 133.124 60.9354C133.143 62.0926 133.535 63.2127 134.242 64.1294C134.567 64.5682 134.962 64.9516 135.409 65.2646C135.83 65.5779 136.299 65.8214 136.797 65.9856C137.659 66.2863 138.582 66.366 139.483 66.2175C140.383 66.069 141.232 65.697 141.951 65.1355C142.934 64.3728 143.633 63.3025 143.937 62.0958C144.029 61.6496 144.097 61.1989 144.141 60.7454C144.18 61.207 144.145 61.6719 144.039 62.1227C143.772 63.3749 143.078 64.4952 142.075 65.2915C141.332 65.8919 140.448 66.2933 139.507 66.458C138.566 66.6227 137.598 66.5453 136.695 66.233C136.174 66.059 135.682 65.8068 135.237 65.4852C134.766 65.1572 134.35 64.7558 134.005 64.2962C133.271 63.3322 132.866 62.1583 132.849 60.947C132.831 59.7356 133.203 58.5506 133.908 57.5659C134.236 57.0943 134.638 56.6784 135.097 56.3338C135.532 55.9989 136.014 55.7305 136.528 55.5376C137.483 55.1797 138.515 55.0831 139.52 55.2578C140.584 55.4453 141.572 55.9351 142.366 56.6687C143.159 57.4023 143.725 58.3487 143.996 59.3951C144.114 59.8349 144.163 60.2905 144.141 60.7454Z" fill="#455A64"/>
<path d="M119.097 60.0676C118.473 60.4688 117.788 60.7668 117.069 60.9499C116.38 61.2151 115.654 61.3712 114.917 61.4126C115.583 61.1053 116.277 60.8604 116.988 60.6809C117.672 60.4157 118.378 60.2105 119.097 60.0676Z" fill="#455A64"/>
<path d="M133.564 59.3951C132.953 59.3103 132.335 59.2815 131.719 59.309C131.113 59.4317 130.52 59.6119 129.948 59.847C130.402 59.3653 131.025 59.078 131.686 59.0454C132.334 58.912 133.008 59.0376 133.564 59.3951Z" fill="#455A64"/>
<path d="M122.728 65.2702C122.409 65.2386 122.104 65.1256 121.841 64.942C121.169 64.5547 120.615 63.9934 120.236 63.3173C119.858 62.6412 119.668 61.8754 119.689 61.1007C119.666 60.782 119.727 60.4629 119.866 60.1753C119.909 60.1753 119.866 60.5358 119.866 61.1007C119.903 61.8325 120.109 62.5458 120.47 63.1837C120.83 63.8216 121.335 64.3666 121.943 64.7752C122.411 65.098 122.745 65.2271 122.728 65.2702Z" fill="white"/>
<path d="M136.56 64.872C136.261 64.8376 135.976 64.7264 135.732 64.5492C135.105 64.1757 134.586 63.6454 134.226 63.0105C133.873 62.3732 133.688 61.6568 133.688 60.9285C133.661 60.628 133.713 60.3259 133.838 60.0515C133.873 60.3389 133.889 60.6282 133.887 60.9177C133.945 61.6037 134.148 62.2695 134.484 62.8706C134.825 63.4673 135.291 63.983 135.85 64.3824C136.097 64.5312 136.334 64.6947 136.56 64.872Z" fill="white"/>
<path d="M60.0731 109.542C60.0731 109.542 58.642 196.047 70.5802 254.232L219.461 253.769L180.488 108.848L60.0731 109.542Z" fill="#E0E0E0"/>
<path d="M60.0731 109.542L180.488 108.735H180.574L180.601 108.816C191.7 150.08 205.102 199.872 219.596 253.731L219.644 253.909H219.461L207.625 253.947L70.5803 254.356H70.478V254.259C69.9759 251.583 69.4827 248.938 68.9985 246.323C68.7672 245.011 68.4982 243.714 68.2938 242.412C68.0893 241.11 67.901 239.819 67.702 238.533C67.3146 235.954 66.929 233.409 66.5453 230.899C66.226 228.388 65.9122 225.895 65.6038 223.421C65.4495 222.194 65.2953 220.973 65.1411 219.757C64.9904 218.541 64.8775 217.33 64.7483 216.131C64.5009 213.724 64.2552 211.353 64.0113 209.018C63.7477 206.683 63.5863 204.37 63.3818 202.094C63.1774 199.819 62.9945 197.58 62.8062 195.38C61.4396 177.728 60.8048 162.288 60.4336 149.569C60.0624 136.851 60.0086 126.839 60.0032 120.012C60.0032 116.595 60.0032 113.981 60.0408 112.216C60.0408 111.334 60.0516 110.667 60.0731 110.215C60.0731 109.79 60.0731 109.601 60.0731 109.542C60.0731 109.8 60.0731 113.217 60.0731 120.012C60.0731 126.807 60.1915 136.846 60.5681 149.564C60.9447 162.282 61.6441 177.717 62.9998 195.364C63.1935 197.564 63.3872 199.808 63.5809 202.078C63.7746 204.348 63.9521 206.662 64.2157 208.997C64.4793 211.332 64.7107 213.704 64.9635 216.104C65.0927 217.303 65.2056 218.514 65.3563 219.73C65.5069 220.946 65.6629 222.167 65.819 223.394C66.131 225.858 66.4466 228.349 66.7658 230.866C67.1532 233.379 67.5352 235.924 67.9279 238.495C68.1288 239.779 68.3278 241.072 68.5251 242.374C68.7242 243.676 68.9985 244.973 69.2299 246.28C69.7177 248.895 70.2108 251.538 70.7094 254.21L70.591 254.113L207.636 253.662L219.472 253.629L219.337 253.801C204.865 199.942 191.48 150.14 180.391 108.88L180.504 108.961L60.0731 109.542Z" fill="#263238"/>
<path d="M60.0731 109.542C60.0731 109.542 59.9494 120.942 61.8808 141.241C63.1559 154.691 63.016 172.311 66.5775 194.788C74.1095 242.277 78.0639 249.54 78.0639 249.54L223.27 248.556L184.626 107.417L60.0731 109.542Z" fill="#EBEBEB"/>
<path d="M60.073 109.542L184.625 107.299H184.717V107.385C195.832 147.788 209.11 196.295 223.426 248.556L223.474 248.733H223.297L215.383 248.787L78.0638 249.659H78.01L77.9777 249.594C77.4519 248.369 77.0062 247.111 76.6434 245.828C76.2561 244.575 75.9171 243.31 75.5674 242.062C75.2177 240.814 74.9218 239.555 74.6259 238.296C74.33 237.037 74.0449 235.805 73.7651 234.568C72.6497 229.629 71.6598 224.787 70.7954 220.042C69.02 210.535 67.5243 201.481 66.1955 192.959C65.5445 188.698 65.028 184.555 64.5815 180.542C64.1349 176.528 63.8175 172.666 63.5539 168.943C63.0159 161.491 62.72 154.637 62.3326 148.456C62.1497 145.362 61.9022 142.441 61.644 139.692C61.3858 136.942 61.1813 134.365 61.0038 131.966C60.6433 127.162 60.412 123.073 60.2721 119.753C60.1322 116.434 60.0677 113.889 60.0461 112.173C60.0461 111.312 60.0461 110.661 60.0461 110.225C60.0461 109.79 60.0461 109.569 60.0461 109.569C60.0461 109.693 60.0461 110.484 60.0838 112.167C60.1215 113.851 60.1914 116.434 60.3474 119.748C60.5034 123.062 60.7455 127.156 61.1168 131.955C61.2997 134.355 61.5149 136.937 61.7731 139.681C62.0314 142.425 62.2842 145.351 62.4725 148.445C62.8706 154.632 63.1773 161.486 63.7261 168.926C63.9951 172.649 64.3412 176.516 64.7644 180.526C65.1894 184.528 65.7113 188.671 66.3784 192.932C67.7126 201.449 69.2137 210.498 70.9998 219.999C71.8821 224.755 72.8739 229.609 73.975 234.562C74.2493 235.8 74.513 237.048 74.8358 238.291C75.1586 239.534 75.4491 240.793 75.7773 242.057C76.1054 243.321 76.4498 244.564 76.8533 245.823C77.2127 247.084 77.653 248.32 78.1714 249.524L78.0638 249.46L215.377 248.534L223.291 248.481L223.157 248.658C208.852 196.37 195.574 147.853 184.534 107.449L184.647 107.535L60.073 109.542Z" fill="#263238"/>
<path d="M197.763 114.126L60.1915 116.466C59.6104 153.777 72.7484 212.01 82.3786 242.638L226.756 241.126C211.972 201.879 194.977 157.257 197.763 114.126Z" fill="#F5F5F5"/>
<path d="M197.763 114.126C197.763 114.25 197.763 114.965 197.694 116.52C197.694 117.311 197.634 118.295 197.597 119.468C197.559 120.641 197.462 122.002 197.527 123.536C197.597 126.608 197.57 130.4 197.952 134.834C198.027 135.945 198.104 137.099 198.183 138.293C198.301 139.482 198.447 140.714 198.587 141.984C198.726 143.253 198.877 144.561 199.028 145.906C199.178 147.251 199.426 148.633 199.63 150.048C199.835 151.463 200.066 152.927 200.297 154.417C200.529 155.907 200.862 157.424 201.153 158.984C201.443 160.545 201.723 162.142 202.089 163.756C202.455 165.37 202.821 167.028 203.197 168.717C203.391 169.561 203.574 170.417 203.784 171.272L204.44 173.866C204.888 175.609 205.342 177.386 205.801 179.197C206.26 181.008 206.777 182.839 207.351 184.69C207.614 185.621 207.889 186.562 208.152 187.504L209.018 190.35C213.618 205.683 219.897 222.63 226.869 241.083L226.928 241.245H226.756L87.1561 242.735L82.3679 242.783H82.2603L82.2334 242.686C78.7525 231.469 75.7774 220.29 73.1681 209.282C70.5588 198.275 68.2669 187.428 66.3408 176.819C64.4148 166.21 62.8438 155.837 61.7194 145.744C60.5627 136.028 60.0075 126.251 60.057 116.466V116.348H60.1754L197.747 114.126L60.1807 116.59L60.2991 116.472C60.2554 126.245 60.816 136.013 61.9777 145.717C63.1021 155.794 64.6677 166.161 66.6098 176.771C68.552 187.38 70.8116 198.215 73.4371 209.217C76.0625 220.22 79.0215 231.394 82.497 242.6L82.3625 242.504L87.1561 242.455L226.756 241.024L226.643 241.185C219.682 222.732 213.419 205.769 208.83 190.425C208.54 189.467 208.254 188.515 207.964 187.574C207.673 186.632 207.426 185.685 207.168 184.755L205.624 179.262C205.168 177.447 204.716 175.668 204.268 173.925C204.047 173.053 203.832 172.187 203.612 171.332C203.391 170.476 203.224 169.615 203.036 168.771C202.659 167.081 202.288 165.43 201.928 163.805C201.567 162.18 201.304 160.577 200.997 159.027C200.69 157.478 200.405 155.95 200.152 154.46L199.49 150.102C199.291 148.682 199.039 147.304 198.893 145.959C198.748 144.614 198.603 143.296 198.463 142.027C198.323 140.757 198.183 139.525 198.07 138.336C197.957 137.147 197.914 135.985 197.844 134.877C197.478 130.427 197.511 126.634 197.451 123.579C197.398 122.04 197.516 120.695 197.543 119.522C197.57 118.349 197.629 117.37 197.661 116.579C197.731 114.976 197.758 114.25 197.763 114.126Z" fill="#263238"/>
<path d="M198.016 107.191L60.0731 109.542C59.4921 146.847 65.6091 181.123 75.2447 211.762L115.057 236.413L230.603 234.444C215.808 195.186 195.229 150.323 198.016 107.191Z" fill="#FAFAFA"/>
<path d="M198.016 107.191C198.016 107.315 197.984 108.041 197.919 109.607C197.882 110.408 197.833 111.409 197.828 112.587C197.823 113.766 197.774 115.137 197.828 116.687C197.983 125.643 198.897 134.57 200.561 143.372C202.632 154.766 206.28 168.383 211.547 183.641C214.167 191.275 217.169 199.324 220.424 207.781C223.679 216.238 227.197 225.088 230.711 234.396L230.77 234.557H230.598L115.057 236.548H115.014H114.981L97.7654 225.874L75.2016 211.886L75.1586 211.859V211.811C69.7053 194.491 65.6731 176.755 63.102 158.78C60.7986 142.474 59.7625 126.014 60.0031 109.548V109.429H60.1215L198.065 107.202L60.1269 109.671L60.2452 109.553C60.0049 125.993 61.0338 142.428 63.3226 158.71C65.8945 176.669 69.9249 194.388 75.3738 211.692L75.3146 211.617L97.8783 225.605L115.094 236.284H115.019L230.56 234.337L230.452 234.498C226.945 225.191 223.431 216.33 220.187 207.872C216.943 199.415 213.941 191.361 211.326 183.722C206.076 168.453 202.444 154.82 200.394 143.415C198.727 134.605 197.827 125.668 197.704 116.703C197.661 115.154 197.704 113.782 197.731 112.603C197.758 111.425 197.796 110.451 197.839 109.634C197.984 108.047 198.011 107.315 198.016 107.191Z" fill="#263238"/>
<path d="M75.3577 211.746L110.408 207.98L115.041 236.408L75.3577 211.746Z" fill="#E0E0E0"/>
<path d="M115.04 236.408C115.024 236.363 115.013 236.316 115.008 236.268C115.008 236.155 114.96 236.021 114.922 235.848L114.632 234.234C114.39 232.798 114.04 230.753 113.609 228.214C112.765 223.092 111.592 215.996 110.268 208.012L110.424 208.131L107.159 208.48L84.5951 210.864L77.7571 211.552L75.8956 211.73L75.4114 211.767H75.2446C75.2968 211.75 75.3511 211.739 75.406 211.735L75.8902 211.671L77.7463 211.445L84.5735 210.665L107.132 208.206L110.392 207.856H110.527V207.985C111.807 215.975 112.948 223.049 113.755 228.203C114.147 230.743 114.47 232.798 114.691 234.234C114.791 234.93 114.872 235.468 114.933 235.848L114.987 236.273C115.013 236.314 115.032 236.36 115.04 236.408Z" fill="#263238"/>
<path d="M172.122 146.099C172.122 146.175 153.534 146.557 130.61 146.949C107.686 147.342 89.0874 147.59 89.0874 147.514C89.0874 147.439 107.67 147.057 130.605 146.67C153.54 146.282 172.122 146.024 172.122 146.099Z" fill="#263238"/>
<path d="M174.441 159.038C174.441 159.113 155.853 159.495 132.924 159.888C109.994 160.281 91.4062 160.528 91.4062 160.453C91.4062 160.378 109.989 159.996 132.924 159.603C155.859 159.21 174.436 158.963 174.441 159.038Z" fill="#263238"/>
<path d="M179.638 171.929C179.638 172.004 161.05 172.386 138.126 172.773C115.202 173.161 96.6033 173.419 96.6033 173.344C96.6033 173.268 115.186 172.886 138.121 172.493C161.056 172.101 179.638 171.848 179.638 171.929Z" fill="#263238"/>
<path d="M185.072 186.541C185.072 186.621 166.484 186.998 143.56 187.391C120.636 187.783 102.037 188.036 102.037 187.956C102.037 187.875 120.62 187.504 143.555 187.111C166.49 186.718 185.072 186.465 185.072 186.541Z" fill="#263238"/>
<path d="M191.238 200.136C191.238 200.211 172.65 200.593 149.725 200.981C126.801 201.368 108.203 201.626 108.203 201.551C108.203 201.475 126.785 201.093 149.72 200.701C172.655 200.308 191.238 200.055 191.238 200.136Z" fill="#263238"/>
<path d="M65.4961 109.515C65.4961 109.515 67.137 107.175 68.0408 106.669C68.9447 106.164 70.1928 106.131 70.7685 106.621L71.3388 107.105C71.3388 107.105 74.1902 105.722 75.6051 106.68C75.6051 106.68 78.2951 105.303 79.6724 106.75C79.6724 106.75 81.7491 105.314 82.6798 106.486C83.6105 107.659 83.5783 109.714 83.1748 110.753C82.7713 111.791 82.0611 115.401 81.4317 115.482C81.4317 115.482 79.7477 115.708 79.5002 114.804C79.2528 113.9 79.1398 113.459 79.1398 113.459C79.1398 113.459 78.6018 116.687 77.8163 116.891C77.0308 117.096 75.5567 117.026 75.4652 115.611C75.4652 115.611 74.7766 116.687 74.0611 116.412C73.3455 116.138 72.4471 115.632 72.517 114.755C72.5869 113.878 72.5547 112.996 72.5547 112.996C72.5547 112.996 72.205 114.287 71.5594 114.029C70.9138 113.771 70.2735 113.846 69.8862 112.776C69.4988 111.705 68.5143 109.591 68.5143 109.591L65.4961 109.515Z" fill="#FFBE9D"/>
<path d="M72.5009 112.932C72.4578 112.932 72.6192 112.576 72.7483 112.006C72.9252 111.272 72.9344 110.507 72.7751 109.768C72.6159 109.029 72.2923 108.336 71.8284 107.74C71.4733 107.277 71.1935 107.04 71.2204 107.003C71.2473 106.965 71.5701 107.164 71.979 107.616C72.5149 108.207 72.886 108.929 73.055 109.709C73.2231 110.489 73.186 111.299 72.9474 112.06C72.8724 112.383 72.719 112.682 72.5009 112.932Z" fill="#EB996E"/>
<path d="M75.788 106.691C75.9845 107.09 76.1204 107.516 76.1915 107.955C76.6537 110.055 76.5704 112.239 75.9494 114.298C75.8471 114.729 75.6783 115.141 75.4491 115.519C75.8409 114.084 76.0914 112.613 76.1969 111.129C76.2049 109.64 76.0679 108.153 75.788 106.691Z" fill="#EB996E"/>
<path d="M79.7424 106.788C80.1258 109.053 79.9258 111.378 79.1614 113.545C79.0807 113.545 79.4465 112.044 79.6025 110.182C79.7586 108.321 79.6563 106.798 79.7424 106.788Z" fill="#EB996E"/>
<path d="M91.1265 107.186C91.0495 107.046 90.9424 106.926 90.8131 106.833C90.6838 106.74 90.5354 106.676 90.3787 106.648C90.0083 106.577 89.6262 106.596 89.2648 106.704C88.9034 106.811 88.5731 107.004 88.302 107.266C87.7663 107.798 87.3194 108.412 86.9785 109.085L90.9167 109.053C90.8629 108.402 91.3686 107.761 91.1265 107.186Z" fill="#FFBE9D"/>
<path d="M240.395 242.17C240.351 242.132 241.035 241.395 241.906 240.05C242.412 239.258 242.858 238.429 243.241 237.57C244.18 235.467 244.727 233.21 244.855 230.91C244.906 229.977 244.884 229.041 244.79 228.112C244.634 226.498 244.354 225.551 244.413 225.535C244.504 225.752 244.574 225.977 244.623 226.207C244.703 226.47 244.765 226.738 244.811 227.009C244.871 227.326 244.951 227.687 244.989 228.085C245.109 229.029 245.15 229.981 245.113 230.931C245.058 232.094 244.898 233.251 244.634 234.385C244.352 235.516 243.97 236.62 243.493 237.683C243.094 238.547 242.625 239.376 242.089 240.163C241.869 240.507 241.632 240.787 241.438 241.045C241.271 241.265 241.091 241.475 240.9 241.675C240.749 241.857 240.58 242.023 240.395 242.17Z" fill="#263238"/>
<path d="M232.12 245.236C232.088 245.204 232.76 244.591 233.734 243.493C236.235 240.627 238.022 237.209 238.947 233.519C239.302 232.109 239.421 231.211 239.485 231.222C239.482 231.442 239.457 231.662 239.41 231.878C239.346 232.453 239.249 233.025 239.119 233.589C238.285 237.347 236.472 240.818 233.863 243.649C233.472 244.078 233.057 244.484 232.62 244.865C232.471 245.011 232.303 245.136 232.12 245.236Z" fill="#263238"/>
<path d="M210.607 159.236C220.663 154.67 225.114 142.817 220.548 132.76C215.982 122.704 204.129 118.253 194.072 122.819C184.016 127.385 179.565 139.239 184.131 149.295C188.697 159.351 200.551 163.802 210.607 159.236Z" fill="#2DD4BF"/>
<path d="M201.852 134.043C201.931 138.68 202.01 143.318 202.089 147.955C202.121 149.682 204.811 149.688 204.779 147.955C204.704 143.318 204.625 138.68 204.542 134.043C204.515 132.316 201.825 132.31 201.852 134.043Z" fill="white"/>
<path d="M195.875 142.473L210.762 142.215C212.489 142.215 212.494 139.525 210.762 139.525L195.875 139.783C194.148 139.81 194.143 142.5 195.875 142.473Z" fill="white"/>
<g opacity="0.3">
<path d="M206.054 121.319C202.255 120.546 198.311 120.961 194.756 122.508C195.517 123.819 196.394 125.06 197.376 126.215C198.215 127.258 199.474 128.367 200.739 127.899C201.063 127.72 201.416 127.6 201.782 127.544C202.353 127.544 202.735 128.108 203.052 128.587C203.901 129.862 204.977 130.969 206.226 131.853C206.899 132.332 207.916 132.703 208.459 132.084C208.693 131.746 208.802 131.337 208.766 130.928C208.809 127.866 207.437 124.052 206.054 121.319Z" fill="black"/>
</g>
<path d="M188.402 101.02L191.63 100.052C192.918 99.6955 194.27 99.6397 195.582 99.8887C196.895 100.138 198.133 100.685 199.2 101.488C200.954 102.806 202.832 104.307 203.434 105.125L206.199 108.843C206.506 109.24 206.715 109.705 206.809 110.199C206.902 110.692 206.878 111.201 206.737 111.683C206.699 111.893 206.588 112.083 206.425 112.221L205.446 113.642C205.446 113.642 205.737 115.794 205.747 117.166C205.758 118.537 204.424 120.878 204.424 120.878L207.039 128.017C207.165 128.343 207.191 128.698 207.116 129.039C207.04 129.38 206.865 129.691 206.614 129.932C206.548 130.009 206.468 130.071 206.377 130.115C206.287 130.16 206.189 130.185 206.088 130.191C205.988 130.196 205.887 130.182 205.793 130.147C205.698 130.113 205.611 130.06 205.538 129.991C204.51 129.163 201.772 123.342 201.772 123.342L200.696 122.094L199.205 121.722C199.205 121.722 199.474 123.874 198.506 124.299L194.412 120.77L191.243 115.39C191.243 115.39 191.157 108.03 190.361 105.997L188.402 101.02Z" fill="#FFBE9D"/>
<path d="M202.492 115.245C203.602 116.931 204.26 118.875 204.402 120.888C204.322 120.888 204.074 119.587 203.547 118.037C203.02 116.488 202.422 115.288 202.492 115.245Z" fill="#EB996E"/>
<path d="M204.865 111.942C204.951 111.904 205.252 112.609 205.403 113.502C205.558 114.036 205.613 114.594 205.564 115.148C205.339 114.645 205.192 114.109 205.129 113.561C204.995 113.03 204.907 112.488 204.865 111.942Z" fill="#EB996E"/>
<path d="M202.396 124.633C202.069 124.163 201.771 123.675 201.502 123.17C200.964 122.255 200.201 121.018 199.313 119.667C198.872 118.989 198.436 118.355 198.038 117.779C197.71 117.266 197.304 116.808 196.833 116.423C196.379 116.098 195.841 115.911 195.283 115.885C195.43 115.827 195.59 115.81 195.746 115.837C196.178 115.88 196.591 116.034 196.946 116.283C197.455 116.66 197.896 117.123 198.248 117.65C198.662 118.22 199.103 118.855 199.55 119.533C200.437 120.883 201.164 122.153 201.675 123.094C201.969 123.58 202.211 124.096 202.396 124.633Z" fill="#EB996E"/>
<path d="M196.252 116.504C196.295 116.504 196.338 116.929 196.553 117.58C196.834 118.424 197.295 119.196 197.903 119.845C198.279 120.181 198.621 120.552 198.925 120.953C199.164 121.312 199.295 121.732 199.302 122.164C199.338 122.546 199.28 122.932 199.135 123.288C199.087 123.288 199.162 122.852 199.103 122.18C199.073 121.793 198.939 121.421 198.716 121.104C198.406 120.718 198.066 120.359 197.699 120.028C197.058 119.354 196.599 118.528 196.365 117.628C196.243 117.267 196.204 116.882 196.252 116.504Z" fill="#EB996E"/>
<path d="M190.882 108.88C190.802 108.88 190.882 107.6 190.64 106.051C190.398 104.501 190.027 103.274 190.145 103.258C190.286 103.5 190.395 103.758 190.468 104.028C190.677 104.675 190.828 105.339 190.92 106.013C191.099 106.962 191.086 107.937 190.882 108.88Z" fill="#EB996E"/>
</svg>
