<svg width="40" height="40" viewBox="0 0 40 40" fill="none" xmlns="http://www.w3.org/2000/svg">
<path d="M28.25 13.25H24.5V12.5C24.5 11.9033 24.2629 11.331 23.841 10.909C23.419 10.4871 22.8467 10.25 22.25 10.25H17.75C17.1533 10.25 16.581 10.4871 16.159 10.909C15.7371 11.331 15.5 11.9033 15.5 12.5V13.25H11.75C11.3522 13.25 10.9706 13.408 10.6893 13.6893C10.408 13.9706 10.25 14.3522 10.25 14.75V26.75C10.25 27.1478 10.408 27.5294 10.6893 27.8107C10.9706 28.092 11.3522 28.25 11.75 28.25H28.25C28.6478 28.25 29.0294 28.092 29.3107 27.8107C29.592 27.5294 29.75 27.1478 29.75 26.75V14.75C29.75 14.3522 29.592 13.9706 29.3107 13.6893C29.0294 13.408 28.6478 13.25 28.25 13.25ZM17 12.5C17 12.3011 17.079 12.1103 17.2197 11.9697C17.3603 11.829 17.5511 11.75 17.75 11.75H22.25C22.4489 11.75 22.6397 11.829 22.7803 11.9697C22.921 12.1103 23 12.3011 23 12.5V13.25H17V12.5ZM28.25 14.75V18.6509C25.7185 20.0289 22.8822 20.7505 20 20.75C17.1179 20.7505 14.2816 20.0292 11.75 18.6519V14.75H28.25ZM28.25 26.75H11.75V20.3412C14.3187 21.5977 17.1405 22.2506 20 22.25C22.8596 22.2501 25.6813 21.5969 28.25 20.3403V26.75ZM17.75 18.5C17.75 18.3011 17.829 18.1103 17.9697 17.9697C18.1103 17.829 18.3011 17.75 18.5 17.75H21.5C21.6989 17.75 21.8897 17.829 22.0303 17.9697C22.171 18.1103 22.25 18.3011 22.25 18.5C22.25 18.6989 22.171 18.8897 22.0303 19.0303C21.8897 19.171 21.6989 19.25 21.5 19.25H18.5C18.3011 19.25 18.1103 19.171 17.9697 19.0303C17.829 18.8897 17.75 18.6989 17.75 18.5Z" fill="black" fill-opacity="0.8"/>
</svg>
