<svg width="40" height="40" viewBox="0 0 40 40" fill="none" xmlns="http://www.w3.org/2000/svg">
<path d="M23.75 20C23.75 20.1989 23.671 20.3897 23.5303 20.5303C23.3897 20.671 23.1989 20.75 23 20.75H17C16.8011 20.75 16.6103 20.671 16.4697 20.5303C16.329 20.3897 16.25 20.1989 16.25 20C16.25 19.8011 16.329 19.6103 16.4697 19.4697C16.6103 19.329 16.8011 19.25 17 19.25H23C23.1989 19.25 23.3897 19.329 23.5303 19.4697C23.671 19.6103 23.75 19.8011 23.75 20ZM23 22.25H17C16.8011 22.25 16.6103 22.329 16.4697 22.4697C16.329 22.6103 16.25 22.8011 16.25 23C16.25 23.1989 16.329 23.3897 16.4697 23.5303C16.6103 23.671 16.8011 23.75 17 23.75H23C23.1989 23.75 23.3897 23.671 23.5303 23.5303C23.671 23.3897 23.75 23.1989 23.75 23C23.75 22.8011 23.671 22.6103 23.5303 22.4697C23.3897 22.329 23.1989 22.25 23 22.25ZM28.25 12.5V26.75C28.25 27.5456 27.9339 28.3087 27.3713 28.8713C26.8087 29.4339 26.0456 29.75 25.25 29.75H14.75C13.9544 29.75 13.1913 29.4339 12.6287 28.8713C12.0661 28.3087 11.75 27.5456 11.75 26.75V12.5C11.75 12.1022 11.908 11.7206 12.1893 11.4393C12.4706 11.158 12.8522 11 13.25 11H14.75V10.25C14.75 10.0511 14.829 9.86032 14.9697 9.71967C15.1103 9.57902 15.3011 9.5 15.5 9.5C15.6989 9.5 15.8897 9.57902 16.0303 9.71967C16.171 9.86032 16.25 10.0511 16.25 10.25V11H19.25V10.25C19.25 10.0511 19.329 9.86032 19.4697 9.71967C19.6103 9.57902 19.8011 9.5 20 9.5C20.1989 9.5 20.3897 9.57902 20.5303 9.71967C20.671 9.86032 20.75 10.0511 20.75 10.25V11H23.75V10.25C23.75 10.0511 23.829 9.86032 23.9697 9.71967C24.1103 9.57902 24.3011 9.5 24.5 9.5C24.6989 9.5 24.8897 9.57902 25.0303 9.71967C25.171 9.86032 25.25 10.0511 25.25 10.25V11H26.75C27.1478 11 27.5294 11.158 27.8107 11.4393C28.092 11.7206 28.25 12.1022 28.25 12.5ZM26.75 12.5H25.25V13.25C25.25 13.4489 25.171 13.6397 25.0303 13.7803C24.8897 13.921 24.6989 14 24.5 14C24.3011 14 24.1103 13.921 23.9697 13.7803C23.829 13.6397 23.75 13.4489 23.75 13.25V12.5H20.75V13.25C20.75 13.4489 20.671 13.6397 20.5303 13.7803C20.3897 13.921 20.1989 14 20 14C19.8011 14 19.6103 13.921 19.4697 13.7803C19.329 13.6397 19.25 13.4489 19.25 13.25V12.5H16.25V13.25C16.25 13.4489 16.171 13.6397 16.0303 13.7803C15.8897 13.921 15.6989 14 15.5 14C15.3011 14 15.1103 13.921 14.9697 13.7803C14.829 13.6397 14.75 13.4489 14.75 13.25V12.5H13.25V26.75C13.25 27.1478 13.408 27.5294 13.6893 27.8107C13.9706 28.092 14.3522 28.25 14.75 28.25H25.25C25.6478 28.25 26.0294 28.092 26.3107 27.8107C26.592 27.5294 26.75 27.1478 26.75 26.75V12.5Z" fill="black" fill-opacity="0.8"/>
</svg>
