<svg width="32" height="32" viewBox="0 0 32 32" fill="none" xmlns="http://www.w3.org/2000/svg">
<path d="M22.3794 15.5578C22.4375 15.6159 22.4836 15.6848 22.5151 15.7607C22.5465 15.8365 22.5627 15.9179 22.5627 16C22.5627 16.0821 22.5465 16.1635 22.5151 16.2393C22.4836 16.3152 22.4375 16.3841 22.3794 16.4422L15.9693 22.8484C15.1486 23.669 14.0357 24.1299 12.8752 24.1298C11.7148 24.1297 10.6019 23.6687 9.78136 22.848C8.96085 22.0274 8.49993 20.9145 8.5 19.754C8.50007 18.5936 8.96113 17.4807 9.78175 16.6602L17.5364 8.7914C18.1223 8.20492 18.9171 7.8752 19.7461 7.87476C20.5751 7.87432 21.3703 8.2032 21.9568 8.78906C22.5432 9.37492 22.873 10.1698 22.8734 10.9987C22.8738 11.8277 22.545 12.6229 21.9591 13.2094L14.2028 21.0781C13.8506 21.4304 13.3729 21.6283 12.8747 21.6283C12.3766 21.6283 11.8988 21.4304 11.5466 21.0781C11.1944 20.7259 10.9965 20.2481 10.9965 19.75C10.9965 19.2519 11.1944 18.7741 11.5466 18.4219L18.0544 11.8109C18.1114 11.7501 18.18 11.7013 18.2562 11.6674C18.3323 11.6335 18.4145 11.6152 18.4978 11.6135C18.5811 11.6118 18.664 11.6268 18.7414 11.6577C18.8189 11.6885 18.8894 11.7345 18.9488 11.7929C19.0082 11.8514 19.0553 11.9212 19.0874 11.9981C19.1194 12.0751 19.1357 12.1577 19.1354 12.241C19.135 12.3244 19.118 12.4068 19.0853 12.4835C19.0526 12.5602 19.0049 12.6295 18.945 12.6875L12.4364 19.3055C12.3782 19.3633 12.3318 19.432 12.3001 19.5077C12.2684 19.5834 12.2519 19.6646 12.2516 19.7467C12.2513 19.8288 12.2671 19.9102 12.2982 19.9861C12.3293 20.0621 12.3751 20.1312 12.4329 20.1895C12.4907 20.2477 12.5595 20.294 12.6352 20.3258C12.7109 20.3575 12.7921 20.374 12.8742 20.3743C12.9563 20.3746 13.0376 20.3588 13.1136 20.3277C13.1895 20.2965 13.2586 20.2508 13.3169 20.193L21.0724 12.3281C21.4246 11.9766 21.6228 11.4996 21.6233 11.0019C21.6238 10.5043 21.4266 10.0268 21.0751 9.67461C20.7236 9.32237 20.2465 9.12419 19.7489 9.12368C19.2513 9.12317 18.7738 9.32036 18.4216 9.67187L10.6685 17.5375C10.378 17.8275 10.1475 18.1718 9.99017 18.5509C9.8328 18.93 9.75164 19.3363 9.75131 19.7467C9.75099 20.1572 9.8315 20.5636 9.98827 20.9429C10.145 21.3223 10.375 21.667 10.665 21.9574C10.9549 22.2479 11.2993 22.4784 11.6784 22.6357C12.0574 22.7931 12.4638 22.8742 12.8742 22.8746C13.2846 22.8749 13.6911 22.7944 14.0704 22.6376C14.4497 22.4809 14.7944 22.2509 15.0849 21.9609L21.4958 15.5547C21.6134 15.438 21.7726 15.3727 21.9383 15.3733C22.1039 15.3739 22.2626 15.4403 22.3794 15.5578Z" fill="black" fill-opacity="0.8"/>
</svg>
