<svg width="20" height="20" viewBox="0 0 20 20" fill="none" xmlns="http://www.w3.org/2000/svg">
<path d="M17.7594 2.24083C17.6022 2.08375 17.406 1.97141 17.1909 1.91538C16.9759 1.85935 16.7498 1.86167 16.5359 1.92208H16.5242L1.52891 6.47208C1.28481 6.54228 1.06789 6.68517 0.907035 6.88173C0.746176 7.07829 0.649012 7.31919 0.628481 7.57235C0.60795 7.82551 0.665026 8.07892 0.79211 8.29883C0.919194 8.51874 1.11025 8.69472 1.33985 8.80333L8.02891 11.9713L11.1969 18.6604C11.2969 18.8746 11.4561 19.0557 11.6557 19.1824C11.8553 19.309 12.087 19.3759 12.3234 19.3752C12.3594 19.3752 12.3953 19.3736 12.4313 19.3705C12.6835 19.3501 12.9235 19.253 13.119 19.0923C13.3145 18.9315 13.4562 18.7149 13.525 18.4713L18.0719 3.47599C18.0719 3.47208 18.0719 3.46818 18.0719 3.46427C18.1331 3.25096 18.1364 3.0252 18.0815 2.81019C18.0266 2.59518 17.9154 2.39866 17.7594 2.24083ZM12.3305 18.1135L12.3266 18.1244L9.25157 11.633L12.9422 7.94161C13.0545 7.82345 13.1161 7.66611 13.114 7.50313C13.1119 7.34015 13.0463 7.18444 12.931 7.06919C12.8158 6.95394 12.6601 6.88827 12.4971 6.88618C12.3341 6.8841 12.1768 6.94576 12.0586 7.05802L8.36719 10.7486L1.87501 7.67365H1.88594L16.875 3.12521L12.3305 18.1135Z" fill="#2DD4BF"/>
</svg>
