<svg width="32" height="32" viewBox="0 0 32 32" fill="none" xmlns="http://www.w3.org/2000/svg">
<path d="M24.5671 14.3085L18.3171 8.05855C18.2298 7.97109 18.1184 7.9115 17.9972 7.88732C17.876 7.86314 17.7503 7.87545 17.6361 7.9227C17.5218 7.96995 17.4242 8.05001 17.3555 8.15276C17.2867 8.25551 17.25 8.37634 17.25 8.49995V11.6523C15.2234 11.8257 12.9851 12.8179 11.1437 14.3796C8.92651 16.2609 7.54605 18.6851 7.2562 21.2054C7.23355 21.4014 7.27328 21.5995 7.36974 21.7715C7.46619 21.9436 7.61446 22.0808 7.79343 22.1637C7.97241 22.2466 8.17298 22.271 8.36659 22.2333C8.56021 22.1956 8.73701 22.0978 8.87183 21.9539C9.7312 21.039 12.789 18.146 17.25 17.8914V21C17.25 21.1236 17.2867 21.2444 17.3555 21.3471C17.4242 21.4499 17.5218 21.53 17.6361 21.5772C17.7503 21.6245 17.876 21.6368 17.9972 21.6126C18.1184 21.5884 18.2298 21.5288 18.3171 21.4414L24.5671 15.1914C24.684 15.0742 24.7497 14.9155 24.7497 14.75C24.7497 14.5845 24.684 14.4257 24.5671 14.3085ZM18.5 19.4914V17.25C18.5 17.0842 18.4341 16.9252 18.3169 16.808C18.1997 16.6908 18.0407 16.625 17.875 16.625C15.6812 16.625 13.5445 17.1976 11.5242 18.3281C10.4952 18.9064 9.53652 19.6016 8.66714 20.4C9.12026 18.5375 10.2625 16.7664 11.9523 15.3328C13.7664 13.7945 15.9804 12.875 17.875 12.875C18.0407 12.875 18.1997 12.8091 18.3169 12.6919C18.4341 12.5747 18.5 12.4157 18.5 12.25V10.0093L23.2414 14.75L18.5 19.4914Z" fill="black" fill-opacity="0.8"/>
</svg>
