<svg width="40" height="40" viewBox="0 0 40 40" fill="none" xmlns="http://www.w3.org/2000/svg">
<path d="M0 6C0 2.68629 2.68629 0 6 0H34C37.3137 0 40 2.68629 40 6V34C40 37.3137 37.3137 40 34 40H6C2.68629 40 0 37.3137 0 34V6Z" fill="#22C55E"/>
<path d="M29.5307 15.2806L17.5307 27.2806C17.461 27.3503 17.3783 27.4056 17.2873 27.4433C17.1962 27.4811 17.0986 27.5005 17.0001 27.5005C16.9015 27.5005 16.8039 27.4811 16.7128 27.4433C16.6218 27.4056 16.5391 27.3503 16.4694 27.2806L11.2194 22.0306C11.0787 21.8898 10.9996 21.699 10.9996 21.4999C10.9996 21.3009 11.0787 21.11 11.2194 20.9693C11.3602 20.8286 11.551 20.7495 11.7501 20.7495C11.9491 20.7495 12.1399 20.8286 12.2807 20.9693L17.0001 25.6896L28.4694 14.2193C28.6102 14.0786 28.801 13.9995 29.0001 13.9995C29.1991 13.9995 29.3899 14.0786 29.5307 14.2193C29.6714 14.36 29.7505 14.5509 29.7505 14.7499C29.7505 14.949 29.6714 15.1398 29.5307 15.2806Z" fill="white"/>
</svg>
