<svg width="32" height="32" viewBox="0 0 32 32" fill="none" xmlns="http://www.w3.org/2000/svg">
<path d="M0 6C0 2.68629 2.68629 0 6 0H26C29.3137 0 32 2.68629 32 6V26C32 29.3137 29.3137 32 26 32H6C2.68629 32 0 29.3137 0 26V6Z" fill="#2DD4BF"/>
<path d="M23.9425 12.067L13.9425 22.067C13.8845 22.1252 13.8156 22.1713 13.7397 22.2027C13.6638 22.2342 13.5825 22.2504 13.5003 22.2504C13.4182 22.2504 13.3369 22.2342 13.261 22.2027C13.1851 22.1713 13.1162 22.1252 13.0582 22.067L8.68316 17.692C8.56588 17.5748 8.5 17.4157 8.5 17.2499C8.5 17.084 8.56588 16.9249 8.68316 16.8077C8.80044 16.6904 8.9595 16.6245 9.12535 16.6245C9.2912 16.6245 9.45026 16.6904 9.56753 16.8077L13.5003 20.7413L23.0582 11.1827C23.1754 11.0654 23.3345 10.9995 23.5003 10.9995C23.6662 10.9995 23.8253 11.0654 23.9425 11.1827C24.0598 11.2999 24.1257 11.459 24.1257 11.6249C24.1257 11.7907 24.0598 11.9498 23.9425 12.067Z" fill="white"/>
</svg>
