<svg width="24" height="24" viewBox="0 0 24 24" fill="none" xmlns="http://www.w3.org/2000/svg">
<path d="M5.05546 3.24544C4.9896 3.17119 4.90966 3.11076 4.82026 3.06764C4.73087 3.02452 4.63381 2.99957 4.53471 2.99424C4.4356 2.98891 4.33642 3.0033 4.24292 3.03658C4.14942 3.06986 4.06345 3.12137 3.99 3.18812C3.91656 3.25487 3.85709 3.33553 3.81504 3.42543C3.773 3.51533 3.74921 3.61269 3.74507 3.71185C3.74093 3.81101 3.75651 3.91001 3.79091 4.00311C3.8253 4.0962 3.87784 4.18154 3.94546 4.25419L6.3164 6.86231C5.30438 7.08876 4.36065 7.55244 3.56296 8.21513C3.39883 8.34711 3.26433 8.51217 3.16822 8.69958C3.07211 8.88698 3.01654 9.09253 3.00513 9.30283C2.99372 9.51314 3.02673 9.72349 3.10201 9.92019C3.17728 10.1169 3.29313 10.2955 3.44203 10.4445L7.96921 14.9726L3.96984 18.9692C3.82911 19.1099 3.75005 19.3008 3.75005 19.4998C3.75005 19.6988 3.82911 19.8897 3.96984 20.0304C4.11057 20.1712 4.30144 20.2502 4.50046 20.2502C4.69949 20.2502 4.89036 20.1712 5.03109 20.0304L9.02765 16.0311L13.5548 20.5582C13.694 20.698 13.8594 20.8089 14.0415 20.8847C14.2236 20.9605 14.4189 20.9996 14.6161 20.9998C14.6517 20.9998 14.6864 20.9998 14.722 20.9998C14.9359 20.985 15.144 20.9243 15.3323 20.8219C15.5206 20.7195 15.6846 20.5778 15.8133 20.4064C16.2563 19.8229 16.6213 19.1841 16.8989 18.5061L18.9464 20.7561C19.0123 20.8303 19.0922 20.8907 19.1816 20.9339C19.271 20.977 19.3681 21.0019 19.4672 21.0073C19.5663 21.0126 19.6654 20.9982 19.7589 20.9649C19.8524 20.9316 19.9384 20.8801 20.0119 20.8134C20.0853 20.7466 20.1448 20.666 20.1868 20.5761C20.2289 20.4862 20.2527 20.3888 20.2568 20.2896C20.2609 20.1905 20.2454 20.0915 20.211 19.9984C20.1766 19.9053 20.124 19.82 20.0564 19.7473L5.05546 3.24544ZM14.6161 19.4998L4.50046 9.38231C5.45953 8.60887 6.48796 8.22356 7.56234 8.232L15.7336 17.2207C15.5245 18.1461 15.023 18.9589 14.6161 19.4998ZM22.0617 9.74981L17.8767 13.9489C17.8072 14.0186 17.7245 14.074 17.6336 14.1118C17.5426 14.1496 17.4451 14.1691 17.3466 14.1693C17.2481 14.1694 17.1505 14.1501 17.0595 14.1126C16.9684 14.075 16.8857 14.0198 16.8159 13.9503C16.7462 13.8807 16.6908 13.7981 16.653 13.7072C16.6152 13.6162 16.5957 13.5187 16.5955 13.4202C16.5954 13.3217 16.6147 13.2241 16.6523 13.1331C16.6898 13.042 16.745 12.9592 16.8145 12.8895L21.0005 8.69044L15.3117 2.99981L11.4473 6.87637C11.3058 7.01135 11.1171 7.08569 10.9215 7.08354C10.7259 7.08139 10.5389 7.00292 10.4004 6.86485C10.2618 6.72679 10.1827 6.54007 10.1798 6.34449C10.177 6.14892 10.2507 5.95997 10.3852 5.81794L14.2505 1.94044C14.3898 1.80111 14.5551 1.69059 14.7371 1.61519C14.9192 1.53979 15.1142 1.50098 15.3112 1.50098C15.5083 1.50098 15.7033 1.53979 15.8853 1.61519C16.0674 1.69059 16.2327 1.80111 16.372 1.94044L22.0617 7.62919C22.3428 7.91046 22.5007 8.29185 22.5007 8.6895C22.5007 9.08715 22.3428 9.46854 22.0617 9.74981Z" fill="black" fill-opacity="0.8"/>
</svg>
